<svg width="178" height="178" viewBox="0 0 178 178" fill="none" xmlns="http://www.w3.org/2000/svg">
<g class="dicount_star_element">
    <path d="M87.5085 41.6695C88.3037 40.7794 89.6963 40.7794 90.4915 41.6695L94.5045 46.1614C95.1376 46.87 96.1817 47.0354 97.0027 46.5571L102.207 43.5251C103.239 42.9243 104.563 43.3547 105.044 44.4469L107.473 49.9591C107.856 50.8286 108.798 51.3085 109.727 51.1074L115.614 49.8321C116.78 49.5794 117.907 50.398 118.027 51.5855L118.633 57.5783C118.729 58.5237 119.476 59.2712 120.422 59.3668L126.415 59.9732C127.602 60.0933 128.421 61.22 128.168 62.3864L126.893 68.2734C126.691 69.202 127.171 70.1439 128.041 70.527L133.553 72.9556C134.645 73.4368 135.076 74.7613 134.475 75.7925L131.443 80.9973C130.965 81.8183 131.13 82.8624 131.839 83.4955L136.331 87.5085C137.221 88.3037 137.221 89.6963 136.331 90.4915L131.839 94.5045C131.13 95.1376 130.965 96.1817 131.443 97.0027L134.475 102.207C135.076 103.239 134.645 104.563 133.553 105.044L128.041 107.473C127.171 107.856 126.691 108.798 126.893 109.727L128.168 115.614C128.421 116.78 127.602 117.907 126.415 118.027L120.422 118.633C119.476 118.729 118.729 119.476 118.633 120.422L118.027 126.415C117.907 127.602 116.78 128.421 115.614 128.168L109.727 126.893C108.798 126.691 107.856 127.171 107.473 128.041L105.044 133.553C104.563 134.645 103.239 135.076 102.207 134.475L97.0027 131.443C96.1817 130.965 95.1376 131.13 94.5045 131.839L90.4915 136.331C89.6963 137.221 88.3037 137.221 87.5085 136.331L83.4955 131.839C82.8624 131.13 81.8183 130.965 80.9973 131.443L75.7925 134.475C74.7613 135.076 73.4368 134.645 72.9556 133.553L70.527 128.041C70.1439 127.171 69.202 126.691 68.2734 126.893L62.3864 128.168C61.22 128.421 60.0933 127.602 59.9732 126.415L59.3668 120.422C59.2712 119.476 58.5237 118.729 57.5783 118.633L51.5855 118.027C50.398 117.907 49.5794 116.78 49.8321 115.614L51.1074 109.727C51.3085 108.798 50.8286 107.856 49.9591 107.473L44.4469 105.044C43.3547 104.563 42.9243 103.239 43.5251 102.207L46.5571 97.0027C47.0354 96.1817 46.87 95.1376 46.1614 94.5045L41.6695 90.4915C40.7794 89.6963 40.7794 88.3037 41.6695 87.5085L46.1614 83.4955C46.87 82.8624 47.0354 81.8183 46.5571 80.9973L43.5251 75.7925C42.9243 74.7613 43.3547 73.4368 44.4469 72.9556L49.9591 70.527C50.8286 70.1439 51.3085 69.202 51.1074 68.2734L49.8321 62.3864C49.5794 61.22 50.398 60.0933 51.5855 59.9732L57.5783 59.3668C58.5237 59.2712 59.2712 58.5237 59.3668 57.5783L59.9732 51.5855C60.0933 50.398 61.22 49.5794 62.3864 49.8321L68.2734 51.1074C69.202 51.3085 70.1439 50.8286 70.527 49.9591L72.9556 44.4469C73.4368 43.3547 74.7613 42.9243 75.7925 43.5251L80.9973 46.5571C81.8183 47.0354 82.8624 46.87 83.4955 46.1614L87.5085 41.6695Z" fill="white"/>
    <path opacity="0.2" d="M90.1186 2.00258L99.513 12.518C100.304 13.4038 101.61 13.6105 102.636 13.0126L114.82 5.91487C115.593 5.4643 116.587 5.78707 116.948 6.60621L122.633 19.51C123.112 20.5969 124.289 21.1969 125.45 20.9454L139.231 17.9601C140.106 17.7706 140.951 18.3845 141.041 19.2751L142.46 33.3042C142.58 34.4858 143.514 35.4203 144.696 35.5398L158.725 36.9592C159.615 37.0493 160.229 37.8943 160.04 38.7692L157.055 52.5502C156.803 53.711 157.403 54.8885 158.49 55.3673L171.394 61.0525C172.213 61.4134 172.536 62.4067 172.085 63.1802L164.987 75.3642C164.39 76.3905 164.596 77.6957 165.482 78.487L175.997 87.8814C176.665 88.4778 176.665 89.5222 175.997 90.1186L165.482 99.513C164.596 100.304 164.39 101.61 164.987 102.636L172.085 114.82C172.536 115.593 172.213 116.587 171.394 116.948L158.49 122.633C157.403 123.112 156.803 124.289 157.055 125.45L160.04 139.231C160.229 140.106 159.615 140.951 158.725 141.041L144.696 142.46C143.514 142.58 142.58 143.514 142.46 144.696L141.041 158.725C140.951 159.615 140.106 160.229 139.231 160.04L125.45 157.055C124.289 156.803 123.112 157.403 122.633 158.49L116.948 171.394C116.587 172.213 115.593 172.536 114.82 172.085L102.636 164.987C101.61 164.39 100.304 164.596 99.513 165.482L90.1186 175.997C89.5222 176.665 88.4778 176.665 87.8814 175.997L78.487 165.482C77.6957 164.596 76.3905 164.39 75.3642 164.987L63.1802 172.085C62.4067 172.536 61.4134 172.213 61.0525 171.394L55.3673 158.49C54.8885 157.403 53.711 156.803 52.5502 157.055L38.7692 160.04C37.8943 160.229 37.0493 159.615 36.9592 158.725L35.5398 144.696C35.4203 143.514 34.4858 142.58 33.3042 142.46L19.2751 141.041C18.3845 140.951 17.7706 140.106 17.9601 139.231L20.9454 125.45C21.1969 124.289 20.5969 123.112 19.51 122.633L6.60621 116.948C5.78707 116.587 5.4643 115.593 5.91487 114.82L13.0126 102.636C13.6105 101.61 13.4038 100.304 12.518 99.513L2.00258 90.1186C1.33506 89.5222 1.33506 88.4778 2.00258 87.8814L12.518 78.487C13.4038 77.6957 13.6105 76.3905 13.0126 75.3642L5.91487 63.1802C5.4643 62.4067 5.78707 61.4134 6.60621 61.0525L19.51 55.3673C20.5969 54.8885 21.1969 53.711 20.9454 52.5502L17.9601 38.7692C17.7706 37.8943 18.3845 37.0493 19.2751 36.9592L33.3042 35.5398C34.4858 35.4203 35.4203 34.4858 35.5398 33.3042L36.9592 19.2751C37.0493 18.3845 37.8943 17.7706 38.7692 17.9601L52.5502 20.9454C53.711 21.1969 54.8885 20.5969 55.3673 19.51L61.0525 6.60621C61.4134 5.78707 62.4067 5.4643 63.1802 5.91487L75.3642 13.0126C76.3905 13.6105 77.6957 13.4038 78.487 12.518L87.8814 2.00258C88.4778 1.33506 89.5222 1.33506 90.1186 2.00258Z" stroke="white"/>
    <path opacity="0.4" d="M90.1186 12.0026L98.1677 21.0122C98.959 21.8979 100.264 22.1046 101.29 21.5068L111.73 15.4254C112.503 14.9749 113.496 15.2976 113.857 16.1168L118.728 27.1727C119.207 28.2596 120.385 28.8595 121.545 28.6081L133.353 26.0503C134.228 25.8608 135.073 26.4747 135.163 27.3653L136.379 39.3853C136.499 40.567 137.433 41.5014 138.615 41.621L150.635 42.8371C151.525 42.9272 152.139 43.7722 151.95 44.647L149.392 56.4546C149.14 57.6153 149.74 58.7928 150.827 59.2716L161.883 64.1426C162.702 64.5035 163.025 65.4969 162.575 66.2704L156.493 76.7096C155.895 77.7358 156.102 79.041 156.988 79.8323L165.997 87.8814C166.665 88.4778 166.665 89.5222 165.997 90.1186L156.988 98.1677C156.102 98.959 155.895 100.264 156.493 101.29L162.575 111.73C163.025 112.503 162.702 113.496 161.883 113.857L150.827 118.728C149.74 119.207 149.14 120.385 149.392 121.545L151.95 133.353C152.139 134.228 151.525 135.073 150.635 135.163L138.615 136.379C137.433 136.499 136.499 137.433 136.379 138.615L135.163 150.635C135.073 151.525 134.228 152.139 133.353 151.95L121.545 149.392C120.385 149.14 119.207 149.74 118.728 150.827L113.857 161.883C113.496 162.702 112.503 163.025 111.73 162.575L101.29 156.493C100.264 155.895 98.959 156.102 98.1677 156.988L90.1186 165.997C89.5222 166.665 88.4778 166.665 87.8814 165.997L79.8323 156.988C79.041 156.102 77.7358 155.895 76.7096 156.493L66.2704 162.575C65.4969 163.025 64.5035 162.702 64.1426 161.883L59.2716 150.827C58.7928 149.74 57.6153 149.14 56.4546 149.392L44.647 151.95C43.7722 152.139 42.9272 151.525 42.8371 150.635L41.621 138.615C41.5014 137.433 40.567 136.499 39.3853 136.379L27.3653 135.163C26.4747 135.073 25.8608 134.228 26.0503 133.353L28.6081 121.545C28.8595 120.385 28.2596 119.207 27.1727 118.728L16.1168 113.857C15.2976 113.496 14.9749 112.503 15.4254 111.73L21.5068 101.29C22.1046 100.264 21.8979 98.959 21.0122 98.1677L12.0026 90.1186C11.3351 89.5222 11.3351 88.4778 12.0026 87.8814L21.0122 79.8323C21.8979 79.041 22.1046 77.7358 21.5068 76.7096L15.4254 66.2704C14.9749 65.4969 15.2976 64.5035 16.1168 64.1426L27.1727 59.2716C28.2596 58.7928 28.8595 57.6153 28.6081 56.4545L26.0503 44.647C25.8608 43.7722 26.4747 42.9272 27.3653 42.8371L39.3853 41.621C40.567 41.5014 41.5014 40.567 41.621 39.3853L42.8371 27.3653C42.9272 26.4747 43.7722 25.8608 44.647 26.0503L56.4546 28.6081C57.6153 28.8595 58.7928 28.2596 59.2716 27.1727L64.1426 16.1168C64.5035 15.2976 65.4969 14.9749 66.2704 15.4254L76.7096 21.5068C77.7358 22.1046 79.041 21.8979 79.8323 21.0122L87.8814 12.0026C88.4778 11.3351 89.5222 11.3351 90.1186 12.0026Z" stroke="white"/>
    <path opacity="0.6" d="M90.1186 22.0026L96.8223 29.5063C97.6136 30.392 98.9188 30.5987 99.9451 30.0009L108.639 24.936C109.413 24.4854 110.406 24.8082 110.767 25.6273L114.824 34.8353C115.303 35.9222 116.48 36.5222 117.641 36.2707L127.475 34.1404C128.35 33.9509 129.195 34.5649 129.285 35.4555L130.298 45.4664C130.417 46.6481 131.352 47.5825 132.534 47.7021L142.545 48.7149C143.435 48.805 144.049 49.6501 143.86 50.5249L141.729 60.3589C141.478 61.5196 142.078 62.6971 143.165 63.176L152.373 67.2328C153.192 67.5937 153.515 68.5871 153.064 69.3605L147.999 78.0549C147.401 79.0812 147.608 80.3864 148.494 81.1777L155.997 87.8814C156.665 88.4778 156.665 89.5222 155.997 90.1186L148.494 96.8223C147.608 97.6136 147.401 98.9188 147.999 99.9451L153.064 108.639C153.515 109.413 153.192 110.406 152.373 110.767L143.165 114.824C142.078 115.303 141.478 116.48 141.729 117.641L143.86 127.475C144.049 128.35 143.435 129.195 142.545 129.285L132.534 130.298C131.352 130.417 130.417 131.352 130.298 132.534L129.285 142.545C129.195 143.435 128.35 144.049 127.475 143.86L117.641 141.729C116.48 141.478 115.303 142.078 114.824 143.165L110.767 152.373C110.406 153.192 109.413 153.515 108.639 153.064L99.9451 147.999C98.9188 147.401 97.6136 147.608 96.8223 148.494L90.1186 155.997C89.5222 156.665 88.4778 156.665 87.8814 155.997L81.1777 148.494C80.3864 147.608 79.0812 147.401 78.0549 147.999L69.3605 153.064C68.5871 153.515 67.5937 153.192 67.2328 152.373L63.176 143.165C62.6971 142.078 61.5196 141.478 60.3589 141.729L50.5249 143.86C49.6501 144.049 48.805 143.435 48.7149 142.545L47.7021 132.534C47.5825 131.352 46.6481 130.417 45.4664 130.298L35.4555 129.285C34.5649 129.195 33.9509 128.35 34.1404 127.475L36.2707 117.641C36.5222 116.48 35.9222 115.303 34.8353 114.824L25.6273 110.767C24.8082 110.406 24.4854 109.413 24.936 108.639L30.0009 99.9451C30.5987 98.9188 30.392 97.6136 29.5063 96.8223L22.0026 90.1186C21.3351 89.5222 21.3351 88.4778 22.0026 87.8814L29.5063 81.1777C30.392 80.3864 30.5987 79.0812 30.0009 78.0549L24.936 69.3605C24.4854 68.5871 24.8082 67.5937 25.6273 67.2328L34.8353 63.176C35.9222 62.6971 36.5222 61.5196 36.2707 60.3589L34.1404 50.5249C33.9509 49.6501 34.5649 48.805 35.4555 48.7149L45.4664 47.7021C46.6481 47.5825 47.5825 46.6481 47.7021 45.4664L48.7149 35.4555C48.805 34.5649 49.6501 33.9509 50.5249 34.1404L60.3589 36.2707C61.5196 36.5222 62.6971 35.9222 63.176 34.8353L67.2328 25.6273C67.5937 24.8082 68.5871 24.4854 69.3605 24.936L78.0549 30.0009C79.0812 30.5987 80.3864 30.392 81.1777 29.5063L87.8814 22.0026C88.4778 21.3351 89.5222 21.3351 90.1186 22.0026Z" stroke="white"/>
    <path opacity="0.8" d="M90.1186 32.0026L95.477 38.0004C96.2683 38.8861 97.5735 39.0928 98.5998 38.495L105.549 34.4466C106.323 33.996 107.316 34.3188 107.677 35.1379L110.92 42.498C111.399 43.5849 112.576 44.1848 113.737 43.9334L121.597 42.2306C122.472 42.0411 123.317 42.6551 123.407 43.5456L124.217 51.5475C124.336 52.7292 125.271 53.6636 126.452 53.7832L134.454 54.5928C135.345 54.6829 135.959 55.5279 135.769 56.4027L134.067 64.2632C133.815 65.424 134.415 66.6014 135.502 67.0803L142.862 70.323C143.681 70.6839 144.004 71.6772 143.553 72.4507L139.505 79.4002C138.907 80.4265 139.114 81.7317 140 82.523L145.997 87.8814C146.665 88.4777 146.665 89.5223 145.997 90.1186L140 95.477C139.114 96.2683 138.907 97.5735 139.505 98.5998L143.553 105.549C144.004 106.323 143.681 107.316 142.862 107.677L135.502 110.92C134.415 111.399 133.815 112.576 134.067 113.737L135.769 121.597C135.959 122.472 135.345 123.317 134.454 123.407L126.452 124.217C125.271 124.336 124.336 125.271 124.217 126.452L123.407 134.454C123.317 135.345 122.472 135.959 121.597 135.769L113.737 134.067C112.576 133.815 111.399 134.415 110.92 135.502L107.677 142.862C107.316 143.681 106.323 144.004 105.549 143.553L98.5998 139.505C97.5735 138.907 96.2683 139.114 95.477 140L90.1186 145.997C89.5223 146.665 88.4777 146.665 87.8814 145.997L82.523 140C81.7317 139.114 80.4265 138.907 79.4002 139.505L72.4507 143.553C71.6772 144.004 70.6839 143.681 70.323 142.862L67.0803 135.502C66.6014 134.415 65.424 133.815 64.2632 134.067L56.4027 135.769C55.5279 135.959 54.6829 135.345 54.5928 134.454L53.7832 126.452C53.6636 125.271 52.7292 124.336 51.5475 124.217L43.5456 123.407C42.6551 123.317 42.0411 122.472 42.2306 121.597L43.9334 113.737C44.1848 112.576 43.5849 111.399 42.498 110.92L35.1379 107.677C34.3188 107.316 33.996 106.323 34.4466 105.549L38.495 98.5998C39.0928 97.5735 38.8861 96.2683 38.0004 95.477L32.0026 90.1186C31.3351 89.5223 31.3351 88.4777 32.0026 87.8814L38.0004 82.523C38.8861 81.7317 39.0928 80.4265 38.495 79.4002L34.4466 72.4507C33.996 71.6772 34.3188 70.6839 35.1379 70.323L42.498 67.0803C43.5849 66.6014 44.1848 65.424 43.9334 64.2632L42.2306 56.4027C42.0411 55.5279 42.6551 54.6829 43.5456 54.5928L51.5475 53.7832C52.7292 53.6636 53.6636 52.7292 53.7832 51.5475L54.5928 43.5456C54.6829 42.6551 55.5279 42.0411 56.4027 42.2306L64.2632 43.9334C65.424 44.1848 66.6014 43.5849 67.0803 42.498L70.323 35.1379C70.6839 34.3188 71.6772 33.996 72.4507 34.4466L79.4002 38.495C80.4265 39.0928 81.7317 38.8861 82.523 38.0004L87.8814 32.0026C88.4777 31.3351 89.5223 31.3351 90.1186 32.0026Z" stroke="white"/>
    <path d="M69.7031 89.9355C69.7031 89.1152 69.7617 88.3047 69.8789 87.5039C70.0026 86.6966 70.2142 85.9382 70.5137 85.2285C70.8132 84.5124 71.2331 83.8809 71.7734 83.334C72.3138 82.7806 73.0007 82.3477 73.834 82.0352C74.6673 81.7161 75.6764 81.5566 76.8613 81.5566C77.1413 81.5566 77.4668 81.5697 77.8379 81.5957C78.2155 81.6152 78.528 81.651 78.7754 81.7031V84.1152C78.515 84.0566 78.235 84.0111 77.9355 83.9785C77.6426 83.9395 77.3496 83.9199 77.0566 83.9199C75.8717 83.9199 74.9538 84.1087 74.3027 84.4863C73.6582 84.8639 73.2025 85.388 72.9355 86.0586C72.6751 86.7227 72.5221 87.4974 72.4766 88.3828H72.6035C72.7858 88.0638 73.0137 87.7806 73.2871 87.5332C73.5671 87.2858 73.9056 87.0905 74.3027 86.9473C74.6999 86.7975 75.1654 86.7227 75.6992 86.7227C76.5326 86.7227 77.2552 86.9017 77.8672 87.2598C78.4792 87.6113 78.9512 88.1224 79.2832 88.793C79.6152 89.4635 79.7812 90.2806 79.7812 91.2441C79.7812 92.2728 79.5827 93.1582 79.1855 93.9004C78.7884 94.6426 78.2253 95.2122 77.4961 95.6094C76.7734 96 75.9141 96.1953 74.918 96.1953C74.1888 96.1953 73.5085 96.0716 72.877 95.8242C72.2454 95.5703 71.6921 95.1862 71.2168 94.6719C70.7415 94.1576 70.3704 93.5098 70.1035 92.7285C69.8366 91.9408 69.7031 91.0098 69.7031 89.9355ZM74.8594 93.7832C75.4518 93.7832 75.9336 93.5814 76.3047 93.1777C76.6758 92.7741 76.8613 92.1426 76.8613 91.2832C76.8613 90.5866 76.6986 90.0397 76.373 89.6426C76.054 89.2389 75.569 89.0371 74.918 89.0371C74.4753 89.0371 74.0846 89.138 73.7461 89.3398C73.4141 89.5352 73.1569 89.7858 72.9746 90.0918C72.7923 90.3913 72.7012 90.7005 72.7012 91.0195C72.7012 91.3516 72.7467 91.6803 72.8379 92.0059C72.929 92.3314 73.0658 92.6276 73.248 92.8945C73.4303 93.1615 73.6549 93.3763 73.9219 93.5391C74.1953 93.7018 74.5078 93.7832 74.8594 93.7832ZM91.1484 88.8613C91.1484 90.0137 91.0573 91.0423 90.875 91.9473C90.6992 92.8522 90.4128 93.6204 90.0156 94.252C89.625 94.8835 89.1107 95.3652 88.4727 95.6973C87.8346 96.0293 87.0599 96.1953 86.1484 96.1953C85.0026 96.1953 84.0618 95.9056 83.3262 95.3262C82.5905 94.7402 82.0469 93.9004 81.6953 92.8066C81.3438 91.7064 81.168 90.3913 81.168 88.8613C81.168 87.3184 81.3275 86 81.6465 84.9062C81.972 83.806 82.4993 82.9629 83.2285 82.377C83.9577 81.791 84.931 81.498 86.1484 81.498C87.2878 81.498 88.2253 81.791 88.9609 82.377C89.7031 82.9564 90.2533 83.7962 90.6113 84.8965C90.9694 85.9902 91.1484 87.3118 91.1484 88.8613ZM84.166 88.8613C84.166 89.9486 84.2246 90.8568 84.3418 91.5859C84.4655 92.3086 84.6706 92.8522 84.957 93.2168C85.2435 93.5814 85.6406 93.7637 86.1484 93.7637C86.6497 93.7637 87.0436 93.5846 87.3301 93.2266C87.623 92.862 87.8314 92.3184 87.9551 91.5957C88.0788 90.8665 88.1406 89.9551 88.1406 88.8613C88.1406 87.7741 88.0788 86.8659 87.9551 86.1367C87.8314 85.4076 87.623 84.8607 87.3301 84.4961C87.0436 84.125 86.6497 83.9395 86.1484 83.9395C85.6406 83.9395 85.2435 84.125 84.957 84.4961C84.6706 84.8607 84.4655 85.4076 84.3418 86.1367C84.2246 86.8659 84.166 87.7741 84.166 88.8613ZM95.875 81.5176C96.9948 81.5176 97.8444 81.9082 98.4238 82.6895C99.0033 83.4707 99.293 84.5677 99.293 85.9805C99.293 87.3932 99.0195 88.4967 98.4727 89.291C97.9258 90.0853 97.0599 90.4824 95.875 90.4824C94.7747 90.4824 93.9382 90.0853 93.3652 89.291C92.7923 88.4967 92.5059 87.3932 92.5059 85.9805C92.5059 84.5677 92.7728 83.4707 93.3066 82.6895C93.847 81.9082 94.7031 81.5176 95.875 81.5176ZM95.8945 83.5586C95.5755 83.5586 95.3411 83.7604 95.1914 84.1641C95.0417 84.5677 94.9668 85.1797 94.9668 86C94.9668 86.8203 95.0417 87.4355 95.1914 87.8457C95.3411 88.2559 95.5755 88.4609 95.8945 88.4609C96.2135 88.4609 96.4479 88.2591 96.5977 87.8555C96.7539 87.4453 96.832 86.8268 96.832 86C96.832 85.1797 96.7539 84.5677 96.5977 84.1641C96.4479 83.7604 96.2135 83.5586 95.8945 83.5586ZM106.012 81.7227L98.0918 96H95.748L103.668 81.7227H106.012ZM105.875 87.2207C106.995 87.2207 107.844 87.6113 108.424 88.3926C109.003 89.1738 109.293 90.2708 109.293 91.6836C109.293 93.0898 109.02 94.1901 108.473 94.9844C107.926 95.7786 107.06 96.1758 105.875 96.1758C104.775 96.1758 103.938 95.7786 103.365 94.9844C102.792 94.1901 102.506 93.0898 102.506 91.6836C102.506 90.2708 102.773 89.1738 103.307 88.3926C103.847 87.6113 104.703 87.2207 105.875 87.2207ZM105.895 89.2617C105.576 89.2617 105.341 89.4635 105.191 89.8672C105.042 90.2708 104.967 90.8828 104.967 91.7031C104.967 92.5234 105.042 93.1387 105.191 93.5488C105.341 93.959 105.576 94.1641 105.895 94.1641C106.214 94.1641 106.448 93.9622 106.598 93.5586C106.754 93.1484 106.832 92.5299 106.832 91.7031C106.832 90.8828 106.754 90.2708 106.598 89.8672C106.448 89.4635 106.214 89.2617 105.895 89.2617Z" fill="#39367B"/>
</g>
</svg>
