<svg xmlns="http://www.w3.org/2000/svg" width="150" height="120" viewBox="0 0 150 120" fill="#55565b">
<path d="M33.6416 47.0182C32.4715 47.1103 31.8733 47.199 31.0417 47.4061C27.8107 48.2048 25.0728 50.1407 21.5591 54.1112C20.721 55.0578 19.6725 56.3233 18.9165 57.2995C16.7801 60.0637 13.2467 64.1493 9.48326 68.2118C7.7478 70.0853 5.92689 71.9753 5.35169 72.5077L5 72.8298H9.40109H13.8022L15.3897 70.6342C16.2673 69.4279 17.4309 67.8174 17.983 67.0548L18.9822 65.6678L23.7745 65.6645C27.7746 65.6645 28.5634 65.6711 28.5634 65.7105C28.5634 65.7335 28.1723 67.3309 27.6924 69.2603C27.2125 71.1897 26.8214 72.7838 26.8214 72.8003C26.8214 72.82 27.9126 72.8265 29.6875 72.8233L32.5504 72.8134L35.7485 59.9454C37.5102 52.8688 38.9498 47.0577 38.9498 47.0347C38.9498 47.0051 38.4141 46.9952 36.3631 47.0018C34.9366 47.0051 33.7139 47.0116 33.6416 47.0182ZM32.3959 52.2443C32.3367 52.4382 29.6481 61.4048 29.6481 61.4146C29.6481 61.4179 27.9389 61.4245 25.8518 61.4245C23.7646 61.4245 22.0555 61.4179 22.0555 61.408C22.0555 61.3982 22.5123 60.7507 23.0678 59.9684C23.6233 59.1861 24.3562 58.1573 24.6948 57.6775C25.6315 56.3463 26.1509 55.7054 26.8608 54.9823C28.2183 53.5985 29.6744 52.6749 31.0285 52.3396C31.4788 52.2279 31.6991 52.1983 32.0902 52.1917C32.3827 52.1884 32.4123 52.195 32.3959 52.2443Z" fill="#55565b"/>
<path d="M73.9546 47.0117C73.9546 47.0709 68.8271 67.6465 68.7121 68.0475C68.2585 69.6285 67.5913 70.986 66.8156 71.903C66.5986 72.1561 66.2305 72.5012 66.0432 72.6228C65.9939 72.6557 65.9676 72.7017 65.9741 72.7444L65.984 72.8134H74.7763C84.1931 72.8134 83.7987 72.82 84.6533 72.6491C85.9385 72.3894 86.8752 71.9161 87.7364 71.0878C88.5909 70.2694 89.1366 69.4411 89.6296 68.2217C90.0733 67.1173 90.5269 65.4903 90.6715 64.4648C90.7438 63.9422 90.7438 63.0877 90.6715 62.6834C90.4086 61.224 89.5441 60.3234 87.858 59.7449C87.641 59.6693 87.4636 59.597 87.4636 59.5806C87.4636 59.5543 87.5096 59.5412 87.9237 59.436C90.448 58.8049 91.9271 57.4146 92.7192 54.9363C92.9427 54.2395 93.1597 53.2501 93.2681 52.435C93.3437 51.8664 93.3437 50.8442 93.2714 50.4136C93.1169 49.4998 92.7784 48.803 92.2262 48.241C91.5918 47.5967 90.7668 47.2582 89.3699 47.0709C88.9985 47.0215 88.259 47.015 81.4585 47.0051C77.3302 46.9985 73.9546 47.0018 73.9546 47.0117ZM85.83 51.6297C86.4578 51.6823 86.6813 51.7579 86.8818 51.9913C87.0461 52.1852 87.0856 52.3594 87.0823 52.8623C87.0757 53.3619 86.9738 53.993 86.7667 54.8015C86.369 56.3562 85.9582 57.0826 85.337 57.316C85.2384 57.3521 85.0214 57.3981 84.8571 57.4146C84.4199 57.4606 77.3729 57.4573 77.3729 57.4113C77.3729 57.3653 78.8191 51.6527 78.8421 51.6231C78.8619 51.5837 85.3764 51.5936 85.83 51.6297ZM83.7494 61.6875C84.1405 61.7368 84.3148 61.8025 84.5021 61.9701C84.7486 62.1904 84.8111 62.3514 84.8275 62.7886C84.8505 63.4065 84.6664 64.3893 84.2589 65.8125C83.7626 67.5413 83.4865 67.9522 82.6746 68.1527C82.4741 68.202 82.06 68.2086 78.5825 68.2184C76.4526 68.225 74.7106 68.2184 74.7106 68.2053C74.7106 68.1921 75.082 66.7163 75.5323 64.9283C75.9859 63.137 76.354 61.671 76.354 61.6645C76.354 61.6349 83.5029 61.6579 83.7494 61.6875Z" fill="#55565b"/>
<path d="M134.827 47.4686C134.827 47.4751 134.538 48.6091 134.186 49.9896C133.834 51.3701 133.545 52.5007 133.545 52.5073C133.545 52.5139 132.884 52.5205 132.076 52.5237C130.764 52.5336 130.603 52.5402 130.594 52.5862C130.587 52.6223 130.626 52.6486 130.725 52.6782C131.369 52.8689 131.964 53.4408 132.247 54.1376C132.437 54.6043 132.503 55.0053 132.506 55.7218C132.506 56.0735 132.49 56.4778 132.467 56.6422C132.441 56.8032 131.819 59.3571 131.08 62.312C130.317 65.3687 129.703 67.8996 129.653 68.179C129.414 69.5956 129.463 70.5718 129.811 71.2949C130.117 71.926 130.774 72.4618 131.586 72.7346C132.372 73.0008 133.184 73.0764 134.314 72.9909C135.33 72.9153 136.01 72.7872 137.88 72.327L139.11 72.0246L139.563 70.2497C139.813 69.2735 140.017 68.4584 140.02 68.4354C140.02 68.4058 139.58 68.3926 138.173 68.3861C136.135 68.3729 136.142 68.3729 135.852 68.1626C135.586 67.9719 135.507 67.6564 135.583 67.1075C135.613 66.8905 137.765 58.233 138.084 57.0432L138.117 56.9215H140.457H142.801L143.32 54.7917C143.603 53.6215 143.846 52.6322 143.856 52.5895L143.872 52.5172H141.552C140.277 52.5172 139.231 52.5106 139.231 52.504C139.231 52.4843 140.444 47.5869 140.467 47.5113C140.484 47.4587 140.336 47.4554 137.657 47.4554C136.099 47.4554 134.827 47.462 134.827 47.4686Z" fill="#55565b"/>
<path d="M143.514 47.6328C143.439 47.6558 143.311 47.715 143.232 47.761C142.752 48.0437 142.561 48.6747 142.795 49.1908C142.982 49.5951 143.383 49.858 143.83 49.8613C144.333 49.8646 144.688 49.6575 144.908 49.2302C144.99 49.0659 145 49.0166 145 48.7208C145 48.4447 144.987 48.3691 144.925 48.2409C144.803 47.9944 144.639 47.83 144.405 47.715C144.224 47.6262 144.142 47.6065 143.922 47.5967C143.754 47.5901 143.6 47.6032 143.514 47.6328ZM144.215 47.8793C144.53 48.0239 144.698 48.2902 144.714 48.6912C144.724 48.9147 144.714 48.9804 144.652 49.1152C144.51 49.4176 144.257 49.5918 143.932 49.6181C143.567 49.6444 143.268 49.4833 143.094 49.1645C143.008 49.0067 142.995 48.9508 142.995 48.7208C142.995 48.5071 143.012 48.4282 143.077 48.3C143.169 48.116 143.327 47.9648 143.518 47.8793C143.699 47.7971 144.034 47.7971 144.215 47.8793Z" fill="#55565b"/>
<path d="M143.462 48.1687C143.409 48.1819 143.406 48.2312 143.413 48.7472L143.423 49.3126L143.547 49.3224L143.669 49.3323V49.1022V48.8688H143.797C143.962 48.8688 144.011 48.9214 144.08 49.1482C144.132 49.329 144.132 49.329 144.264 49.329C144.395 49.329 144.399 49.329 144.376 49.2205C144.326 48.9773 144.277 48.8623 144.201 48.8031L144.123 48.7406L144.205 48.7012C144.326 48.6453 144.376 48.5303 144.34 48.3824C144.297 48.2049 144.159 48.1457 143.8 48.149C143.646 48.1523 143.495 48.1589 143.462 48.1687ZM144.024 48.3824C144.047 48.4054 144.063 48.4613 144.063 48.5073C144.063 48.6059 143.958 48.6716 143.8 48.6716C143.705 48.6716 143.702 48.6683 143.702 48.5073V48.3429H143.843C143.922 48.3429 144.001 48.3594 144.024 48.3824Z" fill="#55565b"/>
<path d="M49.4841 52.5073C49.2376 52.5303 48.8267 52.6223 48.5473 52.7209C47.7453 53.0036 46.7856 53.6346 45.2769 54.8771C44.9712 55.1302 44.7149 55.3208 44.7083 55.3011C44.705 55.2781 44.8496 54.6667 45.0304 53.937C45.2112 53.2074 45.3591 52.5894 45.3591 52.5631C45.3591 52.5237 44.9712 52.5171 42.5686 52.5171C39.9358 52.5171 39.7747 52.5204 39.7583 52.573C39.7484 52.6059 38.6079 57.1516 37.2241 62.6735C35.8404 68.1954 34.6998 72.7411 34.69 72.7707C34.6735 72.8265 34.8247 72.8298 37.5134 72.8298H40.3532L40.5734 71.9654C40.6951 71.4921 41.4839 68.3597 42.3286 65.0104L43.8636 58.9133L44.3073 58.7523C44.8693 58.5485 45.6385 58.325 46.0888 58.2395C46.9269 58.0785 47.1143 58.0653 48.7676 58.0489C49.9114 58.0357 50.3617 58.0226 50.3814 57.9963C50.3945 57.9733 50.48 57.7333 50.5655 57.4638C51.2524 55.3142 52.4061 53.5952 53.734 52.7538C53.9706 52.6059 54.0166 52.5434 53.918 52.504C53.8655 52.4842 49.7142 52.4875 49.4841 52.5073Z" fill="#55565b"/>
<path d="M58.3586 52.5533C56.5869 52.6388 55.4398 53.076 54.388 54.062C53.0207 55.3406 52.1464 57.3259 51.0618 61.6053C50.3748 64.3203 50.056 66.1543 50.0034 67.686C49.9409 69.5957 50.3386 70.8151 51.3313 71.7453C51.9098 72.2876 52.5343 72.5637 53.6156 72.7543C53.8819 72.8003 54.3716 72.8102 57.5533 72.8201C61.4186 72.8365 61.7144 72.8266 62.4375 72.682C63.5419 72.4585 64.334 72.0312 65.1196 71.2292C65.984 70.3483 66.4902 69.29 67.1476 66.9958C67.2823 66.529 67.6439 65.142 67.6439 65.096C67.6439 65.0828 66.4672 65.073 65.0309 65.073H62.4211L62.3849 65.211C61.9215 66.9793 61.5731 67.8306 61.182 68.1494C60.9683 68.3236 60.7514 68.3927 60.2814 68.4321C59.7456 68.4748 56.6297 68.4453 56.3371 68.396C56.2188 68.3762 56.0315 68.3138 55.9197 68.2579C55.7422 68.1724 55.7061 68.1396 55.6338 67.9884C55.3511 67.4132 55.5812 65.9177 56.5344 62.1148C57.4875 58.3119 57.8392 57.3784 58.4111 57.0826C58.7497 56.9117 58.7464 56.9117 60.8237 56.8986C62.9141 56.8821 63.1968 56.8986 63.4696 57.0366C63.6504 57.1286 63.7391 57.2272 63.818 57.431C63.9035 57.6611 63.8673 58.4828 63.7358 59.2355C63.68 59.5609 63.6241 59.86 63.6142 59.9027L63.5945 59.9783L66.2174 59.9718L68.837 59.9619L68.883 59.7647C68.9784 59.3473 69.1591 58.3086 69.2282 57.7827C69.3202 57.0662 69.3268 56.0013 69.2446 55.5542C69.0638 54.578 68.653 53.8812 67.9364 53.3422C67.3054 52.8656 66.4573 52.6224 65.1788 52.5501C64.5181 52.5139 59.0981 52.5139 58.3586 52.5533Z" fill="#55565b"/>
<path d="M100.134 52.5533C98.0308 52.6585 96.7029 53.2896 95.5426 54.7457C94.5106 56.0374 93.7283 58.0555 92.7751 61.8683C91.7167 66.1149 91.513 68.534 92.0849 70.1741C92.3051 70.8052 92.5319 71.1668 93.015 71.6499C93.5311 72.1627 93.9715 72.4125 94.7341 72.6163C95.4868 72.8168 95.375 72.8135 99.8385 72.8135C103.592 72.8135 103.944 72.8102 104.302 72.7543C105.574 72.5604 106.432 72.1594 107.293 71.3508C108.075 70.6179 108.611 69.6614 109.18 67.9818C109.361 67.4493 109.748 66.1773 109.748 66.1215C109.748 66.105 108.726 66.0919 107.171 66.0919H104.598L104.506 66.4107C104.039 68.0607 103.694 68.5373 102.885 68.6556C102.576 68.7016 98.4482 68.6983 98.1261 68.6523C97.6035 68.58 97.3208 68.3992 97.2058 68.0607C97.048 67.5972 97.2156 66.1773 97.6528 64.294L97.7251 63.9883L103.76 63.9817C110.176 63.9719 109.903 63.9784 110.146 63.8141C110.337 63.6859 110.429 63.4591 110.672 62.4961C111.612 58.7655 111.796 56.6751 111.319 55.1795C111.132 54.5978 110.872 54.1672 110.439 53.73C109.696 52.9773 108.782 52.6388 107.273 52.5501C106.629 52.5139 100.887 52.5139 100.134 52.5533ZM105.446 56.7309C105.735 56.7934 105.899 56.8821 106.024 57.0465C106.254 57.3489 106.258 57.9536 106.034 59.2552C105.965 59.6595 105.752 60.7277 105.719 60.8395C105.702 60.8954 105.502 60.8987 102.103 60.8987H98.5074L98.5271 60.8066C98.7736 59.7877 99.1943 58.3481 99.3784 57.8912C99.6775 57.1484 99.9043 56.9117 100.447 56.7704C100.798 56.6816 101.258 56.6652 103.257 56.6751C104.818 56.6816 105.275 56.6948 105.446 56.7309Z" fill="#55565b"/>
<path d="M118.567 52.5501C117.17 52.6487 116.207 53.0629 115.425 53.901C114.6 54.7852 114.045 55.9093 113.63 57.5461C113.308 58.8083 113.19 59.6103 113.187 60.5207C113.183 61.2833 113.22 61.5298 113.397 62.0261C113.719 62.9004 114.478 63.4625 115.842 63.824C116.135 63.9029 119.169 64.5274 122.255 65.1421C122.525 65.1979 122.817 65.2735 122.903 65.3097C123.08 65.3853 123.346 65.6482 123.373 65.7764C123.382 65.8224 123.396 65.898 123.405 65.9408C123.445 66.1347 123.304 66.8808 123.123 67.4396C122.912 68.0772 122.636 68.4782 122.301 68.6195C122.018 68.7444 121.562 68.7609 118.981 68.7477C116.832 68.7346 116.549 68.728 116.375 68.6787C116.135 68.6064 116 68.5144 115.941 68.373C115.839 68.1331 115.902 67.479 116.109 66.562C116.155 66.3582 116.191 66.1708 116.191 66.1445C116.191 66.0985 115.941 66.0919 113.775 66.0919H111.359L111.33 66.1643C111.27 66.322 111.06 67.1832 110.968 67.6532C110.804 68.4881 110.754 68.9351 110.754 69.6746C110.754 70.4372 110.817 70.8283 111.004 71.2819C111.316 72.028 112.059 72.521 113.233 72.7544C113.486 72.8037 113.969 72.8103 118.327 72.8201C123.346 72.8333 123.583 72.83 124.207 72.6952C125.207 72.4783 125.89 72.0576 126.558 71.2523C127.422 70.2137 128.004 68.7937 128.431 66.7C128.615 65.7928 128.664 65.3623 128.661 64.6457C128.661 63.755 128.543 63.2094 128.24 62.7098C128.01 62.3318 127.534 61.9374 127.031 61.7073C126.41 61.4246 126.219 61.3786 122.416 60.6391C120.03 60.1723 119.018 59.962 118.899 59.9094C118.81 59.8667 118.676 59.7713 118.6 59.6957C118.35 59.4427 118.34 59.1008 118.561 58.2528C118.83 57.2076 119.087 56.8132 119.586 56.685C119.721 56.6521 120.257 56.6423 122.124 56.6423C124.329 56.6423 124.507 56.6455 124.714 56.7047C125 56.7836 125.184 56.9184 125.269 57.1123C125.332 57.247 125.335 57.3062 125.318 57.6612C125.305 57.888 125.263 58.2167 125.213 58.4336C125.167 58.6407 125.131 58.8214 125.131 58.8346C125.131 58.851 126.239 58.8609 127.596 58.8609H130.058L130.091 58.736C130.15 58.5158 130.321 57.6349 130.37 57.2832C130.594 55.7581 130.485 54.6209 130.058 53.9109C129.713 53.3423 129.088 52.9281 128.254 52.7145C127.56 52.537 127.606 52.5403 123.11 52.5304C120.815 52.5271 118.771 52.537 118.567 52.5501Z" fill="#55565b"/>
</svg>
