<svg width="1200" height="1200" viewBox="0 0 1200 1200" fill="none" xmlns="http://www.w3.org/2000/svg">
<path fill-rule="evenodd" clip-rule="evenodd" d="M1200 787.518V604.298H0V787.518H1200ZM1200 594.452V412H0V594.452H1200Z" fill="#004890"/>
<path fill-rule="evenodd" clip-rule="evenodd" d="M596.17 442.8C533.118 442.8 482.132 512.978 482.132 599.754C482.132 686.545 533.118 756.719 596.17 756.719C659.226 756.719 710.76 686.545 710.76 599.754C710.76 512.973 659.226 442.8 596.17 442.8Z" fill="#D11C00"/>
<path fill-rule="evenodd" clip-rule="evenodd" d="M567.265 621.234L575.515 609.916L669.508 603.862L673.352 598.563H581.564L530.992 517.751L698.648 594.794L643.124 671.865H530.992L541.985 655.984L635.975 649.936L639.823 644.659H550.777L559.019 633.313L652.467 627.282L656.861 621.234H567.265V621.234ZM764.065 473.202H776.705C787.69 473.202 797.582 477.725 797.582 494.332C797.582 510.196 789.344 516.249 778.351 516.249H773.953V542.678H764.061V473.202H764.065ZM773.957 505.667H777.801C782.753 505.667 787.151 503.4 787.151 495.097C787.151 487.553 782.753 484.526 777.801 484.526H773.957V505.667ZM844.872 472.42C860.806 472.42 869.586 486.793 869.586 507.918C869.586 529.087 860.802 543.438 844.872 543.438C828.923 543.438 820.681 529.087 820.681 507.918C820.681 486.793 828.923 472.42 844.872 472.42ZM844.872 532.867C855.315 532.867 859.151 520.018 859.151 507.918C859.151 495.84 854.757 482.996 844.872 482.996C834.972 482.996 831.12 495.84 831.12 507.918C831.12 520.018 834.972 532.867 844.872 532.867ZM924.009 486.023C920.716 484.521 916.856 482.996 913.562 482.996C910.269 482.996 905.875 485.269 905.875 492.819C905.875 504.919 927.869 499.62 927.869 523.045C927.869 538.15 919.081 543.438 908.618 543.438C903.128 543.438 900.947 542.667 895.982 541.171L897.087 528.322C900.38 531.343 904.236 532.867 908.096 532.867C911.924 532.867 917.422 529.846 917.422 523.793C917.422 510.95 895.432 516.244 895.432 493.567C895.432 477.725 903.686 472.42 912.458 472.42C916.852 472.42 921.262 473.202 924.572 474.698L924.009 486.023V486.023ZM964.158 484.526H949.855V473.202H988.341V484.526H974.051V542.673H964.158V484.526V484.526ZM1013.07 473.202H1042.75V484.526H1022.98V501.144H1041.11V512.469H1022.98V531.343H1042.75V542.673H1013.07V473.202V473.202ZM1097.74 486.023C1094.98 484.521 1091.12 482.996 1087.83 482.996C1083.99 482.996 1079.58 485.269 1079.58 492.819C1079.58 504.919 1101.58 499.62 1101.58 523.045C1101.58 538.15 1093.34 543.438 1082.88 543.438C1077.39 543.438 1075.2 542.667 1070.23 541.171L1070.8 528.322C1074.64 531.343 1078.48 532.867 1082.36 532.867C1086.19 532.867 1091.12 529.846 1091.12 523.793C1091.12 510.95 1069.14 516.244 1069.14 493.567C1069.14 477.725 1077.95 472.42 1086.72 472.42C1091.12 472.42 1094.98 473.202 1098.83 474.698L1097.74 486.023V486.023ZM802.539 731.524C799.241 732.278 795.397 733.027 791.553 733.027C775.058 733.027 763.518 722.456 763.518 699.026C763.518 674.858 774.512 662.009 791.553 662.009C794.847 662.009 799.241 662.774 802.539 665.025L801.992 676.382C798.145 673.35 794.847 672.602 790.999 672.602C780.556 672.602 774.512 683.926 774.512 697.523C774.512 711.88 780.56 722.45 791.553 722.45C795.397 722.45 799.799 720.926 802.539 719.424V731.524V731.524ZM842.679 662.78H853.66L873.446 732.278H862.449L858.058 716.409H837.715L833.317 732.278H822.87L842.679 662.78ZM848.154 677.136L840.466 705.838H855.315L848.154 677.136ZM897.633 662.78H910.273L928.978 714.906H929.52V662.78H938.874V732.278H926.761L907.534 680.911V732.278H897.633V662.78V662.78ZM982.297 662.78H993.832L1013.62 732.278H1002.63L998.23 716.409H977.894L973.492 732.278H963.045L982.297 662.78V662.78ZM987.783 677.136L980.638 705.838H995.487L987.783 677.136ZM1037.8 662.78H1051.55C1067.49 662.78 1080.68 670.335 1080.68 697.534C1080.68 724.701 1067.49 732.284 1051.55 732.284H1037.8V662.78V662.78ZM1048.26 720.932H1053.75C1061.99 720.932 1070.23 712.628 1070.23 697.529C1070.23 682.43 1061.99 674.098 1053.75 674.098H1048.26V720.932ZM1122.46 662.78H1134.01L1153.8 732.278H1142.26L1137.85 716.409H1117.51L1113.11 732.278H1102.67L1122.46 662.78V662.78ZM1127.95 677.136L1120.81 705.838H1135.11L1127.95 677.136ZM92.3312 541.913C88.4914 542.673 84.6356 543.438 80.7878 543.438C64.8504 543.438 53.307 532.867 53.307 509.442C53.307 485.269 63.7499 472.415 80.7878 472.415C84.0894 472.415 88.4914 473.196 92.3312 475.441L91.7809 486.788C87.9372 483.75 84.0894 482.991 80.7878 482.991C70.3409 482.991 63.7499 494.321 63.7499 507.912C63.7499 522.285 70.3449 532.862 80.7878 532.862C84.6356 532.862 89.5879 531.337 91.7809 529.841L92.3312 541.913V541.913ZM131.914 473.202H143.449L163.234 542.673H152.257L147.847 526.82H127.512L123.118 542.673H112.675L131.914 473.202V473.202ZM137.963 487.553H137.4L130.267 516.249H145.104L137.963 487.553ZM187.43 473.202H199.519L218.766 525.29V473.202H228.651V542.673H216.011L196.772 491.316V542.673H187.43V473.202V473.202ZM272.089 473.202H283.628L303.414 542.673H291.874L287.476 526.82H267.133L262.735 542.673H252.292L272.089 473.202V473.202ZM277.58 487.553L270.426 516.249H284.733L277.58 487.553ZM327.597 473.202H341.341C356.745 473.202 370.481 480.724 370.481 507.923C370.481 535.123 356.745 542.678 341.341 542.678H327.597V473.202ZM337.498 531.343H343.546C351.792 531.343 360.038 523.05 360.038 507.918C360.038 492.819 351.788 484.521 343.546 484.521H337.498V531.343ZM412.252 473.202H423.246L443.039 542.673H432.046L427.648 526.82H407.308L402.914 542.673H392.467L412.252 473.202V473.202ZM417.751 487.553H417.197L410.047 516.249H424.892L417.751 487.553ZM54.9538 662.78H67.5937C78.5908 662.78 88.4874 667.308 88.4874 683.932C88.4874 699.807 80.2335 705.832 69.2444 705.832H64.8464V732.278H54.9497V662.78H54.9538ZM64.8504 695.262H68.6982C73.6425 695.262 78.0405 692.978 78.0405 684.691C78.0405 677.136 73.6425 674.104 68.6982 674.104H64.8504V695.262ZM135.761 662.015C151.703 662.015 160.495 676.388 160.495 697.529C160.495 718.676 151.703 733.027 135.761 733.027C119.816 733.027 111.574 718.676 111.574 697.529C111.574 676.388 119.82 662.015 135.761 662.015ZM135.761 722.462C146.208 722.462 150.052 709.607 150.052 697.534C150.052 685.434 146.208 672.613 135.761 672.613C125.865 672.613 122.013 685.434 122.013 697.534C122.017 709.602 125.869 722.462 135.761 722.462ZM214.914 675.606C211.617 674.104 208.315 672.607 204.472 672.607C201.178 672.607 196.768 674.858 196.768 682.43C196.768 694.508 218.766 689.209 218.766 712.623C218.766 727.75 209.97 733.027 200.077 733.027C194.575 733.027 191.824 732.273 186.879 730.748L187.98 717.927C191.277 720.926 195.129 722.45 198.973 722.45C202.817 722.45 208.315 719.424 208.315 713.393C208.315 700.55 186.325 705.827 186.325 683.172C186.325 667.303 195.125 662.009 203.917 662.009C207.761 662.009 212.159 662.774 215.465 664.282L214.914 675.606V675.606ZM255.039 674.104H240.748V662.78H279.23V674.104H264.94V732.278H255.039V674.104Z" fill="white"/>
</svg>
