<?xml version="1.0" encoding="utf-8"?>
<!-- Generator: Adobe Illustrator 22.1.0, SVG Export Plug-In . SVG Version: 6.00 Build 0)  -->
<svg version="1.1" id="Layer_1" xmlns="http://www.w3.org/2000/svg" xmlns:xlink="http://www.w3.org/1999/xlink" x="0px" y="0px"
	 viewBox="0 0 120 120" style="enable-background:new 0 0 120 120;" xml:space="preserve">
<style type="text/css">
	.st0{fill:#EE392A;}
	.st1{fill:#02539C;}
	.st2{fill:#EE392B;}
	.st3{fill:#EE3A2B;}
	.st4{fill:#04549D;}
</style>
<g>
	<path class="st0" d="M29,62c-0.9-0.4-1.3,0.3-1.6,1.1c-0.4,1-0.9,2-1.4,2.9c-0.5,1.3-1.5,1.9-2.9,1.8c-0.4,0-0.8,0-1.3,0
		c-0.5,0-0.3-0.3-0.3-0.4c1-2.1,1.9-4.2,2.9-6.3c1.4-3,2.8-6,4.2-9.1c0.1-0.3,0.3-0.4,0.6-0.4c1.8,0,3.4,0,5.2,0
		c0.8,0,1.5,0.1,2.3,0.5c1.3,0.6,1.8,1.6,1.4,3.1c-0.8,3.3-3.4,5.8-6.7,6.3C30.8,62,30,62,29,62z M29.3,59.3
		c0.4,0.1,0.8,0.1,1.1,0.1c2.1,0,3.9-1.5,4.3-3.4c0.1-0.8-0.1-1.3-0.9-1.5c-0.6-0.1-1.3-0.1-2-0.1c-0.3,0-0.3,0.1-0.4,0.4
		c-0.3,0.6-0.5,1.3-0.9,1.8C30.1,57.4,29.6,58.4,29.3,59.3z"/>
	<path class="st1" d="M14.5,67.9c-0.6,0-1.3,0-2,0c-0.4,0-0.4-0.1-0.3-0.4c1.6-3.4,3.1-6.9,4.8-10.3c0.8-1.6,1.5-3.4,2.4-5
		c0.1-0.3,0.3-0.4,0.5-0.4c1.8,0,3.5,0,5.3,0c0.4,0,0.4,0,0.3,0.4c-2.1,4.7-4.3,9.3-6.6,14c-0.5,1.1-1.4,1.8-2.8,1.8
		C15.7,67.9,15.2,67.9,14.5,67.9z"/>
	<path class="st2" d="M50.2,56.1c0,0.3-0.1,0.4-0.3,0.6c-1.5,3.3-3,6.6-4.5,9.8c-0.1,0.3-0.3,0.5-0.3,0.8c-0.3,0.8-0.3,0.8-1,0.8
		s-1.4,0-2.1,0c-0.3,0-0.4-0.1-0.3-0.4c0.1-0.4,0.3-0.6,0.4-1.1c-0.4,0.3-0.5,0.4-0.8,0.5c-1.4,0.9-2.8,1.4-4.4,1.1
		c-1-0.3-1.5-0.8-1.5-1.8c0-0.9,0.3-1.8,0.6-2.6c1.1-2.4,2.3-4.8,3.4-7.3c0.1-0.3,0.3-0.3,0.5-0.3c1,0,1.9,0,2.9,0
		c0.4,0,0.4,0.1,0.3,0.4c-0.9,2-1.9,4-2.8,6c-0.3,0.5-0.5,1.1-0.6,1.8c-0.1,0.8,0.3,1.1,1,1.1c1.3-0.1,2-0.9,2.5-1.9
		c0.8-1.4,1.4-2.9,2-4.3c0.4-0.9,0.9-1.8,1.3-2.6c0.1-0.1,0.1-0.3,0.3-0.3C47.9,56.1,49,56.1,50.2,56.1z"/>
	<path class="st0" d="M60.4,68.2c-0.5,0-1,0-1.5-0.1c-1.6-0.5-2.4-1.6-2.1-3.3c0.4-2.4,1.5-4.4,3.3-6.2c1.6-1.6,3.7-2.6,6-2.8
		c0.6,0,1.1,0,1.8,0.1c1.5,0.4,2.3,1.6,2,3.4c-0.5,3.3-3.3,7.7-8.1,8.6C61.3,68.2,60.8,68.2,60.4,68.2z M60.5,64.4
		c0,1,0.5,1.4,1.4,1.1c0.6-0.1,1.1-0.5,1.5-0.9c0.9-0.8,1.4-1.8,1.9-2.9c0.4-0.8,0.6-1.5,0.6-2.4c0-0.8-0.4-1.1-1.1-1
		c-0.6,0-1.1,0.4-1.6,0.8c-1.3,1.1-2,2.6-2.5,4.2C60.5,63.7,60.5,64,60.5,64.4z"/>
	<path class="st0" d="M98.7,68.2c-0.5,0-1,0-1.5-0.1c-1.5-0.4-2.4-1.6-2.1-3.3c0.4-2.4,1.5-4.5,3.3-6.2c1.6-1.6,3.7-2.6,6-2.8
		c0.6,0,1.1,0,1.8,0.1c1.5,0.4,2.4,1.8,2,3.4c-0.5,3.3-3.4,7.7-7.9,8.6C99.7,68.2,99.2,68.2,98.7,68.2z M104.3,59.8
		c0-1.1-0.5-1.5-1.5-1.3c-0.5,0.1-0.9,0.4-1.3,0.8c-1.3,1.1-2,2.6-2.5,4.3c-0.1,0.4-0.3,0.8-0.1,1.3c0,0.6,0.5,1.1,1.1,1
		c0.5,0,0.9-0.3,1.3-0.5c0.9-0.6,1.5-1.5,2-2.5C103.8,61.6,104.2,60.8,104.3,59.8z"/>
	<path class="st3" d="M78.1,59.3c0.4-0.8,0.8-1.5,1-2.3c0-0.1,0.1-0.1,0.3-0.3c1.9-0.8,3.9-1.1,5.9-0.8c1.8,0.3,2.5,1.4,2,3.1
		c-0.1,0.8-0.5,1.4-0.8,2.1c-0.9,2-1.9,3.9-2.6,5.9c-0.3,0.8-0.3,0.8-1.1,0.8c-0.6,0-1.4,0-2,0c-0.3,0-0.4,0-0.3-0.3
		c0.1-0.3,0.1-0.5,0.3-0.9c-0.6,0.4-1.1,0.8-1.8,1c-1,0.4-1.9,0.5-2.9,0.3c-1.1-0.3-1.8-1.1-1.5-2.3c0.4-1.9,1.4-3.1,2.9-4.2
		c1.6-1.1,3.7-1.5,5.5-1.5c0.5,0,0.6-0.3,0.8-0.6c0.1-0.4,0-0.8-0.4-1c-0.5-0.3-1.1-0.3-1.6-0.1c-1.1,0.1-2.1,0.4-3.1,0.8
		C78.4,59.3,78.3,59.3,78.1,59.3z M82.6,62.3c-1,0-1.9,0.1-2.6,0.5c-0.8,0.4-1.4,1-1.6,1.8c-0.3,0.6,0.1,1.1,0.8,1.1
		c1,0,1.9-0.5,2.4-1.4C81.9,63.7,82.2,63,82.6,62.3z"/>
	<path class="st0" d="M93.4,65.3c-0.4,0.9-0.8,1.6-1.1,2.5c-0.1,0.1-0.3,0.3-0.4,0.3c-1,0.1-2,0.3-3,0.1c-1.3-0.3-1.8-1-1.5-2.3
		c0.1-0.9,0.5-1.6,0.9-2.4c0.8-1.6,1.5-3.3,2.3-4.9c-0.5,0-1,0-1.5,0c0.4-0.9,0.8-1.6,1.1-2.4c0.1-0.3,0.3-0.1,0.4-0.1
		c1,0.3,1.5-0.3,1.8-1.1c0.5-1.4,1.5-2.1,3.1-2c0.4,0,0.9,0,1.4,0c-0.5,1.1-1,2.1-1.5,3.1c0.8,0,1.4,0,2.1,0
		c-0.3,0.6-0.6,1.1-0.8,1.8c-0.3,0.6-0.5,0.9-1.1,0.8c-1-0.3-1.6,0.3-2,1.3c-0.5,1.3-1.1,2.5-1.8,3.8c-0.1,0.3-0.3,0.6-0.3,1
		c0,0.5,0.1,0.8,0.6,0.8C92.5,65.3,93,65.3,93.4,65.3z"/>
	<path class="st3" d="M78.5,53c-0.6,1.3-1.1,2.4-1.6,3.5c-1.5,3.1-3,6.4-4.4,9.6c-0.6,1.3-1.5,1.9-2.9,1.9c-0.4,0-0.8,0-1.1,0
		c-0.4,0-0.5-0.1-0.3-0.4c0.8-1.5,1.4-2.9,2-4.4c1.3-2.8,2.6-5.5,3.9-8.3c0.5-1,1.1-1.8,2.3-1.8C77,53,77.8,53,78.5,53z"/>
	<path class="st3" d="M119,56c-0.5,1-1,2.1-1.5,3.1c-0.1,0.1-0.1,0.1-0.3,0.1c-2-0.3-3.3,0.8-4.2,2.4c-0.8,1.5-1.4,3-2.1,4.5
		c-0.6,1.3-1.5,1.9-2.9,1.9c-0.4,0-0.8,0-1.1,0s-0.5-0.1-0.3-0.5c0.9-1.9,1.8-3.9,2.6-5.8c0.8-1.8,1.6-3.5,2.4-5.3
		c0.1-0.3,0.3-0.4,0.5-0.4c0.9,0,1.8,0,2.8,0c-0.3,0.6-0.5,1.3-0.8,1.9c1-1,2.1-1.8,3.4-2C118.1,55.8,118.5,55.8,119,56z"/>
	<path class="st3" d="M55.2,57.9c0.8-0.8,1.5-1.4,2.5-1.8c0.6-0.3,1.3-0.4,2-0.3c-0.5,1-1,2.1-1.5,3.1c-0.1,0.1-0.1,0.1-0.3,0.1
		c-2-0.3-3.4,0.8-4.3,2.4c-0.8,1.5-1.4,2.9-2.1,4.4c-0.6,1.3-1.5,2-2.9,1.9c-0.4,0-0.8,0-1.1,0c-0.4,0-0.4-0.1-0.3-0.4
		c0.9-1.8,1.6-3.7,2.5-5.4c0.9-1.9,1.8-3.8,2.5-5.7c0.1-0.3,0.3-0.4,0.5-0.4c0.9,0,1.8,0,2.6,0C55.5,56.7,55.2,57.2,55.2,57.9
		c-0.1,0-0.3,0-0.1,0.1C55.1,58,55.1,58,55.2,57.9z"/>
	<path class="st3" d="M8.7,67.9c-0.3,0-0.6,0-0.9,0c-0.5,0-0.5,0-0.4-0.5c1-2.1,1.9-4.2,2.9-6.3c1.1-2.5,2.3-5,3.5-7.4
		c0.8-1.5,1.8-2.1,3.4-1.9c0.4,0,0.1,0.3,0.1,0.4c-1,2.1-2,4.2-2.9,6.3c-1.4,2.9-2.8,5.9-4.2,8.8c-0.1,0.4-0.4,0.6-0.8,0.5
		C9.2,67.9,9,67.9,8.7,67.9z"/>
	<path class="st4" d="M8.7,60.6c-0.9,2-1.9,3.9-2.8,5.9c-0.1,0-0.3-0.1-0.3-0.1c-1.5-1.5-2.9-2.9-4.4-4.4C1,61.8,0.9,61.5,1,61.1
		c0.1-0.4,0.4-0.5,0.8-0.5C4.1,60.6,6.3,60.6,8.7,60.6z"/>
</g>
</svg>
