<?xml version="1.0" encoding="utf-8"?>
<!-- Generator: Adobe Illustrator 23.0.0, SVG Export Plug-In . SVG Version: 6.00 Build 0)  -->
<svg version="1.1" id="Layer_1" xmlns="http://www.w3.org/2000/svg" xmlns:xlink="http://www.w3.org/1999/xlink" x="0px" y="0px"
	 viewBox="0 0 120 120" style="enable-background:new 0 0 120 120;" xml:space="preserve">
<style type="text/css">
	.st0{fill:#0254A2;}
	.st1{fill:#ED3E46;}
	.st2{fill:#0858A4;}
	.st3{fill:#0355A3;}
</style>
<g>
	<path class="st0" d="M0.4,59.5c0.2,0,0.2-0.2,0.2-0.4c1.1-4.6,4.1-7.3,8.6-8.3c2.8-0.7,5.7-0.6,8.5,0.2c2.9,0.9,4.7,2.8,5.1,5.9
		c0.1,0.6,0,0.9-0.7,0.9c-1.8-0.1-3.6,0-5.4,0c-0.4,0-0.6-0.1-0.7-0.6c-0.1-1.2-0.8-1.8-1.9-2.1c-3.1-0.7-5.8,1.3-6.4,4.6
		c-0.2,1-0.2,2,0,3c0.3,1.2,1.1,2.1,2.3,2.3c2.2,0.5,4.2-0.2,5-2.4c0.1-0.3,0.2-0.4,0.5-0.4c0.1,0,0.3,0,0.4,0c2,0,4.1,0,6.2,0
		c-0.4,2-1.4,3.6-2.9,4.9c-1.9,1.6-4.2,2.3-6.6,2.5c-2.3,0.2-4.5,0.2-6.7-0.5c-2.8-0.9-4.7-2.7-5.4-5.6c0-0.1,0-0.4-0.2-0.4
		C0.4,61.9,0.4,60.7,0.4,59.5z"/>
	<path class="st1" d="M119.6,49.6c-0.5,0.9-0.6,1.8-0.8,2.7c-0.1,0.4-0.2,0.5-0.7,0.4c-5.5-1.2-11.1-2.1-16.7-2.8
		c-4.8-0.6-9.7-1-14.5-1.3c-6.3-0.4-12.5-0.4-18.8-0.2c-10.6,0.4-21.2,1.6-31.6,3.7c-2.1,0.4-4.1,0.9-6.2,1.4
		c-0.3,0.1-0.6,0.2-0.9,0c3.2-1.1,6.5-2.1,9.7-2.9c7.3-1.9,14.7-3.1,22.1-4c5-0.6,10-0.9,15.1-1c0.2,0,0.4,0,0.6-0.1
		c4.4,0,8.8,0,13.3,0c0,0.2,0.2,0.1,0.3,0.1c3.1,0.1,6.3,0.3,9.4,0.6c5,0.4,9.9,1.1,14.9,1.9c1.6,0.3,3.2,0.7,4.9,0.8
		C119.6,49.2,119.6,49.4,119.6,49.6z"/>
	<path class="st2" d="M88.1,78.7c0.2-1.6,0.8-3,1.1-4.5c0.1-0.2,0.2-0.3,0.5-0.3c0.8,0,1.7,0.1,2.5-0.1c0.8-0.1,1.4,0.4,1.6,1.1
		c0.2,0.9-0.2,2-1,2.5c-0.8,0.5-1.7,0.4-2.5-0.1c-0.1,0.5-0.4,0.9-0.3,1.5C89.3,78.7,88.7,78.7,88.1,78.7z M92,75.5
		c0-0.4-0.3-0.7-0.6-0.6c-0.5,0-0.9,0.6-0.9,1.1c0,0.4,0.2,0.6,0.6,0.6C91.6,76.6,92,76,92,75.5z"/>
	<path class="st0" d="M71.4,57c0.2,0,0.3-0.1,0.5-0.2c2.3-1.8,4.9-1.8,7.4-0.7c1.6,0.7,2.4,2.1,2.7,3.8c0.6,3.4-1.4,7.4-4.5,8.9
		c-2.1,1-4.3,1-6.5,0.4c-0.9-0.2-1.6-0.8-2.2-1.6c-0.5,1.9-0.9,3.6-1.3,5.3c-0.1,0.5-0.3,0.7-0.8,0.7c-1.9,0-3.8,0-5.8,0
		c0.5-1.8,0.9-3.6,1.4-5.3c1-3.9,2.1-7.9,3.1-11.8c0.1-0.5,0.3-0.8,0.9-0.7c1.6,0.1,3.2,0,4.8,0c0.8,0,0.8,0,0.6,0.8
		C71.5,56.8,71.4,56.9,71.4,57z M75.6,61.9c0-1.5-0.5-2.3-1.6-2.5c-1.3-0.3-2.5,0.2-3.2,1.2c-0.7,1-1,2.2-0.9,3.5
		c0.1,0.9,0.7,1.6,1.5,1.8c1.3,0.3,2.5-0.2,3.3-1.2C75.3,63.8,75.5,62.8,75.6,61.9z"/>
	<path class="st0" d="M41.8,69.4c0.7-2.8,1.4-5.6,2.2-8.3c0.4-1.5,0.8-3,1.2-4.5c0.1-0.5,0.3-0.7,0.9-0.7c1.6,0.1,3.2,0,4.8,0
		c0.7,0,0.8,0.2,0.5,0.7c-0.1,0.2-0.1,0.5-0.2,0.9c1.2-0.9,2.3-1.6,3.6-1.8c1.7-0.3,3.4-0.2,5,0.5c1.5,0.7,2.2,1.9,2,3.5
		c-0.4,2.6-1.3,5.1-1.9,7.6c-0.2,0.7-0.2,1.6-0.7,2c-0.5,0.4-1.4,0.1-2.1,0.1c-1.2,0-2.4,0-3.6,0c-0.6,0-0.6-0.2-0.5-0.7
		c0.7-2.4,1.3-4.8,1.9-7.2c0.3-1.1-0.1-1.7-1.2-1.9c-1.6-0.3-2.9,0.5-3.4,2.1c-0.6,2-1.1,4-1.6,6c-0.4,1.5-0.4,1.5-2,1.5
		C45.1,69.4,43.5,69.4,41.8,69.4z"/>
	<path class="st3" d="M33.2,68.2c-2.4,1.5-4.9,1.8-7.6,1.2c-1.9-0.4-2.9-1.5-3.1-3.1c-0.2-1.7,0.7-3.2,2.5-4c2.1-0.9,4.3-1,6.6-1.1
		c0.7,0,1.4-0.1,2.1-0.1c0.4,0,0.8-0.2,1.2-0.4c0.4-0.2,0.6-0.6,0.5-1.1c0-0.4-0.3-0.7-0.7-0.9c-1.3-0.5-2.8-0.1-3.7,1
		C30.8,60,30.6,60,30.4,60c-1.7,0-3.4,0-5.1,0c-0.5,0-0.5-0.2-0.4-0.6c0.6-1.7,1.8-2.7,3.5-3.2c3.5-1,7.1-1,10.6,0
		c2.2,0.6,2.9,1.9,2.4,4.1c-0.1,0.8-0.3,1.5-0.5,2.2c-0.4,1.6-0.8,3.3-1.3,4.9c-0.1,0.4-0.2,0.9,0,1.3c0.2,0.6-0.1,0.6-0.6,0.6
		c-1.6,0-3.2-0.1-4.8,0c-0.7,0-1.1-0.2-1.1-0.9C33.3,68.4,33.2,68.3,33.2,68.2z M34.4,63.5c-1,0.3-2,0.4-3,0.5c-0.5,0-1,0.1-1.5,0.3
		c-0.6,0.3-1,0.7-0.9,1.4c0.1,0.7,0.6,0.8,1.2,1C32.4,67,34,65.8,34.4,63.5z"/>
	<path class="st3" d="M99.4,69.4c-2.1,0-4,0-6,0c-0.8,0-0.4-0.8-0.7-1.2c-0.9,0.6-1.9,1.1-3,1.3c-1.9,0.4-3.7,0.4-5.5-0.4
		c-2.5-1-2.9-4.3-0.8-6c1.2-1,2.7-1.3,4.2-1.5c1.8-0.3,3.7-0.2,5.5-0.4c0.5-0.1,1-0.2,1.4-0.5c0.6-0.5,0.5-1.4-0.2-1.8
		c-1.2-0.6-3-0.2-3.8,0.9C90.4,59.9,90.3,60,90,60c-1.7,0-3.4,0-5.1,0c-0.5,0-0.5-0.2-0.3-0.6c0.6-1.5,1.6-2.5,3.1-3.1
		c2.1-0.8,4.3-0.9,6.5-0.8c1.4,0,2.7,0.2,4,0.5c2.5,0.7,3.3,2,2.8,4.6c-0.4,1.8-0.9,3.6-1.4,5.4C99.4,67.1,98.9,68.2,99.4,69.4z
		 M94,63.5c-1.2,0.4-2.4,0.4-3.6,0.6c-0.5,0.1-1,0.2-1.4,0.5c-0.7,0.6-0.5,1.5,0.4,1.9C91.6,67.3,93.8,65.9,94,63.5z"/>
	<path class="st0" d="M110.6,57.8c0.8-0.7,1.4-1.2,2.2-1.6c1.4-0.8,3-0.8,4.6-0.6c0.5,0.1,0.4,0.3,0.4,0.7c-0.3,1.1-0.6,2.3-0.9,3.4
		c-0.1,0.5-0.3,0.6-0.8,0.5c-0.9-0.2-1.9-0.2-2.9-0.2c-1.7,0.1-2.9,1-3.5,2.6c-0.7,1.9-1.1,4-1.6,5.9c-0.2,0.6-0.4,0.9-1.1,0.9
		c-1.9-0.1-3.7,0-5.6,0c0.5-1.9,1-3.8,1.5-5.7c0.6-2.4,1.3-4.9,1.9-7.3c0.1-0.4,0.3-0.6,0.7-0.5c1.7,0,3.4,0,5.1,0
		c0.5,0,0.6,0.2,0.5,0.6C110.9,56.8,110.8,57.2,110.6,57.8z"/>
	<path class="st2" d="M77.5,77.5c0.4-1.6,0.8-3.1,1.2-4.7c0.1-0.4,0.3-0.4,0.6-0.4c1.3,0,2.7,0,4,0c0.2,0,0.7-0.2,0.6,0.3
		c-0.1,0.4,0.1,1-0.6,1.1c-0.8,0-1.5,0-2.3,0c-0.3,0-0.6-0.1-0.6,0.4c0,0.3,0.4,0.2,0.5,0.2c0.6,0,1.1,0,1.7,0
		c0.2,0,0.7-0.2,0.6,0.3c-0.1,0.4,0.1,0.9-0.6,0.9c-0.7,0-1.4,0-2.2,0c-0.2,0-0.6-0.1-0.6,0.3c0,0.4,0.3,0.3,0.5,0.3
		c0.7,0,1.3,0,2,0c0.2,0,0.6-0.1,0.5,0.2c-0.1,0.4,0.1,1-0.6,1C80.9,77.5,79.2,77.5,77.5,77.5z"/>
	<path class="st2" d="M98.1,75.1c1-1.2,2.2-1.6,3.7-1.2c0.4,0.1,0.8,0.3,1.1,0.8c0.5,0.8,0.2,1.3-0.7,1.3c-0.6,0-1.3,0-1.9,0
		c-0.1,0-0.4-0.1-0.4,0.1c0,0.2,0.1,0.4,0.3,0.4c0.2,0.1,0.4,0.1,0.6,0c0.6-0.3,1.3-0.1,2-0.2c-0.1,0.4-0.3,0.6-0.6,0.8
		c-1.1,0.5-2.2,0.6-3.3,0.1c-0.6-0.3-0.8-0.8-0.8-1.4C98.1,75.6,98.3,75.4,98.1,75.1L98.1,75.1z M100.7,75.3
		c0.2-0.1,0.6,0.2,0.7-0.2c0-0.3-0.3-0.4-0.6-0.4c-0.3,0-0.7,0.1-0.7,0.4C100,75.4,100.4,75.2,100.7,75.3z"/>
	<path class="st2" d="M105.6,77.6c-0.9,0-1.5,0-2-0.5c-0.2-0.2-0.3-0.4-0.3-0.7c0.1-0.3,0.4-0.2,0.6-0.2c0.4,0,0.9-0.1,1.3,0.3
		c0.1,0.1,0.3,0.1,0.5,0.1c0.2,0,0.3-0.1,0.3-0.3c0-0.2-0.2-0.2-0.3-0.3c-0.4-0.1-0.8-0.1-1.2-0.2c-0.4-0.1-0.7-0.3-0.8-0.8
		c0-0.5,0.1-0.9,0.5-1.1c1.1-0.5,2.2-0.5,3.3-0.1c0.3,0.1,0.5,0.4,0.5,0.7c-0.1,0.4-0.4,0.2-0.7,0.2c-0.4,0-0.8,0.1-1.1-0.3
		c-0.1-0.2-0.4-0.1-0.6,0c-0.1,0-0.2,0.1-0.1,0.2c0.1,0.2,0.3,0.2,0.5,0.2c0.3,0.1,0.6,0.1,0.9,0.2c0.4,0.1,0.7,0.3,0.8,0.8
		c0.1,0.5-0.1,0.8-0.5,1.1C106.7,77.5,106.1,77.6,105.6,77.6z"/>
	<path class="st2" d="M110.8,73.7c0.6,0,1.2,0,1.8,0.5c0.2,0.2,0.3,0.4,0.2,0.6c-0.1,0.3-0.3,0.1-0.5,0.1c-0.4,0-0.9,0.1-1.3-0.3
		c-0.1-0.1-0.4-0.1-0.6,0c-0.1,0-0.2,0.1-0.1,0.2c0.1,0.2,0.3,0.2,0.5,0.2c0.3,0.1,0.7,0.1,1,0.2c0.8,0.3,1,1.2,0.3,1.8
		c-0.7,0.6-2.9,0.7-3.7,0.1c-0.3-0.2-0.5-0.4-0.4-0.8c0.1-0.3,0.4-0.2,0.6-0.2c0.4,0,0.9-0.1,1.2,0.3c0.1,0.1,0.3,0.1,0.5,0.1
		c0.1,0,0.3-0.1,0.3-0.3c0-0.2-0.2-0.2-0.3-0.3c-0.4-0.1-0.8-0.1-1.2-0.2c-0.4-0.1-0.7-0.3-0.8-0.8c-0.1-0.5,0.1-0.8,0.5-1.1
		C109.6,73.8,110.2,73.8,110.8,73.7z"/>
	<path class="st2" d="M83.1,77.5c0.5-0.5,0.9-0.8,1.2-1.2c0.8-0.8,0.8-0.8,0.2-1.7c-0.1-0.2-0.2-0.4-0.5-0.8
		c0.8,0.2,1.7-0.4,2.2,0.7c0.6-1,1.5-0.6,2.5-0.7c-0.5,0.5-0.9,1-1.4,1.4c-0.3,0.3-0.4,0.5-0.1,0.9c0,0.1,0.1,0.1,0.1,0.2
		c0.2,0.4,0.7,0.8,0.5,1.1c-0.3,0.3-0.9,0.1-1.3,0.1c-0.5,0-0.4-0.5-0.8-0.8C85.2,77.8,84.2,77.5,83.1,77.5z"/>
	<path class="st2" d="M98.1,75.1c-1.6-0.2-1.8,0-2.2,1.5c-0.1,0.3-0.1,0.8-0.3,0.9c-0.5,0.1-1,0.1-1.5,0.1c-0.2,0-0.2-0.2-0.1-0.3
		c0.3-1,0.5-2,0.8-3c0.1-0.2,0.2-0.3,0.5-0.3c0.4,0.1,1-0.3,1.3,0.2c0,0,0.3-0.1,0.4-0.1c0.2-0.1,0.5-0.2,0.8-0.2
		c0.5,0,0.7,0.1,0.5,0.6C98.2,74.6,98.1,74.8,98.1,75.1C98.1,75.1,98.1,75.1,98.1,75.1z"/>
</g>
</svg>
