<?xml version="1.0" encoding="utf-8"?>
<!-- Generator: Adobe Illustrator 22.1.0, SVG Export Plug-In . SVG Version: 6.00 Build 0)  -->
<svg version="1.1" id="Layer_1" xmlns="http://www.w3.org/2000/svg" xmlns:xlink="http://www.w3.org/1999/xlink" x="0px" y="0px"
	 viewBox="0 0 120 120" style="enable-background:new 0 0 120 120;" xml:space="preserve">
<style type="text/css">
	.st0{fill:#4C3493;}
	.st1{fill:#472F91;}
	.st2{fill:#F37921;}
	.st3{fill:#4F3996;}
	.st4{fill:#4A3292;}
	.st5{fill:#4B3393;}
	.st6{fill:#F37E28;}
	.st7{fill:#503A96;}
	.st8{fill:#F37D27;}
</style>
<g>
	<path class="st0" d="M79.2,91.9c0-3.5,0.1-7,0-10.5c0-0.3,0-0.4,0.3-0.4c0.3,0.1,0.7-0.2,0.7,0.3c0,0.2,0,0.4,0,0.7
		c0.3-0.3,0.6-0.5,0.8-0.7c1.8-1.2,4.1-0.5,4.8,1.5c0.5,1.4,0.5,2.8-0.1,4.2c-0.9,2.3-3.5,2.8-5.2,1c-0.1-0.1-0.2-0.2-0.4-0.3
		c0,1.4,0,2.7,0,4.1C79.9,91.9,79.6,91.9,79.2,91.9z M85.2,84.8c0-0.6-0.1-1.3-0.3-1.9c-0.4-0.8-1-1.3-1.9-1.4
		c-0.9,0-1.7,0.3-2.2,1.2c-0.7,1.5-0.7,3,0.2,4.4c0.5,0.8,1.3,1,2.1,1c0.9,0,1.4-0.6,1.8-1.3C85,86.2,85.1,85.5,85.2,84.8z"/>
	<path class="st1" d="M63.7,73c-2.4,0-4.7,0-7.1,0c-0.3,0-0.4-0.1-0.4-0.4c0-0.5,0-1,0-1.7c-0.3,0.4-0.5,0.7-0.8,0.9
		c-2.1,2.2-4.6,2.7-7.5,2c-4.2-1-6.7-3.9-7.9-8c-0.1-0.3-0.2-0.6-0.2-0.9c0-0.5-0.3-0.6-0.7-0.6c-4.5,0-9,0-13.5,0
		c-0.5,0-0.6,0.2-0.5,0.6c0.3,2.2,2.4,3.9,4.6,3.7c1.3-0.1,2.3-0.5,3-1.6c0.1-0.2,0.3-0.2,0.5-0.2c2.2,0,4.3,0,6.5,0
		c0.4,0,0.4,0.1,0.3,0.4c-1.8,4-4.9,6.3-9.3,6.7c-3.1,0.3-6-0.3-8.5-2.2c-3.3-2.4-4.6-5.8-4.4-9.8c0-0.8,0.2-1.6,0.3-2.3
		c-0.2-0.1-0.5-0.1-0.7-0.1c-2.4,0-4.7,0-7.1,0c-0.4,0-0.6,0.1-0.6,0.6c0,4.1,0,8.1,0,12.2c0,0.4-0.1,0.6-0.5,0.6c-2.5,0-5,0-7.4,0
		c-0.4,0-0.5-0.1-0.5-0.5c0-10.3,0-20.5,0-30.8c0-0.4,0.1-0.5,0.5-0.5c5.9,0,11.8,0,17.7,0c0.4,0,0.5,0.1,0.5,0.5c0,2,0,4.1,0,6.1
		c0,0.4-0.1,0.5-0.5,0.5c-3.1,0-6.2,0-9.3,0c-0.4,0-0.5,0.1-0.5,0.5c0,1.2,0,2.4,0,3.5c0,0.4,0.1,0.4,0.4,0.4c2.8,0,5.5,0,8.3,0
		c0.7,0,0.7,0,0.7,0.7c0,1.1,0,2.2,0,3.4c0.9-1.5,2-2.6,3.3-3.5c2.7-1.7,5.7-2.1,8.8-1.7c2.8,0.4,5.2,1.6,7,3.9
		c0.7,0.9,1.2,1.9,1.6,2.9c0.1,0.2,0.1,0.4,0.3,0.6c2.8-7.5,10.8-10,15.9-5c0.1-0.2,0.1-0.4,0.1-0.5c0-3.9,0-7.9,0-11.8
		c0-0.5,0.1-0.6,0.6-0.6c2.3,0,4.6,0,6.9,0C63.7,51.9,63.7,62.4,63.7,73z M56,62.6c0-0.5-0.1-1-0.2-1.5c-0.1-0.5-0.3-1-0.5-1.4
		c-1.2-2.6-4.5-3.1-6.5-1c-1.9,2-2,6-0.2,8c2.1,2.4,5.8,1.8,7-1.2C55.9,64.5,56,63.6,56,62.6z M29.4,59.8c1.2,0,2.4,0,3.5,0
		c0.5,0,0.5-0.1,0.4-0.5c-0.5-1.7-1.9-2.8-3.8-2.8c-1.7-0.1-3.3,1.1-3.9,2.9c-0.1,0.4,0,0.5,0.4,0.5C27,59.7,28.2,59.8,29.4,59.8z"
		/>
	<path class="st2" d="M63.7,73c0-10.6,0-21.1,0-31.7c0.9,0,1.7,0,2.6,0c4.8,0,9.6,0,14.5,0c0.5,0,0.6,0.1,0.6,0.6c0,2,0,4,0,6.1
		c0,0.4-0.1,0.5-0.5,0.5c-3,0-6,0-9.1,0c-0.5,0-0.6,0.1-0.6,0.6c0,1.1,0,2.3,0,3.4c0,0.5,0.1,0.6,0.6,0.6c6.1,0,12.3,0,18.4,0
		c0.4,0,0.7,0.1,0.9,0.4c1.2,1.4,2.5,2.8,3.8,4.2c0.2,0.3,0.4,0.3,0.6,0c1.2-1.4,2.5-2.8,3.7-4.2c0.2-0.2,0.3-0.3,0.6-0.3
		c2.9,0,5.8,0,8.7,0c0,0.2-0.2,0.3-0.3,0.4c-2.7,3.1-5.5,6.1-8.2,9.2c-0.3,0.3-0.3,0.5,0,0.8c2.7,3,5.5,6.1,8.2,9.1
		c0.2,0.2,0.3,0.3,0.5,0.6c-0.3,0-0.4,0-0.6,0c-2.8,0-5.6,0-8.4,0c-0.4,0-0.6-0.1-0.8-0.4c-1.2-1.4-2.4-2.7-3.6-4.1
		c-0.4-0.4-0.5-0.4-0.9,0c-1.2,1.4-2.4,2.7-3.6,4.1c-0.2,0.2-0.4,0.3-0.7,0.3c-8.7,0-17.4,0-26.2,0C63.8,73,63.8,73,63.7,73z
		 M81.3,72.9c0.1-0.1,0.1-0.1,0.2-0.1c2.8-3.2,5.7-6.4,8.5-9.6c0.2-0.3,0.1-0.4-0.1-0.6c-2.8-3.1-5.5-6.2-8.3-9.3
		c-0.1-0.1-0.1-0.3-0.3-0.2c0,2,0,4.1,0,6.1c0,0.4-0.1,0.5-0.5,0.5c-3,0-6.1,0-9.1,0c-0.4,0-0.5,0.1-0.5,0.5c0,1.7,0,3.5,0,5.2
		c0,0.4,0.1,0.5,0.5,0.5c2.9,0,5.8,0,8.7,0c0.9,0,0.9,0,0.9,0.9C81.3,68.8,81.3,70.8,81.3,72.9z"/>
	<path class="st3" d="M63.7,83.1c0-1.7,0-3.5,0-5.2c0-0.3,0.1-0.5,0.4-0.5c2,0,4,0,5.9,0c0.4,0,0.4,0.2,0.4,0.5c0,0.3,0,0.5-0.4,0.5
		c-1.6,0-3.2,0-4.8,0c-0.4,0-0.5,0.1-0.5,0.5c0,1,0,2,0,3c0,0.4,0.1,0.5,0.5,0.5c1.5,0,3,0,4.4,0c0.4,0,0.6,0.1,0.6,0.5
		c0,0.4-0.2,0.5-0.5,0.5c-1.5,0-3,0-4.5,0c-0.4,0-0.5,0.1-0.5,0.5c0,1.2,0,2.3,0,3.5c0,0.4,0.1,0.5,0.5,0.5c1.7,0,3.3,0,5,0
		c0.4,0,0.5,0.1,0.5,0.5c0,0.4,0,0.5-0.5,0.5c-2,0-4,0-6.1,0c-0.4,0-0.5-0.1-0.5-0.5C63.7,86.6,63.7,84.9,63.7,83.1z"/>
	<path class="st4" d="M95.3,85.1c-0.9,0-1.8,0-2.6,0c-0.4,0-0.4,0.1-0.4,0.5c0.1,1.8,1.5,2.9,3.2,2.6c0.8-0.2,1.3-0.7,1.6-1.5
		c0.1-0.3,0.7-0.5,1-0.4c0.2,0.1,0.1,0.3,0,0.4c-0.4,1.4-1.5,2.2-3,2.3c-1.9,0.1-3.2-0.8-3.7-2.6c-0.3-1.2-0.3-2.4,0.2-3.5
		c0.6-1.6,1.9-2.3,3.7-2.2c1.5,0.1,2.6,1.1,2.9,2.7c0.4,1.7,0.4,1.7-1.3,1.7C96.4,85.1,95.8,85.1,95.3,85.1z M94.8,84.2
		c0.7,0,1.4,0,2.1,0c0.2,0,0.4,0.1,0.3-0.2c0-1-0.8-2-1.8-2.3c-1.6-0.5-2.9,0.6-3.2,2.3c-0.1,0.3,0.1,0.3,0.3,0.3
		C93.4,84.2,94.1,84.2,94.8,84.2z"/>
	<path class="st5" d="M109.1,80.7c0.5,0,1,0,1.5,0.2c0.7,0.3,1.2,0.8,1.3,1.6c0,0.3,0,0.3-0.3,0.3c-0.4,0-0.8,0.1-0.9-0.5
		c-0.1-0.4-0.4-0.5-0.8-0.7c-0.6-0.2-1.2-0.2-1.8,0c-0.6,0.2-0.9,0.6-0.9,1.1c0,0.6,0.4,0.9,0.9,1c0.8,0.3,1.7,0.5,2.6,0.7
		c0.8,0.2,1.4,0.8,1.5,1.7c0.1,0.9-0.2,1.8-1,2.2c-1.3,0.8-2.7,0.9-4.1,0.2c-0.7-0.3-1-0.9-1.2-1.6c-0.1-0.3,0-0.4,0.3-0.4
		c0.4,0,0.8,0,0.8,0.5c0,0.3,0.3,0.5,0.5,0.6c1,0.5,1.9,0.5,2.9,0c0.5-0.3,0.7-0.7,0.7-1.3c0-0.5-0.4-0.8-0.8-1
		c-0.6-0.3-1.2-0.3-1.7-0.5c-0.4-0.1-0.8-0.2-1.2-0.4c-0.8-0.3-1.3-0.9-1.3-1.7c0-0.9,0.4-1.5,1.2-1.9
		C107.8,80.8,108.4,80.7,109.1,80.7z"/>
	<path class="st5" d="M102.1,80.7c0.5,0,1,0,1.5,0.2c0.5,0.2,0.9,0.6,1.2,1.1c0.1,0.2,0.3,0.6,0.1,0.8c-0.1,0.2-0.5,0.1-0.8,0.1
		c-0.2,0-0.3-0.1-0.3-0.3c-0.3-1.2-2.6-1.3-3.4-0.5c-0.5,0.5-0.3,1.3,0.3,1.6c0.4,0.2,0.9,0.3,1.4,0.5c0.5,0.1,1,0.3,1.5,0.4
		c0.8,0.2,1.3,0.7,1.5,1.5c0.1,0.8-0.1,1.6-0.8,2.2c-1.1,0.9-3.2,1.1-4.4,0.3c-0.6-0.4-0.9-0.9-1-1.5c0-0.3,0-0.4,0.3-0.4
		c0.4,0,0.8-0.1,0.9,0.5c0,0.3,0.3,0.5,0.6,0.7c0.9,0.4,1.8,0.4,2.6,0c0.5-0.3,0.8-0.7,0.8-1.3c0-0.6-0.4-0.9-0.9-1.1
		c-0.5-0.2-1.1-0.3-1.7-0.5c-0.4-0.1-0.8-0.2-1.2-0.4c-0.7-0.3-1.2-0.8-1.2-1.6c0-0.9,0.3-1.5,1.1-1.9
		C100.9,80.8,101.5,80.7,102.1,80.7z"/>
	<path class="st0" d="M74.8,85.4c-0.7,1-1.4,1.9-2,2.8c-0.4,0.6-0.8,0.7-1.5,0.5c0.2-0.3,0.4-0.6,0.6-0.9c0.7-0.9,1.4-1.9,2.1-2.8
		c0.2-0.3,0.2-0.5,0-0.7c-0.8-1-1.5-2-2.3-3c-0.1-0.1-0.2-0.3-0.3-0.4c0.8-0.1,1.3-0.1,1.8,0.7c0.5,0.8,1.1,1.6,1.8,2.4
		c0.6-0.8,1.3-1.6,1.8-2.5c0.4-0.6,0.8-0.8,1.5-0.6c-0.4,0.5-0.7,1-1.1,1.5c-0.5,0.6-0.9,1.2-1.4,1.8c-0.3,0.3-0.3,0.5,0,0.9
		c0.8,1.1,1.6,2.2,2.5,3.2c0.1,0.1,0.2,0.2,0.2,0.4c-0.7,0.1-1.3,0.1-1.7-0.6C76.2,87.2,75.5,86.4,74.8,85.4z"/>
	<path class="st6" d="M120,69.2c0,2.2-1.6,3.8-3.8,3.8c-2.2,0-3.8-1.6-3.8-3.8c0-2.2,1.7-3.8,3.8-3.8C118.4,65.4,120,67,120,69.2z
		 M119.2,69.2c0-1.8-1.3-3.2-3-3.2c-1.8,0-3.1,1.3-3.1,3.1c0,1.8,1.3,3.2,3,3.2C117.9,72.4,119.2,71.1,119.2,69.2z"/>
	<path class="st7" d="M88.3,81.8c0.6-0.9,1.4-1.2,2.5-1.1c0.5,0,0.2,0.4,0.3,0.6c0.1,0.2,0,0.3-0.3,0.3c-1.5-0.1-2.4,0.8-2.4,2.3
		c0,1.5,0,2.9,0,4.4c0,0.4-0.1,0.5-0.5,0.5c-0.4,0-0.5-0.1-0.5-0.5c0-2.3,0-4.7,0-7c0-0.3,0.1-0.4,0.4-0.4c0.2,0,0.7-0.2,0.6,0.4
		C88.2,81.5,88.3,81.6,88.3,81.8z"/>
	<path class="st8" d="M117.2,69.1c0.6,0.6,0.4,1.4,0.6,2.2c0.1,0.2-0.1,0.2-0.2,0.2c-0.2,0-0.5,0.1-0.6-0.2
		c-0.1-0.3-0.1-0.6-0.1-0.9c-0.1-0.3-0.1-0.6-0.4-0.8c-0.3-0.2-0.7-0.2-1-0.1c-0.3,0.1-0.1,0.4-0.1,0.7c0,0.3,0,0.7,0,1
		c0,0.3-0.1,0.4-0.4,0.4c-0.3,0-0.3-0.1-0.3-0.4c0-1.3,0-2.6,0-3.9c0-0.3,0.1-0.4,0.4-0.4c0.5,0,1,0,1.4,0c0.7,0,1.1,0.2,1.2,0.8
		C117.9,68.2,117.8,68.7,117.2,69.1z M115.9,68.8c0.1,0,0.1,0,0.1,0c0.4,0,0.8,0,0.9-0.5c0.1-0.3,0-0.5-0.2-0.7
		c-0.4-0.2-0.9-0.3-1.3-0.1c-0.3,0.2-0.1,0.7-0.1,1C115.4,68.9,115.8,68.7,115.9,68.8z"/>
</g>
</svg>
