<?xml version="1.0" encoding="utf-8"?>
<!-- Generator: Adobe Illustrator 22.1.0, SVG Export Plug-In . SVG Version: 6.00 Build 0)  -->
<svg version="1.1" id="Layer_1" xmlns="http://www.w3.org/2000/svg" xmlns:xlink="http://www.w3.org/1999/xlink" x="0px" y="0px"
	 viewBox="0 0 120 120" style="enable-background:new 0 0 120 120;" xml:space="preserve">
<style type="text/css">
	.st0{fill:#EE4048;}
	.st1{fill:#0656A3;}
	.st2{fill:#0858A4;}
	.st3{fill:#0757A4;}
	.st4{fill:#0657A4;}
	.st5{fill:#0556A3;}
	.st6{fill:#0959A5;}
	.st7{fill:#0758A4;}
</style>
<g>
	<path class="st0" d="M120,57.4c-0.5,0.5-0.5,1-0.6,1.6c-0.1,0.6-0.3,0.7-0.9,0.6c-6.1-2-12.3-3.3-18.6-4.5
		c-6.7-1.2-13.5-2-20.3-2.4C73.8,52.2,68.1,52,62.2,52c-15.7,0.2-31,2-46.3,6c-0.3,0.1-0.7,0.2-1.3,0c2.3-0.7,4.4-1.3,6.6-1.8
		c10.3-2.7,20.7-4.4,31.3-5.3c2.9-0.2,5.8-0.5,8.7-0.6c0.2,0,0.5,0,0.5-0.2c6,0,12,0,18,0c0.1,0.2,0.2,0.2,0.5,0.2
		c6.5,0.2,12.8,0.9,19.2,1.8c7,1,13.8,2.4,20.7,4.4C120,56.9,120,57.1,120,57.4z"/>
	<path class="st1" d="M75.6,69.8c0.7-2.7,1.4-5.4,2.1-8.1c0-0.2,0.1-0.5,0.3-0.5c0.9,0,1.8-0.1,2.7,0.1c0.3,0.1,0.6,0.1,0.9,0
		c1.2-0.3,2.4-0.3,3.3,0.5s0.9,1.8,0.7,3c-0.6,2.7-3.3,3.9-5.8,2.5c-0.5-0.2-0.6-0.2-0.7,0.2c-0.1,0.7-0.5,1.4-0.5,2.1
		C77.8,69.8,76.7,69.8,75.6,69.8z M82.6,64.2c0-0.8-0.2-1.2-1-1.2c-0.9,0-1.5,0.8-1.5,2c0,0.7,0.3,1.2,1,1.2
		C81.9,66,82.6,65.3,82.6,64.2z"/>
	<path class="st2" d="M0,67c0.7-1.3,0.8-2.7,1.2-4c0.3-1.2,0.6-2.3,0.9-3.5c0.1-0.5,0.3-0.7,0.9-0.7c0.9,0,1.8,0,2.8,0
		c-0.5,2-0.9,3.8-1.5,5.7C4,65.2,4,65.5,5,65.4c1-0.1,2.1,0,3.2,0c0.7,0,0.7,0.2,0.6,0.8c-0.3,1.5-0.3,1.5-2,1.5c-2.3,0-4.5,0-6.8,0
		C0,67.5,0,67.3,0,67z"/>
	<path class="st3" d="M68.8,58.9c-0.1,0.7-0.3,1.3-0.5,1.8c0,0.5-0.3,0.5-0.7,0.5c-1.4,0-2.8,0-4.2,0c-0.9,0-0.9,0-1.2,1
		c1.5,0,3,0,4.5,0c0.7,0,0.8,0.2,0.6,0.8c-0.3,1.4-0.3,1.4-1.8,1.4c-1,0-2,0-3,0c-0.6,0-1,0-1,0.7s0.6,0.3,0.9,0.3
		c1.4,0,2.8,0,4.2,0c0.5,0,0.6,0.1,0.5,0.6c-0.3,1.7-0.3,1.7-2.2,1.7c-2.3,0-4.5,0-6.8,0c-0.7,0-0.9-0.1-0.7-0.8
		c0.7-2.4,1.3-5,2-7.4c0.1-0.5,0.2-0.7,0.7-0.7C63,58.9,65.9,58.9,68.8,58.9z"/>
	<path class="st3" d="M32.1,61.7c1.4-0.7,2.9-1,4.3,0.1c0.3,0.2,0.5,0,0.6-0.1c1-0.7,2.1-0.8,3.2-0.6c1.2,0.2,1.6,1,1.5,2.1
		c-0.2,1.4-0.7,2.7-1,3.9c-0.1,0.3-0.2,0.5-0.6,0.5c-0.8,0-1.5,0-2.3,0c-0.6,0-0.3-0.3-0.2-0.6c0.2-0.9,0.5-1.8,0.7-2.8
		c0.1-0.5,0.3-1-0.3-1.2s-1.2,0.1-1.4,0.8c-0.3,1-0.6,2.1-0.8,3.1c-0.1,0.6-0.3,0.7-0.9,0.8c-2.4,0-2.4,0-1.8-2.3
		c0.1-0.3,0.2-0.7,0.2-1c0.1-0.5,0.5-1-0.3-1.3c-0.7-0.1-1.3,0-1.5,0.7c-0.3,1-0.6,2-0.8,3c-0.1,0.7-0.5,0.9-1.3,0.9
		c-2.2,0-2.2,0-1.6-2.1c0.3-1.3,0.7-2.5,0.9-3.8c0.1-0.6,0.3-0.8,0.9-0.7c0.8,0.1,1.6-0.3,2.3,0.3c0,0.1,0,0.1-0.1,0.2
		C32,61.7,32,61.7,32.1,61.7z"/>
	<path class="st4" d="M22.4,68c-0.2,0-0.7,0-1.2-0.1c-1.2-0.2-2.2-0.8-2.5-2.1c-0.3-1.4,0-2.5,1-3.5c1.5-1.3,4.7-1.6,6.5-0.6
		c1,0.6,1.5,1.7,1.3,3.1C27,66.8,25.3,68,22.4,68z M24.3,64.2c0-0.8-0.2-1.2-0.9-1.2c-0.9,0-1.6,0.9-1.6,2c0,0.7,0.2,1,1,1
		S24.3,65.3,24.3,64.2z"/>
	<path class="st5" d="M13,68c-0.2,0-0.7,0-1.2-0.1c-1.2-0.2-2.2-0.8-2.5-2.1c-0.3-1.4,0.1-2.9,1.3-3.6c2-1.3,4-1.4,6.1-0.5
		c1.3,0.6,1.7,2,1.3,3.5C17.4,66.9,15.8,68,13,68z M14.1,63c-0.9,0-1.7,0.9-1.7,2c0,0.7,0.3,1,1,1c0.9,0,1.6-0.8,1.6-1.8
		C15.1,63.5,14.9,63,14.1,63z"/>
	<path class="st6" d="M98.7,65.1c-0.7,0-1.5,0-2.2,0c-0.2,0-0.5-0.1-0.6,0.2c-0.1,0.3,0.1,0.6,0.3,0.7c0.5,0.3,1.2,0.3,1.6,0.1
		c0.9-0.6,2-0.2,2.9-0.2c0.5,0,0.3,0.2,0.2,0.5c-0.3,0.6-0.9,1-1.6,1.3c-1.4,0.5-2.7,0.5-4,0.2c-1.2-0.2-2.1-0.8-2.3-2.1
		s0.1-2.4,1.2-3.3c1.6-1.4,4.7-1.6,6.5-0.5c0.9,0.6,1.4,1.6,1.2,2.8c-0.1,0.5-0.3,0.6-0.7,0.6C100.2,65.1,99.5,65.1,98.7,65.1z
		 M97.4,63.8L97.4,63.8c0.3,0,0.7,0,1,0c0.2,0,0.3-0.1,0.3-0.3c-0.2-0.7-0.7-0.7-1.3-0.6c-0.6,0-1.2,0.2-1.2,0.7
		C96.2,64.2,96.9,63.6,97.4,63.8C97.3,63.8,97.4,63.8,97.4,63.8z"/>
	<path class="st2" d="M109.7,65.5c0.7,0.2,1.3,0,2,0.1c0.6,0,1.2-0.1,1.5,0.6c0.1,0.2,0.6,0.2,0.9,0.2c0.3,0,0.7-0.1,0.7-0.5
		c0-0.3-0.3-0.5-0.6-0.5c-0.7-0.1-1.3-0.2-2-0.3c-0.7-0.1-1.4-0.5-1.5-1.3c-0.1-0.8,0.2-1.6,0.9-2c2-0.9,3.9-0.9,5.9-0.1
		c0.2,0.1,0.3,0.2,0.6,0.5s0.3,0.6,0.2,0.9c-0.1,0.3-0.6,0.2-0.8,0.2c-0.8-0.1-1.7,0.3-2.4-0.6c-0.1-0.1-0.5-0.1-0.8-0.1
		c-0.2,0-0.6,0.1-0.6,0.5c0,0.3,0.3,0.3,0.6,0.5c0.7,0.1,1.3,0.2,2,0.3c0.7,0.2,1.4,0.5,1.5,1.4c0.1,0.9-0.2,1.6-1,2
		c-2,0.9-3.9,0.9-6,0.1c-0.7-0.3-0.7-1.2-1.3-1.5C109.6,65.8,109.6,65.7,109.7,65.5z"/>
	<path class="st7" d="M45.9,65.7c0.8,0,1.6,0,2.4,0c0.2,0,0.5,0,0.6,0.3c0.1,0.5,0.6,0.5,0.9,0.5s0.8,0,0.9-0.5s-0.3-0.5-0.7-0.6
		c-0.7-0.1-1.3-0.2-2-0.3c-0.7-0.1-1.3-0.6-1.4-1.3c-0.1-0.7,0.1-1.4,0.8-1.8c1.3-0.9,4.8-1,6.1-0.2c0.2,0.2,0.6,0.5,0.7,0.7
		c0.2,0.6,0.1,0.9-0.6,0.8c-0.8-0.1-1.7,0.3-2.4-0.6c-0.1-0.1-0.6-0.1-0.8-0.1s-0.5,0.1-0.5,0.5c0,0.3,0.2,0.3,0.5,0.5
		c0.7,0.1,1.4,0.2,2.1,0.3c0.8,0.2,1.5,0.6,1.5,1.5c0.1,0.9-0.3,1.6-1.2,2.1c-1.8,0.8-3.7,0.8-5.7,0.1
		C46.3,67.2,45.8,66.6,45.9,65.7z"/>
	<path class="st7" d="M109.7,65.5c0,0.1,0,0.2,0,0.2c0,0.9-0.7,1.4-1.4,1.6c-1.6,0.7-3.3,0.6-5.1,0.1c-0.3-0.1-0.7-0.3-1-0.7
		c-0.2-0.3-0.5-0.7-0.3-1c0.1-0.5,0.6-0.2,0.9-0.2c0.8,0,1.7-0.3,2.3,0.6c0.1,0.1,0.5,0.1,0.8,0.1s0.7-0.1,0.7-0.5
		c0-0.3-0.3-0.3-0.7-0.5c-0.7-0.1-1.4-0.2-2.1-0.3c-0.7-0.1-1.3-0.6-1.4-1.3c-0.1-0.8,0.2-1.4,0.8-1.8c1.3-0.9,4.8-1,6.1-0.2
		c0.2,0.1,0.5,0.3,0.6,0.7c0.2,0.5,0.3,1-0.6,0.9c-0.9-0.1-1.8,0.3-2.5-0.6c-0.1-0.1-0.6,0-0.8,0c-0.2,0-0.3,0.1-0.5,0.3
		c0,0.3,0.2,0.5,0.5,0.5c0.8,0.1,1.5,0.2,2.3,0.5C109.2,64,109.8,64.5,109.7,65.5z"/>
	<path class="st2" d="M72.6,62.7c1-2.2,2.8-1.2,4.5-1.5c-0.9,1-1.7,1.8-2.5,2.5c-0.6,0.5-0.6,0.9-0.2,1.5c0.6,0.7,0.9,1.6,1.6,2.5
		c-1,0-2,0-2.9,0c-0.6,0-0.6-0.7-0.8-1c-0.1-0.2-0.3-0.7-0.6-0.2c-1.2,1.7-2.9,1.2-4.7,1.3c1.2-1.2,2.2-2.1,3.2-3
		c0.5-0.3,0.5-0.7,0.1-1c-0.5-0.7-0.9-1.5-1.4-2.3C70.7,60.8,71.8,61.2,72.6,62.7z"/>
	<path class="st2" d="M85.5,67.7c0.6-2.1,1-4,1.6-6.1c0-0.1,0.1-0.2,0.2-0.3c0.3-0.2,2.7-0.1,2.9,0.2c0.2,0.2,0.3,0.1,0.5,0.1
		c0.2-0.1,0.6-0.3,0.8-0.3c0.6-0.1,1.4-0.5,1.7,0c0.3,0.5-0.2,1.3-0.3,1.8c-0.1,0.5-0.5,0.2-0.7,0.1c-1.7-0.2-2.4,0.2-2.9,2v0.1
		C88.5,68.1,88.5,68.1,85.5,67.7z M90.2,61.9C90.1,61.9,90.1,61.9,90.2,61.9c-0.1,0-0.1,0-0.1,0S90.1,62,90.2,61.9
		C90.1,62,90.2,61.9,90.2,61.9z"/>
	<path class="st2" d="M43,67.7c-1.6,0-1.6,0-1.2-1.5c0.3-1.5,0.8-2.9,1.2-4.4c0.1-0.5,0.3-0.7,0.9-0.7c2.5,0,2.5-0.1,1.8,2.3
		c-0.2,0.9-0.5,1.8-0.7,2.7C44.7,67.7,44.7,67.7,43,67.7z"/>
	<path class="st6" d="M44.9,60.7c-0.1,0-0.2,0-0.3,0c-0.3-0.2-1.2,0.5-1.2-0.3c0-1,0.5-1.5,1.4-1.5c0.2,0,0.5-0.1,0.7,0
		c0.5,0.1,1.3-0.5,1.3,0.5c0.1,1-0.3,1.4-1.4,1.4C45.2,60.7,45.1,60.7,44.9,60.7z"/>
</g>
</svg>
