<?xml version="1.0" encoding="iso-8859-1"?>
<!-- Generator: Adobe Illustrator 21.0.0, SVG Export Plug-In . SVG Version: 6.00 Build 0)  -->
<svg version="1.1" id="Capa_1" xmlns="http://www.w3.org/2000/svg" xmlns:xlink="http://www.w3.org/1999/xlink" x="0px" y="0px"
	 viewBox="0 0 512 512" style="enable-background:new 0 0 512 512;" xml:space="preserve">
<path style="fill:#F38F6D;" d="M490.12,289.642L464,280.936V192c0-17.645-14.355-32-32-32H320c-4.418,0-8,3.582-8,8v144H8
	c-4.418,0-8,3.582-8,8v88c0,4.418,3.582,8,8,8h496c4.418,0,8-3.582,8-8v-88C512,306.205,503.207,294.005,490.12,289.642z"/>
<path style="fill:#F1825A;" d="M504,392H8c-4.418,0-8-3.582-8-8v24c0,4.418,3.582,8,8,8h496c4.418,0,8-3.582,8-8v-24
	C512,388.418,508.418,392,504,392z"/>
<polygon style="fill:#A0A3AD;" points="424,287.554 424,200 360,200 360,288 "/>
<polygon style="fill:#8D919D;" points="424,234 370.07,287.93 424,287.554 "/>
<g>
	<path style="fill:#D96955;" d="M360,296c-2.111,0-4.138-0.834-5.637-2.323C352.851,292.175,352,290.131,352,288v-88
		c0-4.418,3.582-8,8-8h64c4.418,0,8,3.582,8,8v87.554c0,4.396-3.548,7.969-7.944,8l-64,0.446C360.037,296,360.019,296,360,296z
		 M424,287.554h0.01H424z M368,208v71.944l48-0.334V208H368z"/>
	<path style="fill:#D96955;" d="M384,320h-24c-4.418,0-8-3.582-8-8s3.582-8,8-8h24c4.418,0,8,3.582,8,8S388.418,320,384,320z"/>
</g>
<path style="fill:#8D919D;" d="M416,352c-35.29,0-64,28.71-64,64s28.71,64,64,64s64-28.71,64-64S451.29,352,416,352z"/>
<path style="fill:#7A7F8D;" d="M416,376c-22.056,0-40,17.944-40,40s17.944,40,40,40s40-17.944,40-40S438.056,376,416,376z"/>
<path style="fill:#ECEDEF;" d="M416,392c-13.233,0-24,10.766-24,24s10.767,24,24,24s24-10.766,24-24S429.233,392,416,392z"/>
<path style="fill:#8D919D;" d="M112,352c-35.29,0-64,28.71-64,64s28.71,64,64,64s64-28.71,64-64S147.29,352,112,352z"/>
<path style="fill:#7A7F8D;" d="M112,376c-22.056,0-40,17.944-40,40s17.944,40,40,40s40-17.944,40-40S134.056,376,112,376z"/>
<path style="fill:#ECEDEF;" d="M112,392c-13.233,0-24,10.766-24,24s10.767,24,24,24s24-10.766,24-24S125.233,392,112,392z"/>
<g>
	<path style="fill:#D96955;" d="M288,376h-64c-4.418,0-8-3.582-8-8s3.582-8,8-8h64c4.418,0,8,3.582,8,8S292.418,376,288,376z"/>
	<path style="fill:#D96955;" d="M224,376h-40c-4.418,0-8-3.582-8-8s3.582-8,8-8h40c4.418,0,8,3.582,8,8S228.418,376,224,376z"/>
</g>
<circle style="fill:#F6F6F7;" cx="488" cy="344" r="16"/>
<path style="fill:#FFE07E;" d="M312,32H40c-4.418,0-8,3.582-8,8v120l8,24l-8,24v104c0,4.418,3.582,8,8,8h272c4.418,0,8-3.582,8-8V40
	C320,35.582,316.418,32,312,32z"/>
<path style="fill:#FFD653;" d="M56,312V40c0-4.418,3.582-8,8-8H40c-4.418,0-8,3.582-8,8v120l8,24l-8,24v104c0,4.418,3.582,8,8,8h24
	C59.582,320,56,316.418,56,312z"/>
<path style="fill:#EBB645;" d="M208,32h-64v63.792c0,5.44,5.265,9.554,10.53,7.797L176,96.433l21.47,7.157
	c5.283,1.761,10.53-2.37,10.53-7.812V32z"/>
<path style="fill:#F6F6F7;" d="M168,160H32v48h136c4.418,0,8-3.582,8-8v-32C176,163.582,172.418,160,168,160z"/>
<rect x="32" y="160" style="fill:#D9DADE;" width="24" height="48"/>
<g>
	<path style="fill:#8D919D;" d="M277.657,274.343l-24-24c-3.124-3.124-8.189-3.124-11.313,0l-24,24
		c-3.125,3.124-3.125,8.189,0,11.313c3.124,3.124,8.189,3.124,11.313,0L240,275.313V312c0,4.418,3.582,8,8,8s8-3.582,8-8v-36.686
		l10.343,10.343c3.083,3.082,8.231,3.082,11.314,0C280.781,282.533,280.781,277.467,277.657,274.343z"/>
	<path style="fill:#8D919D;" d="M181.657,250.343c-3.124-3.124-8.189-3.124-11.313,0l-24,24c-3.125,3.124-3.125,8.189,0,11.313
		c3.124,3.124,8.189,3.124,11.313,0L168,275.313V312c0,4.418,3.582,8,8,8s8-3.582,8-8v-36.687l10.343,10.343
		c3.082,3.082,8.231,3.082,11.313,0c3.125-3.124,3.125-8.189,0-11.313L181.657,250.343z"/>
	<path style="fill:#8D919D;" d="M109.657,250.343c-3.124-3.124-8.189-3.124-11.313,0l-24,24c-3.125,3.124-3.125,8.189,0,11.313
		c3.124,3.124,8.189,3.124,11.313,0L96,275.313V312c0,4.418,3.582,8,8,8s8-3.582,8-8v-36.687l10.343,10.343
		c3.082,3.082,8.231,3.082,11.313,0c3.125-3.124,3.125-8.189,0-11.313L109.657,250.343z"/>
</g>
<g>
	<path style="fill:#EBB645;" d="M168,144h-16c-4.418,0-8-3.582-8-8s3.582-8,8-8h16c4.418,0,8,3.582,8,8S172.418,144,168,144z"/>
	<path style="fill:#EBB645;" d="M128,144H40c-4.418,0-8-3.582-8-8s3.582-8,8-8h88c4.418,0,8,3.582,8,8S132.418,144,128,144z"/>
</g>
<rect y="304" style="fill:#D96955;" width="320" height="16"/>
<g>
</g>
<g>
</g>
<g>
</g>
<g>
</g>
<g>
</g>
<g>
</g>
<g>
</g>
<g>
</g>
<g>
</g>
<g>
</g>
<g>
</g>
<g>
</g>
<g>
</g>
<g>
</g>
<g>
</g>
</svg>
