<?xml version="1.0" encoding="utf-8"?>
<!-- Generator: Adobe Illustrator 16.0.3, SVG Export Plug-In . SVG Version: 6.00 Build 0)  -->
<!DOCTYPE svg PUBLIC "-//W3C//DTD SVG 1.1//EN" "http://www.w3.org/Graphics/SVG/1.1/DTD/svg11.dtd">
<svg version="1.1" id="Layer_1" xmlns="http://www.w3.org/2000/svg" xmlns:xlink="http://www.w3.org/1999/xlink" x="0px" y="0px"
	 width="90.773px" height="38.71px" viewBox="0 0 90.773 38.71" enable-background="new 0 0 90.773 38.71" xml:space="preserve">
<polygon fill="#F47920" points="74.82,24.264 71.457,20.491 68.125,24.264 61.114,24.264 67.967,16.563 61.114,8.86 68.346,8.86 
	71.74,12.602 75.008,8.86 81.987,8.86 75.166,16.53 82.081,24.264 "/>
<polygon fill="#F47920" points="47.646,24.264 47.646,0 61.114,0 61.114,5.409 53.352,5.409 53.352,8.86 61.114,8.86 61.114,14.063 
	53.352,14.063 53.352,18.841 61.114,18.841 61.114,24.264 "/>
<g>
	<path fill="#472F92" d="M41.967,0v9.93h-0.063c-1.259-1.445-2.83-1.948-4.653-1.948c-3.734,0-6.549,2.539-7.536,5.896
		c-1.126-3.699-4.03-5.965-8.338-5.965c-3.498,0-6.26,1.568-7.702,4.128V8.86H6.445V5.409h7.89V0H0v24.264h6.445V14.064h6.423
		c-0.19,0.749-0.293,1.553-0.293,2.398c0,5.061,3.866,8.612,8.801,8.612c4.15,0,6.885-1.948,8.33-5.499h-5.522
		c-0.747,1.066-1.314,1.384-2.808,1.384c-1.731,0-3.225-1.512-3.225-3.303h11.246c0.488,4.021,3.62,7.487,7.916,7.487
		c1.854,0,3.552-0.912,4.59-2.452h0.063v1.571h5.68V0H41.967z M18.33,14.137c0.359-1.54,1.555-2.548,3.046-2.548
		c1.644,0,2.777,0.976,3.076,2.548H18.33z M38.518,20.569c-2.095,0-3.396-1.951-3.396-3.988c0-2.178,1.133-4.271,3.396-4.271
		c2.347,0,3.281,2.094,3.281,4.271C41.799,18.646,40.809,20.569,38.518,20.569"/>
	<path fill="#F47920" d="M90.213,21.368c0-1.401-0.994-2.43-2.366-2.43c-1.37,0-2.366,1.028-2.366,2.43
		c0,1.4,0.996,2.427,2.366,2.427C89.219,23.795,90.213,22.769,90.213,21.368 M87.226,21.492v1.588h-0.515v-3.503h1.276
		c0.746,0,1.091,0.327,1.091,0.966c0,0.39-0.267,0.701-0.608,0.745v0.017c0.295,0.047,0.404,0.313,0.467,0.795
		c0.047,0.311,0.11,0.856,0.219,0.98h-0.606c-0.143-0.327-0.127-0.794-0.235-1.184c-0.092-0.295-0.248-0.404-0.59-0.404H87.226z
		 M87.861,21.041c0.498,0,0.64-0.266,0.64-0.498c0-0.28-0.142-0.497-0.64-0.497h-0.636v0.995H87.861z M84.92,21.368
		c0-1.729,1.37-2.896,2.927-2.896c1.558,0,2.927,1.168,2.927,2.896c0,1.728-1.369,2.896-2.927,2.896
		C86.29,24.264,84.92,23.096,84.92,21.368"/>
	<polygon fill="#472F92" points="47.646,36.397 47.646,27.702 52.562,27.702 52.562,28.425 48.43,28.425 48.43,31.496 
		52.416,31.496 52.416,32.219 48.43,32.219 48.43,36.397 	"/>
	<path fill="#472F92" d="M54.146,36.397h-0.724v-4.685c0.014-0.47-0.036-0.952-0.06-1.362h0.747l0.036,0.893h0.023
		c0.216-0.615,0.759-1.049,1.361-1.072c0.241-0.012,0.481,0,0.723,0.012v0.699c-0.145-0.013-0.301-0.048-0.446-0.048
		c-1.07,0-1.638,0.77-1.661,1.926V36.397z"/>
	<path fill="#472F92" d="M57.236,33.543c0.023,1.29,0.614,2.373,2.097,2.373c0.854,0,1.565-0.614,1.746-1.445h0.758
		c-0.373,1.445-1.277,2.107-2.734,2.107c-1.806,0-2.649-1.554-2.649-3.203c0-1.64,0.904-3.204,2.697-3.204
		c2.024,0,2.76,1.48,2.76,3.372H57.236z M61.127,32.881c-0.084-1.168-0.71-2.047-1.963-2.047c-1.182,0-1.807,0.986-1.904,2.047
		H61.127z"/>
	<path fill="#472F92" d="M63.663,28.605H62.82V27.7h0.843v0.453V28.605z M63.604,30.352v3.394v2.653h-0.723v-6.047H63.604z"/>
	<path fill="#472F92" d="M69.242,30.352h0.746c-0.023,0.409-0.06,0.891-0.06,1.36v3.626c0,1.204,0.06,2.469-1.277,3.096
		c-0.481,0.229-0.728,0.276-1.295,0.276c-1.095,0-2.475-0.374-2.475-1.625h0.782c0.085,0.722,0.94,0.963,1.71,0.963
		c0.94,0,1.808-0.662,1.831-1.675v-1.132h-0.023c-0.35,0.711-1.18,1.132-1.963,1.132c-1.819,0-2.602-1.385-2.602-3.047
		c0-1.638,0.734-3.155,2.577-3.155c0.879,0,1.505,0.421,1.987,1.119l0.023-0.048L69.242,30.352z M67.267,30.833
		c-1.313,0-1.867,1.325-1.867,2.434c0,1.107,0.566,2.444,1.891,2.444c1.386,0,1.915-1.288,1.915-2.469
		C69.205,32.086,68.567,30.833,67.267,30.833"/>
	<path fill="#472F92" d="M71.867,31.267h0.023c0.422-0.747,1.108-1.096,1.892-1.096c1.976,0,2.132,1.747,2.132,2.444v3.782h-0.723
		v-3.901c0-1.05-0.603-1.662-1.591-1.662c-1.191,0-1.733,1-1.733,2.083v3.48h-0.723v-8.695h0.723V31.267z"/>
	<path fill="#472F92" d="M77.706,31.014h-1.205v-0.662h1.205v-1.29l0.724-0.312v1.602h1.372v0.662H78.43v4.047
		c-0.014,0.555,0.276,0.855,0.831,0.855c0.216,0,0.433-0.012,0.626-0.072v0.626c-0.229,0.06-0.494,0.108-0.735,0.108
		c-1.529,0-1.445-0.975-1.445-1.794V31.014z"/>
</g>
</svg>
