<svg id="Layer_1" data-name="Layer 1" xmlns="http://www.w3.org/2000/svg" width="250" height="121.38" viewBox="0 0 250 121.38"><defs><style>.cls-1{fill:#d21145;}.cls-2{fill:#d41d4e;}.cls-3{fill:#d41c4d;}.cls-4{fill:#d21245;}.cls-5{fill:#d21246;}.cls-6{fill:#d93461;}</style></defs><title>home-cfib-en</title><path class="cls-1" d="M139.61,0c1.33.25,2.66.5,4,.83A27.82,27.82,0,0,1,149.85,3a.75.75,0,0,1,.58.91q-1.25,6.75-2.49,13.74a16.35,16.35,0,0,0-1.75-2.58,13.85,13.85,0,0,0-9-4.08,21,21,0,0,0-16.15,4.58,14.4,14.4,0,0,0-2.59,2.91,8,8,0,0,0,1.59,10.91c.5.5.58.75.16,1.25-1.91,2.41-3.74,4.82-5.66,7.24a2.68,2.68,0,0,0-.41.83l3.24-2,7-4.24a2,2,0,0,1,1.58-.25c7,1.41,13.4.08,18.9-4.58l.74-.75a6.54,6.54,0,0,1,.75-.75,15.87,15.87,0,0,1-.41,3c-.42,2.74-1,5.49-1.42,8.24a1.6,1.6,0,0,1-1,1.41,34.76,34.76,0,0,1-16.31,3.83,29.24,29.24,0,0,1-8.5-1.58,2.34,2.34,0,0,0-1.83.09c-3.74,1.91-7.49,3.83-11.32,5.66a1.36,1.36,0,0,1-1,.33c1.92-3.25,3.83-6.49,5.83-9.66.33-.58.33-.91-.17-1.33-3.91-3.75-5.08-8.49-4.41-13.65,1.08-8.33,6.08-13.82,13.07-17.82A37.12,37.12,0,0,1,132.12.33c.25,0,.5.09.58-.25C135,0,137.28,0,139.61,0Z"/><path class="cls-1" d="M127.37,121.38c-.16-.42-.91-.08-.83-.67a6.63,6.63,0,0,1,.58-1.83c.09-.25.34,0,.59,0,2.08.33,3.16-1,2.58-3-.67-2.33-1.34-4.66-2.08-6.91-.17-.58-.09-.74.58-.74,2.16,0,2.16-.09,2.75,2.08.24,1.08.58,2.24.91,3.58.75-1.67,1.5-3.08,2.17-4.58a1.48,1.48,0,0,1,1.83-1.17,7.38,7.38,0,0,0,1.41,0c.17.33-.08.58-.25.75-1.75,3.33-3.49,6.66-5.33,10a3.25,3.25,0,0,1-2.74,2.17c-.59.25-1.25-.09-1.83.16C127.46,121.38,127.37,121.38,127.37,121.38Z"/><path class="cls-2" d="M249.92,116.47c-.75.08-.42-.67-.67-.92-.25.25,0,.83-.5.92s-.33-.59-.5-.84c-.25.17-.08.42-.16.59a.36.36,0,0,1-.34.33c-.25,0-.25-.17-.25-.33v-1.75c0-.17,0-.42.25-.42s.5,0,.58.25a7.53,7.53,0,0,0,.42,1.25c.33-.83.25-1.66,1.25-1.58A24.38,24.38,0,0,0,249.92,116.47Z"/><path class="cls-1" d="M183.82,16.57c-2.5,3.08-4.92,5.82-7.25,8.74-.33.41-.66.33-1.08.33H164.34c-.84,0-1,.25-1.17,1l-2.5,14.49c-.08.66-.33,1-1.16,1-3.25-.08-6.58,0-9.83,0-.66,0-.83-.16-.66-.83q3-16.72,5.91-33.46c.33-2.09.75-4.25,1.08-6.33.08-.67.33-.92,1.08-.92h29.56c.75,0,1,.09.83.92-.42,2.25-.83,4.58-1.25,6.83-.17.83-.42,1.16-1.41,1.16-5.83-.08-11.74,0-17.57-.08-.83,0-1.17.16-1.25,1-.25,1.74-.5,3.41-.92,5.16-.24.91.17,1,.92,1h17.82Z"/><path class="cls-1" d="M190.81,42h-4.75c-.75,0-.91-.17-.83-.91.75-3.92,1.42-7.91,2.08-11.91,1.58-9.16,3.25-18.31,4.83-27.47.17-1,.5-1.42,1.58-1.33,3,.08,6.08.08,9.08,0,.83,0,.83.25.75.91-2.33,13.16-4.67,26.31-6.91,39.46-.17.92-.42,1.25-1.42,1.17-1.41,0-2.91.08-4.41.08Z"/><path class="cls-3" d="M122.46,95.74H242.67c.42,0,1.25-.42,1.25.41s-.83.34-1.25.34H2.08c-.41.08-1.25.5-1.25-.34s.84-.41,1.25-.41Z"/><path class="cls-1" d="M97,80.5c0,1.75-.09,3.25,0,4.75,0,.83-.17,1.16-1,1.08-2.17-.08-2.17,0-2.17-2.16V76.59c0-.58.09-.83.84-.92a3.48,3.48,0,0,1,3.41,1.42c1.16,1.41,2.5,2.75,4,4.33V76.59c0-.75.17-1,.92-1,2.33,0,2.33,0,2.33,2.33v7.49c0,.67-.25.75-.83.84a3.47,3.47,0,0,1-3.41-1.5C99.82,83.42,98.4,82.08,97,80.5Z"/><path class="cls-1" d="M60.36,61.85v4.92c0,.66-.09.91-.84.91-2.41,0-2.41,0-2.41-2.41V58c0-.67.08-.92.83-1a3.53,3.53,0,0,1,3.42,1.49c1.16,1.42,2.49,2.75,4,4.33V58.11c0-.75.08-1.08,1-1.08,2.25.08,2.25,0,2.25,2.33v7.49c0,.58-.17.75-.83.83a3.46,3.46,0,0,1-3.42-1.41A48.39,48.39,0,0,0,60.36,61.85Z"/><path class="cls-1" d="M39.13,80.5v5.08c0,.58-.17.75-.75.75C36,86.41,36,86.41,36,84V76.51c0-.67.25-.84.84-.84a3.35,3.35,0,0,1,3.33,1.42c1.16,1.5,2.58,2.83,4.08,4.41v-5c0-.59.08-.75.75-.75,2.49-.09,2.49-.09,2.49,2.33v7.32c0,.75-.25.84-.91.92a3.48,3.48,0,0,1-3.33-1.41C42,83.42,40.63,82.08,39.13,80.5Z"/><path class="cls-1" d="M133.87,80.59v5c0,.67-.25.83-.84.83-2.41,0-2.41,0-2.41-2.41V76.51c0-.67.17-.75.83-.84a3.46,3.46,0,0,1,3.5,1.5c1.16,1.5,2.58,2.75,4.08,4.33v-5c0-.59.08-.84.75-.84,2.41,0,2.41-.08,2.41,2.34V85.5c0,.58-.17.75-.75.83A3.46,3.46,0,0,1,138,84.92C136.78,83.42,135.36,82.17,133.87,80.59Z"/><path class="cls-1" d="M204.71,80.5v5c0,.75-.25.91-.91.91-2.25,0-2.25,0-2.25-2.33V76.51c0-.67.16-.75.83-.84a3.46,3.46,0,0,1,3.41,1.42c1.17,1.5,2.58,2.75,4.08,4.33v-5c0-.58.09-.83.75-.83,2.42,0,2.42-.08,2.42,2.42v7.32c0,.67-.17.83-.84.92a3.35,3.35,0,0,1-3.33-1.42C207.63,83.5,206.21,82.08,204.71,80.5Z"/><path class="cls-1" d="M238.84,62.85V57.78c0-.59.17-.75.75-.75,2.5,0,2.5-.09,2.5,2.41v7.24c0,.75-.25.84-.91.92a3.47,3.47,0,0,1-3.33-1.42c-1.17-1.41-2.59-2.74-4-4.41v5.08c0,.58-.17.75-.75.75-2.5,0-2.5,0-2.5-2.42V57.94c0-.75.25-.83.92-.91a3.45,3.45,0,0,1,3.41,1.49C236.1,60,237.43,61.36,238.84,62.85Z"/><path class="cls-1" d="M123.79,62.85V57.78c0-.5.17-.67.67-.67C127,57,127,57,127,59.52v7.25c0,.66-.17.83-.84.91a3.63,3.63,0,0,1-3.41-1.41c-1.16-1.5-2.58-2.75-4-4.33v4.91c0,.67-.16.92-.83.92-2.41,0-2.41.08-2.41-2.34V58.19c0-.66.08-.91.83-.91a3.76,3.76,0,0,1,3.5,1.49C121,60,122.38,61.36,123.79,62.85Z"/><path class="cls-1" d="M172.58,79.17V76.42c0-.58.16-.66.66-.66,2.58-.09,2.58-.09,2.58,2.5v3.08a2.34,2.34,0,0,0,2.09,2.49,2.13,2.13,0,0,0,2.49-2.16,49.08,49.08,0,0,0,.09-5c0-.66.25-.83.83-.83,2.33,0,2.33,0,2.33,2.25,0,1-.08,2,0,3,.25,4.07-2.58,5.49-5.66,5.49a6.26,6.26,0,0,1-3.25-.75,4.19,4.19,0,0,1-2.25-3.75C172.58,81,172.58,80.09,172.58,79.17Z"/><path class="cls-1" d="M215.62,80.92v-4.5c0-.58.16-.75.75-.75h6.41c.58,0,.66.17.66.67,0,1.83.17,1.5-1.5,1.5H220c-.58,0-1.25-.25-1.25.91s.58,1,1.25.92a22.64,22.64,0,0,0,2.33,0c1.08-.08.75.67.83,1.17s.09,1.08-.75,1-1.91,0-2.83,0c-.58,0-.75.09-.75.75,0,1.5,0,1.5,1.42,1.5h2.16A1.27,1.27,0,0,1,223.61,86c-.17.33-.42.25-.58.25h-6.75c-.5,0-.58-.25-.58-.67C215.62,84.08,215.62,82.5,215.62,80.92Z"/><path class="cls-1" d="M120.63,80.92V76.51c0-.67.25-.84.83-.84h6.25c.5,0,.74.09.74.67-.08,1.83.17,1.5-1.49,1.5a22.64,22.64,0,0,1-2.33,0c-.84-.08-.84.33-.75.91s-.09,1,.75,1c1-.08,2,0,3,0s.67.75.67,1.17.16,1.08-.67,1c-1-.09-2,0-3,0-.59,0-.75.16-.75.75,0,1.5,0,1.5,1.41,1.5h2.17a1.3,1.3,0,0,1,1.16,1.91c-.08.25-.33.25-.5.25H121.3c-.5,0-.59-.25-.59-.67C120.63,84.08,120.63,82.5,120.63,80.92Z"/><path class="cls-1" d="M83.67,81V76.51c0-.67.16-.84.83-.75,2.08,0,4.24.08,6.33,0,1,0,.75.58.66,1.08s.33,1.25-.66,1.17-2.09.08-3.17,0c-.83-.09-.75.41-.75,1s0,1,.75.92c1-.08,2,0,3,0s.67.5.67,1,.33,1.25-.67,1.25H87.58c-1-.09-.67.66-.67,1.08s-.25,1.17.67,1.08c1.08-.08,2.25,0,3.33,0s.67.67.67,1.08.24,1.09-.67,1.09c-2.17-.09-4.33,0-6.58,0-.58,0-.75-.17-.75-.75A45.12,45.12,0,0,0,83.67,81Z"/><path class="cls-1" d="M62.77,81V76.42c0-.5.08-.66.58-.66H70c.5,0,.67.16.59.66v1c0,.5-.17.59-.59.59H66.77c-.75-.09-.84.33-.84.91s.09,1,.84,1c.91-.08,1.91,0,2.83,0,.5,0,.75.08.75.67,0,1.49,0,1.49-1.42,1.49a20.12,20.12,0,0,1-2.33,0c-1.08-.08-.67.67-.67,1.17s-.16,1.08.67,1c1.08-.08,2.25,0,3.41,0,1-.08.67.67.67,1.08s.25,1.17-.67,1.08c-2.16-.08-4.33,0-6.57,0-.59,0-.75-.25-.75-.75.08-1.58.08-3.16.08-4.66Z"/><path class="cls-1" d="M42.12,64.35v2.08a.62.62,0,0,1-.41.67c-2.58.92-5.25,1.25-7.66-.33-2-1.34-2.41-3.42-2-5.75a4.8,4.8,0,0,1,4-3.83,10.92,10.92,0,0,1,5.41.42c.41.08.5.33.5.75v2.25a7.65,7.65,0,0,0-2.83-1,9.43,9.43,0,0,0-1.5.08,2.94,2.94,0,0,0-2.5,3,3,3,0,0,0,2.92,2.66,5.87,5.87,0,0,0,3.08-.66C41.54,64.52,41.71,64.27,42.12,64.35Z"/><path class="cls-1" d="M143.94,62.27V57.78c0-.59.17-.67.67-.67,2.16,0,4.32.08,6.41,0,1,0,.66.67.66,1.08s.25,1.17-.75,1.08-2.08,0-3.16-.08c-.92-.08-.75.58-.75,1.08s0,.92.75.92c.91-.08,1.83.08,2.75,0s.91.42,1,1.16-.25,1.09-1,1c-.92-.08-1.75,0-2.67,0-.5,0-.75.09-.75.75,0,1.5,0,1.5,1.5,1.5h2.25c.33,0,.91-.25,1,.17a4.7,4.7,0,0,1,0,1.83c0,.17-.25.08-.42.08h-6.82c-.5,0-.67-.16-.67-.66Z"/><path class="cls-1" d="M166.75,62.35V57.78c0-.5.17-.67.67-.67,2.16,0,4.32.08,6.57,0,.84,0,.75.42.67.92s.41,1.24-.67,1.24h-2.83c-.75,0-1.16,0-1.16,1s.41,1,1.08.92h2.66c1.09-.08.67.66.67,1.16s.08,1-.75.92c-1-.08-2,0-3,0s-.66.67-.75,1.17-.25,1.08.75,1.08,2.25,0,3.42,0c.75,0,.75.41.66.91s.42,1.25-.66,1.25h-6.66c-.59,0-.67-.16-.67-.75Z"/><path class="cls-1" d="M234.93,83.08a6.88,6.88,0,0,0,3.25,1.09c.5,0,1-.09,1.08-.67s-.33-.75-.67-1a21.45,21.45,0,0,1-2.24-1.16,3,3,0,0,1,1.16-5.67,6.59,6.59,0,0,1,2.17,0c2.49.34,2.74.67,2.41,3.25a10.3,10.3,0,0,0-2.25-.91,4.38,4.38,0,0,0-1.08-.09.78.78,0,0,0-.33,1.5c.58.33,1.25.58,1.83.92,2.08,1.16,2.75,2.24,2.25,3.91-.42,1.5-2.08,2.41-4.08,2.33a3.62,3.62,0,0,1-.92-.08C234.93,86.08,234.6,85.75,234.93,83.08Z"/><path class="cls-1" d="M185.81,83a6.55,6.55,0,0,0,3.33,1.08c.5,0,1-.08,1.09-.66s-.34-.75-.67-1c-.5-.25-1.08-.5-1.58-.75-1.92-1-2.58-2.25-2.17-3.91.34-1.42,1.92-2.34,3.83-2.25.25,0,.59.08.84.08,2.49.25,2.83.67,2.58,3.25-.67-.25-1.25-.83-2-.92a6.78,6.78,0,0,0-1.17-.16c-.41,0-.83.08-.91.66-.09.42.25.67.58.83.75.42,1.5.75,2.16,1.09,1.67.91,2.17,2,1.84,3.58a3.28,3.28,0,0,1-3.08,2.33,8.8,8.8,0,0,1-3.58-.42A1.1,1.1,0,0,1,186,84.5,6.3,6.3,0,0,1,185.81,83Z"/><path class="cls-1" d="M225.36,83a6.26,6.26,0,0,0,3.33,1.08c.5,0,1-.08,1.16-.66s-.33-.75-.66-1c-.75-.42-1.5-.67-2.17-1.08A3,3,0,0,1,225.44,78a3.12,3.12,0,0,1,2.83-2.42,7.71,7.71,0,0,1,1.92,0c2.49.33,2.74.67,2.41,3.25a8,8,0,0,0-2.33-1c-.33,0-.67-.08-1-.08a.71.71,0,0,0-.75.58.79.79,0,0,0,.42.83c.75.42,1.58.83,2.33,1.25,1.58.92,2.16,2,1.75,3.5a3.26,3.26,0,0,1-3.08,2.41,9.93,9.93,0,0,1-3.5-.33c-.75-.25-1.17-.59-1-1.42A8.85,8.85,0,0,1,225.36,83Z"/><path class="cls-1" d="M149.43,75.76H154c.67,0,.84.25.84.83,0,1.75.08,1.75-1.75,1.75-2.08,0-2.08,0-2.08,2.08v5c0,.67-.09.92-.92.92-2.41,0-2.41,0-2.41-2.41V79.09c0-.67-.25-.92-.84-.83a4.87,4.87,0,0,1-1.08,0c-2,0-1.91,0-1.91-1.92,0-.5.16-.67.66-.67C146.27,75.76,147.85,75.76,149.43,75.76Z"/><path class="cls-1" d="M204.55,57.11h4.57c.67,0,.84.25.84.83,0,1.75,0,1.75-1.75,1.75-2.17,0-2.17,0-2.17,2.16v4.92c0,.58-.08.83-.75.83-2.49,0-2.49,0-2.49-2.5V60.44c0-.58-.17-.83-.75-.75-.83.08-1.67,0-2.42,0-.58,0-.66-.17-.66-.67-.09-1.91-.09-1.91,1.83-1.91Z"/><path class="cls-1" d="M15.82,81V76.51c0-.59.08-.75.75-.75h6.24c.58,0,.67.16.67.66,0,1.5.08,1.5-1.5,1.5H20.23c-1.17,0-1.42.42-1.17,1.58.09.42.34.34.59.34h3c.59,0,.84.16.84.83,0,1.41,0,1.41-1.34,1.41a17.3,17.3,0,0,1-2.16,0c-.75-.08-.92.25-.92.92s-.08,1.58,0,2.33c.17,1.33-.74,1.08-1.41,1s-1.92.83-1.83-.92Z"/><path class="cls-1" d="M9.07,108.89a4.12,4.12,0,0,1,1.59-.83c2.33-.42,3.58.58,3.49,3a53.31,53.31,0,0,1-.66,5.32c-.09.42-.25.5-.67.59-2.16.16-2.16.16-1.91-1.92.08-1,.25-2,.41-3,.09-.66.09-1.33-.75-1.58a1.53,1.53,0,0,0-1.91,1,17.12,17.12,0,0,0-.58,3A1,1,0,0,1,8,115c-.25,2.16-.33,2.16-2.5,2-.49,0-.58-.17-.49-.59.33-2.49.74-4.91,1-7.41.09-.58.25-.83.92-.74s1.25-.25,1.83.24C8.74,108.64,8.57,109,9.07,108.89Z"/><path class="cls-1" d="M58.77,109.22a4.88,4.88,0,0,1,1.67-1.08c2.33-.75,4,.5,3.83,2.92-.17,1.74-.5,3.49-.67,5.24-.08.58-.33.58-.83.58-2,.09-2,.09-1.75-1.91.09-1,.25-1.92.42-2.92.08-.66.08-1.33-.75-1.58a1.5,1.5,0,0,0-1.92.92,4.15,4.15,0,0,0-.33,1.08c-.16,1.08-.33,2.17-.41,3.25-.09.91-.34,1.41-1.42,1.33-1.5-.08-1.5,0-1.33-1.5.25-2.16.58-4.24.83-6.41.08-.67.33-1,1-.91h.75C58.52,108.14,59,108.23,58.77,109.22Z"/><path class="cls-1" d="M209.54,109.22a3.85,3.85,0,0,1,3-1.16c1.66.08,2.58.83,2.49,2.5a49.23,49.23,0,0,1-.74,6c-.09.33-.25.42-.59.42-2.16.25-2.24.16-2-1.92.09-1,.25-1.91.42-2.91.08-.67.08-1.42-.75-1.67a1.61,1.61,0,0,0-1.91,1,9.6,9.6,0,0,0-.5,2.67l-.25,2c-.09.59-.25.84-.92.84-1.91,0-1.91.08-1.75-1.75.25-2.08.59-4.16.84-6.25.08-.58.33-.74.83-.66h1C209.46,108.23,210,108.31,209.54,109.22Z"/><path class="cls-1" d="M154.35,116a3.41,3.41,0,0,1-2.92,1.16c-1.75-.08-2.58-.83-2.58-2.58.08-2,.5-3.91.75-5.91.08-.33.25-.41.58-.41h2.25c-.25,1.66-.42,3.24-.67,4.74-.08.75-.08,1.5.75,1.75a1.58,1.58,0,0,0,1.92-1.08,16.4,16.4,0,0,0,.58-3.5c.33-2.08.25-2.08,2.42-1.91.33,0,.58.08.5.49-.34,2.59-.75,5.17-1.09,7.83-.08.42-.25.42-.58.42h-1.08C154.68,117.05,154.18,117,154.35,116Z"/><path class="cls-1" d="M37.63,116.05a3.39,3.39,0,0,1-2.75,1.08c-1.83,0-2.83-.91-2.66-2.74s.5-3.83.75-5.75c.08-.33.16-.41.5-.5,2.16-.25,2.33-.16,2,1.92-.16.91-.25,1.83-.41,2.74-.08.75-.17,1.59.83,1.84a1.61,1.61,0,0,0,2-1.25c.33-1.17.42-2.42.66-3.58.09-.59-.08-1.42.42-1.58a6.72,6.72,0,0,1,2.25-.09c.42,0,.33.33.25.5-.33,2.58-.75,5.16-1.08,7.74,0,.25-.17.42-.5.42H38.13C37.46,117,37.8,116.47,37.63,116.05Z"/><path class="cls-1" d="M188.48,116.05a3.51,3.51,0,0,1-2.67,1.08c-1.91,0-2.91-.91-2.74-2.83s.5-3.74.75-5.58c.08-.41.16-.49.58-.49,2.25-.25,2.25-.17,1.91,2-.16.92-.25,1.83-.41,2.75-.09.75-.09,1.5.75,1.75a1.7,1.7,0,0,0,2-1.08,26.69,26.69,0,0,0,.67-3.75c.08-.58-.08-1.42.42-1.58a6.67,6.67,0,0,1,2.24-.08c.34,0,.34.24.25.49-.33,2.59-.74,5.17-1.08,7.83,0,.25-.16.42-.5.42h-1.75C188.23,117,188.64,116.47,188.48,116.05Z"/><path class="cls-1" d="M134.28,62.27V57.78c0-.5.17-.67.67-.67,2.08,0,4.16.08,6.24,0,.83,0,.67.5.67.92s.41,1.24-.67,1.24h-3.08c-1,0-.66.67-.66,1.17s0,.92.75.92c1-.09,2.08,0,3.08,0s.66.58.66,1.08.33,1.16-.66,1.16h-3c-.67-.08-.83.25-.83.92.08.91,0,1.83,0,2.75,0,.41-.17.66-.59.58h-.16c-2.33.08-2.33.08-2.33-2.25C134.28,64.35,134.28,63.27,134.28,62.27Z"/><path class="cls-1" d="M99.73,117c-1.41,0-1.33,0-1.16-1.42s.33-2.91.58-4.33c.08-.58,0-.83-.67-.83-.41,0-1.08.25-.91-.58.17-.59-.33-1.67,1-1.58.75.08,1.16-.09,1.08-.92a4.5,4.5,0,0,1,.17-1.08,3.7,3.7,0,0,1,4.91-2.92c.33.09.5.17.41.59s-.16.83-.24,1.16c0,.5-.17.58-.67.5a1.92,1.92,0,0,0-1.92,2.42c.17.49.59.16.84.25s.91-.34,1,.41c.08,1.33-.17,1.83-1.09,1.75s-1.25.25-1.33,1.17c-.08,1.33-.41,2.66-.58,4.07C101.15,117,101.15,117,99.73,117Z"/><path class="cls-1" d="M195.89,117.22a4.54,4.54,0,0,1-2.75-.67c-.5-.33-.75-.58-.08-1.08l.5-.5c.5-.58,1-1.08,1.66-.17a.59.59,0,0,0,.33.17c.67.08,1.67.41,1.84-.5.16-.75-.84-.67-1.34-.92a2.52,2.52,0,0,0-.75-.16c-1.91-.59-2.49-2.25-1.24-3.92s4.49-2.08,6.16-.83c.41.33.58.58.08.92a7.77,7.77,0,0,0-.83.75c-.34.33-.67.5-1.09.08a1.23,1.23,0,0,0-.91-.33c-.5,0-.92.08-1,.66s.5.59.83.67.84.17,1.17.33c.91.25,1.75.58,1.91,1.67a2.9,2.9,0,0,1-1.08,2.83A6.54,6.54,0,0,1,195.89,117.22Z"/><path class="cls-1" d="M237.68,117.22a5.26,5.26,0,0,1-2.91-.75c-.42-.25-.5-.5-.09-.84a1.79,1.79,0,0,0,.58-.58c.5-.5.92-1.16,1.67-.25.08.17.42.25.67.25.58.08,1.41.25,1.58-.5s-.75-.66-1.25-.91c-.25-.09-.5-.09-.83-.17-2.17-.58-2.75-2.66-1.09-4.33a5.34,5.34,0,0,1,5.75-.58c.5.33.66.58.08,1a4.93,4.93,0,0,0-.75.66c-.33.34-.66.59-1.08.09a1.26,1.26,0,0,0-.92-.34c-.5,0-.91.09-1,.67s.49.58.83.75.83.17,1.16.33c.92.25,1.75.58,1.92,1.67a2.91,2.91,0,0,1-1,2.74A5.17,5.17,0,0,1,237.68,117.22Z"/><path class="cls-1" d="M86.83,117.22a5.26,5.26,0,0,1-2.91-.75c-.34-.25-.42-.5-.09-.84a1.92,1.92,0,0,0,.59-.58c.5-.5,1-1.16,1.74-.25a.61.61,0,0,0,.34.17c.66.08,1.66.41,1.83-.5.16-.75-.83-.67-1.33-.92-.17-.08-.42-.08-.59-.16-2.24-.59-2.83-2.58-1.16-4.25a5.18,5.18,0,0,1,5.83-.58c.41.33.66.58.08,1a1.79,1.79,0,0,0-.58.58c-.42.42-.84.75-1.42.17a1.29,1.29,0,0,0-1-.25c-.41.08-.83.16-.91.66s.41.59.75.67a6.33,6.33,0,0,0,1.24.33c.92.25,1.75.67,1.92,1.75a2.88,2.88,0,0,1-.92,2.66A5.55,5.55,0,0,1,86.83,117.22Z"/><path class="cls-1" d="M45,117.22a4.54,4.54,0,0,1-2.75-.67c-.5-.33-.67-.58-.09-1a5.91,5.91,0,0,0,.67-.66c.42-.5.83-.92,1.42-.17a1.91,1.91,0,0,0,.75.33c.66.08,1.49.25,1.66-.58.08-.67-.75-.58-1.25-.75l-1-.25A2.28,2.28,0,0,1,43,109.72c1.17-1.74,4.66-2.24,6.24-1,.34.25.5.5.09.84a7,7,0,0,0-.84.75c-.41.41-.74.5-1.16.08a1.21,1.21,0,0,0-1.08-.25c-.42.08-.84.17-.92.67s.33.5.67.58a6.48,6.48,0,0,0,1.41.33c.84.25,1.67.58,1.92,1.67a2.86,2.86,0,0,1-.92,2.74A5.27,5.27,0,0,1,45,117.22Z"/><path class="cls-1" d="M78.5,117.13a4.29,4.29,0,0,1-2.83-.75c-.41-.33-.5-.58-.08-.91a5.83,5.83,0,0,0,.67-.58c.5-.59.91-.84,1.5-.17a.63.63,0,0,0,.58.25c.66.08,1.5.33,1.75-.42.25-.91-.75-.66-1.25-.91-.17-.09-.5-.09-.67-.17-2.16-.58-2.75-2.66-1.08-4.33a5.16,5.16,0,0,1,5.74-.58c.59.41.67.66,0,1.08a2.18,2.18,0,0,0-.66.58c-.42.42-.75.5-1.17.09a1,1,0,0,0-1-.25c-.5,0-.91.16-1,.66s.42.5.75.67a6.61,6.61,0,0,0,1.25.33c.83.25,1.67.58,1.92,1.5a2.81,2.81,0,0,1-.84,2.83A5.1,5.1,0,0,1,78.5,117.13Z"/><path class="cls-1" d="M229.35,117.13a4.5,4.5,0,0,1-2.74-.66c-.5-.34-.67-.59-.09-1a5.83,5.83,0,0,0,.67-.58c.42-.5.75-.92,1.41-.17.42.5,1.17.41,1.84.25a.86.86,0,0,0,.58-.5.55.55,0,0,0-.5-.58c-.5-.17-1.08-.25-1.58-.42-2.08-.58-2.67-2.41-1.25-4.08,1.25-1.5,4.49-1.91,6-.75.42.33.59.5.09.92a7,7,0,0,0-.84.75c-.33.33-.66.58-1.08.08a1,1,0,0,0-.83-.33c-.5,0-1.08.08-1.17.58-.16.67.5.58.92.75s.83.17,1.16.33c.84.25,1.67.58,1.84,1.58a2.68,2.68,0,0,1-.84,2.75A4.71,4.71,0,0,1,229.35,117.13Z"/><path class="cls-1" d="M2.83,116.8a7.3,7.3,0,0,1-2.33.08.44.44,0,0,1-.5-.5c.58-3.83,1.08-7.57,1.58-11.4.09-.67.25-.83.92-.83,2,0,2.08,0,1.75,2C3.83,109.72,3.33,113.3,2.83,116.8Z"/><path class="cls-4" d="M195.72,81.09V76.51c0-.59.17-.75.75-.75,2.5,0,2.5-.09,2.5,2.41V85.5c0,.66-.17.83-.83.83-2.42,0-2.42,0-2.42-2.33Z"/><path class="cls-4" d="M30.14,81V76.42c0-.58.16-.75.75-.75,2.49,0,2.49-.08,2.49,2.42v7.32c0,.67-.16.84-.83.84-2.41,0-2.41,0-2.41-2.33Z"/><path class="cls-5" d="M211.79,62.35V57.86c0-.58.16-.75.75-.75C215,57,215,57,215,59.52v7.25c0,.66-.16.91-.83.91-2.41,0-2.41,0-2.41-2.41Z"/><path class="cls-5" d="M100,62.44v4.24c0,.67-.16.92-.91.92-2.33,0-2.33.08-2.33-2.33V57.86c0-.58.08-.83.75-.83,2.41,0,2.41-.09,2.41,2.41C100,60.44,100,61.44,100,62.44Z"/><path class="cls-4" d="M162.92,109.06a2.71,2.71,0,0,1,1.25-.92c.67-.25,1.58-.5,1.91.09s-.08,1.33-.25,2.08c-.08.41-.41.16-.66.16-2-.08-2.75.42-3.08,2.42-.17,1-.34,2.08-.42,3.16-.08.67-.33.92-1.08.92-1.83,0-1.83,0-1.58-1.75.25-2.08.58-4.25.83-6.41.08-.42.17-.67.67-.67h1.74c.34,0,.42.09.42.42S162.42,109.14,162.92,109.06Z"/><path class="cls-1" d="M118.8,109.31a3.88,3.88,0,0,1,3-1.25c.5.08.75.17.59.75a1.29,1.29,0,0,0-.09.58c0,.92-.25,1.25-1.33,1.17a1.94,1.94,0,0,0-2.41,1.74,28.6,28.6,0,0,0-.58,3.75c-.09.75-.34,1.08-1.09,1-1.75-.08-1.75,0-1.58-1.75.25-2.08.58-4.08.83-6.16.09-.58.25-.91.92-.83a4.18,4.18,0,0,0,1,0C118.8,108.14,119.21,108.31,118.8,109.31Z"/><path class="cls-1" d="M53,108.23h.75c.58-.09.66.16.58.66-.33,2.5-.75,5.08-1.08,7.58-.09.41-.25.5-.59.5-2.24.16-2.24.16-1.91-2.08l.75-5.25C51.62,108.23,51.62,108.23,53,108.23Z"/><path class="cls-1" d="M203.88,108.23c1.41,0,1.41,0,1.16,1.41-.33,2.16-.66,4.41-.91,6.58-.08.58-.25.83-.83.83-2.08,0-2.08.08-1.75-1.92.25-1.74.5-3.57.75-5.32C202.46,108.23,202.46,108.23,203.88,108.23Z"/><path class="cls-5" d="M205.79,105.31a1.77,1.77,0,0,1-1.83,1.75c-.83,0-1.25-.5-1.33-1.33a1.83,1.83,0,0,1,1.83-1.75A1.22,1.22,0,0,1,205.79,105.31Z"/><path class="cls-5" d="M55,105.23a1.92,1.92,0,0,1-1.84,1.83,1.22,1.22,0,0,1-1.33-1.33,1.84,1.84,0,0,1,1.83-1.83A1.37,1.37,0,0,1,55,105.23Z"/><path class="cls-6" d="M247.34,114.14a1,1,0,0,0-.17.25c-.83.08-.42.74-.5,1.16s.17.83-.33.83-.25-.5-.34-.83c-.08-.5.25-1.25-.66-1.25a.27.27,0,0,1-.09-.16c0-.34.34-.34.5-.25C246.25,113.89,246.84,113.64,247.34,114.14Z"/><path class="cls-1" d="M236.6,19.23c3.16,1.5,5.16,3.75,5.49,7.16a13.76,13.76,0,0,1-1.25,7.08c-2,4.58-5.83,6.74-10.4,7.82a29.76,29.76,0,0,1-6.66.75h-20.9c-.75,0-.92-.08-.83-.91l5.49-31L209,1.42c.08-.59.25-.92.92-.92,6.91.08,13.73-.08,20.64.08a19,19,0,0,1,5.66,1.09c5.08,1.83,7.16,5.82,5.58,11A11.35,11.35,0,0,1,236.6,19.23Zm-14.32,13.9a14.08,14.08,0,0,0,4.91-.66,4.23,4.23,0,0,0,2.66-4.58c-.08-1.42-1.16-2.25-3.16-2.67-.17,0-.33-.08-.5-.08-3-.33-6.08-.08-9.07-.16-.59,0-.67.33-.75.74-.42,2.25-.75,4.5-1.17,6.75-.17.66.17.75.67.75H220A20.17,20.17,0,0,1,222.28,33.13ZM220,9.24c-.5,0-.75.08-.83.67-.34,1.91-.67,3.74-1,5.57-.08.59,0,.84.66.84,2.17-.09,4.33,0,6.5,0a6.28,6.28,0,0,0,2.75-.59,4.09,4.09,0,0,0,2.08-4.41c-.25-1.25-1.42-2.08-3.25-2.08H220Z"/><path class="cls-1" d="M222.94,67.77c-2.91,0-4.91-1.25-5.74-3.58-1.25-3.67,1.16-7,5.16-7.25,3.08-.16,5.5,1.17,6.24,3.67C229.85,64.52,227.27,67.77,222.94,67.77Zm-2.74-5.42a2.55,2.55,0,0,0,2.66,2.75,2.51,2.51,0,0,0,2.75-2.66,2.46,2.46,0,0,0-2.67-2.67A2.38,2.38,0,0,0,220.2,62.35Z"/><path class="cls-1" d="M7.91,86.5c-4.66,0-7.41-4.17-5.33-8.08,1.08-2,3-2.66,5.08-2.83,3.16-.17,5.58,1.5,6.16,4.41a5.21,5.21,0,0,1-4.91,6.41A3.73,3.73,0,0,0,7.91,86.5ZM5.16,81a2.65,2.65,0,0,0,2.67,2.75,2.63,2.63,0,0,0,2.83-2.66,2.56,2.56,0,0,0-2.75-2.67A2.45,2.45,0,0,0,5.16,81Z"/><path class="cls-1" d="M50,80.92v-4.5c0-.41-.08-.75.5-.75a50.11,50.11,0,0,1,6,.17,5.43,5.43,0,0,1,3.16,8.74,4.59,4.59,0,0,1-3.58,1.67c-1.83.08-3.58,0-5.41,0-.67,0-.75-.25-.67-.84Zm3.25-2.33V83.5c0,.25-.08.5.25.58.92.42,3.25-.25,3.75-1.16a3.9,3.9,0,0,0,0-3.58,2.7,2.7,0,0,0-2.83-1.42C54.11,78.17,53.2,77.42,53.28,78.59Z"/><path class="cls-1" d="M153.93,62.35V57.78c0-.34-.08-.67.42-.67,2.16.08,4.41-.25,6.57.25a4.79,4.79,0,0,1,3.75,4,5.24,5.24,0,0,1-1.83,5.41,4.18,4.18,0,0,1-2.75.83h-5.41c-.58,0-.75-.17-.75-.75Zm3.25,2.5c0,.25-.09.5.25.67,1,.58,3.49-.5,3.91-1.58.91-2.58-.5-4.58-3.25-4.58-.66,0-1,.08-.91.91a19.64,19.64,0,0,1,0,2.17Z"/><path class="cls-1" d="M168.91,80.59c1,.58,1.92,1.16,2,2.41a2.91,2.91,0,0,1-3.08,3.33c-2,.08-3.91,0-5.91,0-.41,0-.58-.17-.58-.58V76.26c0-.34,0-.59.41-.5,2,.08,3.92-.17,5.92.08a2.71,2.71,0,0,1,2.49,1.67C170.41,78.59,170.08,79.5,168.91,80.59Zm-3.33,3.91c1.5-.17,2.09-.42,2.09-1.33s-.67-1.25-2.09-1.34c-1.16-.08-1.08.59-1,1.34S164.25,84.67,165.58,84.5Zm-.16-4.41c1.25-.09,1.83-.42,1.83-1.25s-.67-1.17-1.92-1.25-.58.75-.74,1.16C164.59,79.34,164.25,80.17,165.42,80.09Z"/><path class="cls-1" d="M83.92,62.27V57.78c0-.34-.17-.75.41-.75,2.08.08,4.25-.25,6.33.25a5.37,5.37,0,0,1,3,8.65,4.66,4.66,0,0,1-3.5,1.67H84.67c-.59,0-.75-.17-.75-.75C84,65.35,83.92,63.85,83.92,62.27Zm3.24,2.58c0,.25-.08.5.25.58,1.33.67,3.83-.58,4.08-2.08.42-2.66-.83-4.16-3.58-4.08-.5,0-.75.17-.75.67v4.91Z"/><path class="cls-1" d="M107.89,80.92v-4.5c0-.33-.08-.75.5-.75a37.66,37.66,0,0,1,6,.25,4.92,4.92,0,0,1,4.07,3.58,5.17,5.17,0,0,1-1.33,5.58,4.42,4.42,0,0,1-3.24,1.25c-1.75.08-3.58,0-5.33,0-.67,0-.75-.25-.75-.83C107.89,84,107.89,82.5,107.89,80.92Zm3.17,2.5c0,.25-.09.5.25.58a3.52,3.52,0,0,0,4-1.67c.83-2.74-.58-4.57-3.5-4.49-.49,0-.74.17-.74.66v4.92Z"/><path class="cls-1" d="M176.74,62.35V57.86c0-.58.17-.75.75-.75h5.08a3.29,3.29,0,0,1,3.16,2.16,2.75,2.75,0,0,1-1,3.42c-.33.25-.25.33,0,.58,1.08,1.08,1.42,2.5,2.08,3.83.17.33.09.5-.33.5h-2.41c-.42,0-.59-.25-.75-.58-.34-.67-.59-1.34-.92-2a3.91,3.91,0,0,0-.83-1.17,1.65,1.65,0,0,0-1.33-.33c-.42.17-.17.67-.25,1v2.16c0,.17.08.42,0,.5-.75.84-1.75.17-2.58.34-.59.08-.59-.25-.59-.67C176.74,65.43,176.74,63.85,176.74,62.35Zm4.08-.66c1.41-.08,1.83-.33,1.83-1.25s-.58-1.25-1.91-1.33c-1.17-.09-.59.75-.75,1.25C180.07,60.94,179.65,61.77,180.82,61.69Z"/><path class="cls-1" d="M175.91,108.72c1.5-.83,3.08-1.08,4.49,0s1.58,2.67,1.25,4.33a4.83,4.83,0,0,1-4.91,4.17,3.21,3.21,0,0,1-2.33-1.09,2.3,2.3,0,0,1-2.58.84c-.25-.25-.09-.59-.09-.84.42-3.16.92-6.32,1.34-9.49.08-.75.25-1.58.33-2.33.08-.58.25-.83.92-.83,2,0,2-.08,1.74,1.91-.16,1-.25,1.92-.41,2.92C175.57,108.47,175.41,108.72,175.91,108.72Zm-.34-.49c-.16.24-.25.49-.08.66s.25-.08.33-.25C175.66,108.64,175.66,108.39,175.57,108.23Zm1.67,2.24a2.36,2.36,0,0,0-2.5,2.5,1.71,1.71,0,0,0,1.83,1.83,2.41,2.41,0,0,0,2.42-2.58A1.59,1.59,0,0,0,177.24,110.47Z"/><path class="cls-1" d="M25.06,108.72c1.5-.83,3.08-1.08,4.49,0s1.59,2.67,1.25,4.33a5,5,0,0,1-2.58,3.58,4.16,4.16,0,0,1-4.74-.5c-.25.67-2.08,1.25-2.58.75-.25-.16-.09-.41-.09-.66.59-4.08,1.17-8.16,1.67-12.24.08-.42.16-.58.66-.58,2.17-.17,2.25-.17,1.92,2-.17.92-.25,1.92-.42,2.84C24.73,108.47,24.56,108.72,25.06,108.72Zm3.08,3.5a1.77,1.77,0,0,0-1.92-1.83A2.51,2.51,0,0,0,23.81,113a1.69,1.69,0,0,0,1.83,1.75A2.32,2.32,0,0,0,28.14,112.22Z"/><path class="cls-1" d="M43,67.6c1.5-3.5,2.91-6.83,4.58-10.16.5-1,2-.25,3-.41.42-.09.67,0,.92.5,1.33,3.16,2.75,6.24,4.16,9.4.25.59.08.67-.42.67a2.89,2.89,0,0,0-.83,0c-1.33.25-2.16-.17-2.41-1.5-.09-.5-.42-.58-.92-.58a15.2,15.2,0,0,1-1.91,0c-1.33-.17-2.33.08-2.58,1.58a.59.59,0,0,1-.67.5Zm5-3.91H50.2c.58,0,.67-.17.42-.67-.42-.92-.75-1.91-1.25-3.08C48.87,61.27,48.45,62.44,48,63.69Z"/><path class="cls-1" d="M108.06,57.11c1.16-.33,1.75.33,2.25,1.5,1.08,2.75,2.33,5.41,3.58,8.16.25.66.25,1-.5.83h-.59a1.79,1.79,0,0,1-2.41-1.5c-.08-.5-.42-.58-.92-.58a14,14,0,0,1-1.83,0c-1.33-.17-2.41,0-2.66,1.58a.63.63,0,0,1-.67.5h-2.25c-.58,0-.58-.25-.33-.58,1.42-3.17,2.83-6.25,4.16-9.41a.68.68,0,0,1,.84-.5Zm-.92,4.41c-.91,2.33-.91,2.33,1.58,2.08.42,0,.59-.08.42-.5-.42-1-.83-2.08-1.33-3.16C107.56,60.61,107.31,61,107.14,61.52Z"/><path class="cls-1" d="M69.76,67.6c1.34-3.08,2.75-6,3.92-9A2.17,2.17,0,0,1,76.09,57a2.33,2.33,0,0,1,2.66,1.74c1,2.67,2.25,5.25,3.42,7.83.41.92.16,1.08-.67,1h-.41c-1.25.25-2.17-.08-2.42-1.5-.08-.5-.41-.58-.91-.58a15.36,15.36,0,0,1-1.92,0c-1.33-.17-2.33.08-2.58,1.58a.58.58,0,0,1-.67.5Zm5.08-4.33a.29.29,0,0,0,0,.42h2.08c.67,0,.67-.17.42-.75-.42-.92-.75-1.92-1.25-3A29.29,29.29,0,0,1,74.84,63.27Z"/><path class="cls-1" d="M198.14,67.6c-1.09.33-1.84-.25-2.09-1.5-.08-.5-.41-.67-.91-.58a6.41,6.41,0,0,1-1.75,0c-1.42-.17-2.58-.09-2.83,1.66-.08.34-.33.42-.67.42h-2.16c-.5,0-.58-.08-.42-.58q2.13-4.75,4.25-9.49v-.09c1-.75,2.16-.16,3.25-.33.49-.08.66.25.74.58,1.34,3,2.59,6,4,8.91.42.92.25,1.08-.67,1Zm-5.83-4.5c-.17.42,0,.5.41.5h2.42c-.5-1.25-.92-2.33-1.5-3.74C193.14,61.19,192.72,62.19,192.31,63.1Z"/><path class="cls-1" d="M72.84,81V76.42c0-.5.17-.66.67-.66h4.91a3.64,3.64,0,0,1,3.41,2.16,3.23,3.23,0,0,1-2.66,4.33,18.79,18.79,0,0,1-2.16.08c-.75-.08-1.09.17-1,.92a22.64,22.64,0,0,1,0,2.33c0,.5-.17.67-.75.67-2.5.08-2.5.08-2.5-2.42C72.84,83,72.84,82,72.84,81Zm4.08-.75c1.34-.08,1.75-.33,1.83-1.16s-.58-1.25-1.83-1.33c-1.08-.09-.83.58-.83,1.16S75.76,80.34,76.92,80.25Z"/><path class="cls-1" d="M141.86,117.13c-3.08,0-4.91-2.58-3.75-5.66a5.61,5.61,0,0,1,7.33-3.08c2.41,1.08,2.91,4.5.91,6.83A5.07,5.07,0,0,1,141.86,117.13Zm.5-2.33a2.58,2.58,0,0,0,2.58-2.5,1.75,1.75,0,0,0-1.83-1.83,2.34,2.34,0,0,0-2.42,2.5A1.55,1.55,0,0,0,142.36,114.8Z"/><path class="cls-1" d="M104.4,113.3c-.09-4,4.32-6.41,7.82-4.74,1.92.91,2.5,3.41,1.42,5.58a5.69,5.69,0,0,1-7.08,2.66A3.5,3.5,0,0,1,104.4,113.3Zm5.16-2.91a2.44,2.44,0,0,0-2.42,2.5,1.75,1.75,0,0,0,1.75,1.91,2.45,2.45,0,0,0,2.5-2.5A1.77,1.77,0,0,0,109.56,110.39Z"/><path class="cls-1" d="M222.28,113.47h-2.42c-.75,0-.75.33-.41.83a2,2,0,0,0,2.91.34c.25-.17.5-.67.83-.5a10,10,0,0,1,1.42,1.16c.17.17-.08.33-.25.5a5.26,5.26,0,0,1-6.33.58c-1.58-1.08-1.91-3.58-.91-5.57a5.65,5.65,0,0,1,5.91-2.75c2,.41,3.24,3.16,2.41,5.08-.17.33-.42.25-.66.33Zm0-1.91c.75,0,.66-.34.5-.84a1.3,1.3,0,0,0-1.42-.75,2.2,2.2,0,0,0-1.91,1.59Z"/><path class="cls-1" d="M71.43,113.47H69c-.74,0-.74.33-.41.83a2.06,2.06,0,0,0,2.91.34c.25-.17.42-.67.83-.42a10,10,0,0,1,1.42,1.16c.17.17-.17.34-.25.5a5.25,5.25,0,0,1-6.41.42,4.28,4.28,0,0,1-1.17-4.5,5.5,5.5,0,0,1,6.33-3.74c2,.5,3.33,3.41,2.33,5.16a.61.61,0,0,1-.58.25Zm-2.5-1.91H71.1c.33,0,.83.24.91-.25a1.09,1.09,0,0,0-.75-1.17c-1-.42-2,.17-2.58,1.42Z"/></svg>