<svg id="Layer_1" data-name="Layer 1" xmlns="http://www.w3.org/2000/svg" viewBox="0 0 80 80"><defs><style>.cls-1{fill:#9a5c8e;}</style></defs><title>woocommerce</title><path class="cls-1" d="M73,16.23l1.26.29A7.29,7.29,0,0,1,80,23.31v.79l0,24.15a7.41,7.41,0,0,1-3.42,6.63,7.15,7.15,0,0,1-4,1.16l-22.49,0h-1l3.13,7.7-3.12-1.72c-3.38-1.87-6.75-3.75-10.12-5.6a3.09,3.09,0,0,0-1.36-.35l-30.06,0A7.41,7.41,0,0,1,.12,50,7,7,0,0,1,0,48.63c0-8.27,0-16.54,0-24.81a7.42,7.42,0,0,1,5.87-7.25c.36-.07.72-.16,1.08-.24l66-.1ZM20.7,37.62c.08.26.12.36.15.46a38.17,38.17,0,0,0,4.21,9.59A15.15,15.15,0,0,0,28.69,52c1.74,1.3,3.64.53,4.09-1.59a4.79,4.79,0,0,0,0-.85c0-1.64-.11-3.29,0-4.93.25-2.89.58-5.78,1-8.65.59-3.9,1.28-7.72,3.08-11.28a2.72,2.72,0,0,0-.68-3.35,2.86,2.86,0,0,0-4,.09,2.73,2.73,0,0,0-.54.81,40.18,40.18,0,0,0-3.48,12.05c-.28,1.73-.48,3.47-.72,5.19l-.22,0C26.53,36.75,25.77,34,25,31.23c-.31-1.16-.45-2.37-.85-3.5a2.36,2.36,0,0,0-2.9-1.62,2.3,2.3,0,0,0-1,.57,4.6,4.6,0,0,0-1.09,1.39q-2.75,5.22-5.42,10.43l-1.56,3a2.54,2.54,0,0,1-.16-.38Q10.52,33,9,24.86c-.19-1-.29-2-1.31-2.53a3.14,3.14,0,0,0-3.31.17,2.69,2.69,0,0,0-1.14,2.88C4,29.8,4.75,34.21,5.61,38.61a71.42,71.42,0,0,0,2.9,11.13A9,9,0,0,0,9.7,51.91a1.52,1.52,0,0,0,2.09.46l.07,0a6,6,0,0,0,1.79-1.6,52.93,52.93,0,0,0,2.94-4.9C18,43.17,19.3,40.44,20.7,37.62ZM45.14,49a8.19,8.19,0,0,0,6.94-3.65,17.31,17.31,0,0,0,3.4-9.42,15.07,15.07,0,0,0-.83-6.35,8.23,8.23,0,0,0-13.88-2.77,16.3,16.3,0,0,0-3.4,16.72A7.77,7.77,0,0,0,45.14,49ZM57,38.85a12.88,12.88,0,0,0,.83,4.47,8.29,8.29,0,0,0,10.5,5.21A8.18,8.18,0,0,0,71.05,47a13.71,13.71,0,0,0,3.34-4.67,17.54,17.54,0,0,0,1.55-9.91,10.35,10.35,0,0,0-2.54-5.84,8.31,8.31,0,0,0-12.55.63A17.66,17.66,0,0,0,57,38.85Z"/><path class="cls-1" d="M49.78,35.81a9.43,9.43,0,0,1-2.15,5.7,5.85,5.85,0,0,1-1.39,1.19,2,2,0,0,1-3.07-.78,7.93,7.93,0,0,1-1-4.93,10.35,10.35,0,0,1,2.29-5.64,5.24,5.24,0,0,1,1.36-1.21,1.94,1.94,0,0,1,2.71.49.86.86,0,0,1,.1.16A8.27,8.27,0,0,1,49.78,35.81Z"/><path class="cls-1" d="M70.36,34.42c-.06,2.9-.55,5.1-2.06,6.92a6.43,6.43,0,0,1-1.76,1.44,1.84,1.84,0,0,1-2.58-.5,1.76,1.76,0,0,1-.14-.23,8.09,8.09,0,0,1-1.08-5.22,10.72,10.72,0,0,1,2.38-5.67,5.1,5.1,0,0,1,1-.89,2.07,2.07,0,0,1,2.91.21,2.57,2.57,0,0,1,.29.44A7,7,0,0,1,70.36,34.42Z"/></svg>