<svg width="150" height="120" viewBox="0 0 150 120" fill="none" xmlns="http://www.w3.org/2000/svg">
<path d="M4.17732 62.6232V75.6057H10.6567V71.4285L18.94 71.4048C18.9874 71.4048 21.1947 71.1912 22.1678 70.5978C23.3545 69.8621 23.4969 69.0314 23.4969 67.9633V65.8273C23.4969 64.783 23.2596 63.9997 22.1204 63.264C21.1473 62.6232 19.8419 62.5994 18.2992 62.5994H4.17732V62.6232ZM10.633 66.1358H16.9463V68.3906H10.633V66.1358V66.1358ZM44.478 63.4776C43.2438 62.7418 42.0333 62.5757 40.3007 62.5757H32.5634C30.6409 62.5757 29.0507 62.7656 27.8403 63.4301C26.4162 64.2133 26.1552 65.2577 26.1552 66.563V71.7133C26.1552 72.6864 26.1789 73.5171 26.9147 74.2054C28.1963 75.4159 30.6409 75.6532 33.2517 75.6532H40.3245C42.0333 75.6532 43.315 75.582 44.5254 74.8225C45.8545 74.0156 45.9257 73.1137 45.9257 71.9507V66.4681C45.9257 65.2576 45.8545 64.332 44.478 63.4776ZM32.4685 66.1833H39.5412V72.1406H32.4685V66.1833ZM55.4669 62.6706L55.4906 72.1406H65.459V75.6532H48.8925V62.6469L55.4669 62.6706ZM74.0745 62.5994C72.2232 62.5994 70.4669 62.7893 69.4938 63.4301C68.5444 64.0709 68.1172 64.6406 68.1172 65.495V75.6532H74.4067V70.5504H81.171V75.6532H87.7454V66.1595C87.7454 65.0203 87.508 64.1659 86.2026 63.4301C85.0634 62.7656 83.9954 62.6232 82.5001 62.6232H74.0745V62.5994ZM74.4305 66.207H81.1235V67.7497H74.4305V66.207ZM90.6172 62.6706L90.5697 75.6532L96.9542 75.677V70.7402H103.386L103.434 75.7007L109.913 75.6532V71.8795C109.913 71.12 109.652 70.6928 109.059 70.0519C108.584 69.5535 108.062 69.3874 107.231 69.1975C107.279 69.1738 108.347 68.8178 108.845 68.438C109.462 67.9633 109.794 67.5836 109.794 66.9428V65.2102C109.794 64.4032 109.225 63.8099 108.394 63.3114C107.421 62.6944 106.163 62.6706 104.644 62.6706H90.6172ZM96.9779 66.1833H103.362V67.7497H96.9779V66.1833ZM121.804 75.6532H115.277V62.5994H121.804V75.6532ZM146.464 70.7877V72.7339C146.464 73.6595 146.084 74.3241 145.016 74.9649C144.043 75.5108 142.761 75.677 141.218 75.677H127.168V72.0694H140.127V70.6453H132.461C131.013 70.6453 129.874 70.6453 128.734 70.0519C127.571 69.4111 127.192 68.7228 127.192 67.726V65.5899C127.192 64.5931 127.5 63.8336 128.639 63.1928C129.779 62.6232 130.87 62.6232 132.366 62.6232H145.23V66.2307H133.481V67.5361H140.578C142.524 67.5361 144.351 67.5599 145.443 68.4618C146.321 69.1975 146.464 69.8621 146.464 70.7877ZM4.48586 79.6168H4.03491C4.10611 79.2845 4.17732 78.9285 4.22479 78.5488C5.90991 78.5725 7.12036 78.5725 7.85612 78.5725C8.44947 78.5725 9.54124 78.5725 11.1314 78.5488C11.1789 78.9523 11.2501 79.3083 11.2976 79.6168H10.8704C10.6805 79.2845 10.5618 79.0709 10.5143 79.0235C10.4669 78.976 10.3719 78.9285 10.277 78.9048C10.1821 78.8811 9.92099 78.8573 9.49377 78.8573H8.21213C8.18839 79.3557 8.16466 79.9491 8.16466 80.6849C8.16466 81.3494 8.18839 81.8004 8.21213 82.0377C8.21213 82.0852 8.2596 82.1326 8.30707 82.1564C8.37827 82.1801 8.68681 82.2276 9.25643 82.2751C9.3039 82.2751 9.39884 82.2751 9.49377 82.2988V82.4649C8.73428 82.4412 8.06972 82.4412 7.47637 82.4412C6.90675 82.4412 6.33713 82.4412 5.74377 82.4649V82.2988C5.88618 82.2751 5.98112 82.2751 6.05232 82.2751C6.57447 82.2276 6.88301 82.2038 6.95422 82.1564C6.97795 82.1326 7.02542 82.1326 7.02542 82.0852C7.04915 82.0614 7.04915 81.8478 7.07289 81.4681C7.09662 80.8747 7.09662 80.4475 7.09662 80.1627C7.09662 79.6643 7.09662 79.2371 7.07289 78.8573H5.69631H5.45896C5.24536 78.8573 5.10295 78.8811 5.03175 78.8811C4.91308 78.9048 4.81814 78.976 4.74694 79.0709C4.7232 79.1659 4.62827 79.3558 4.48586 79.6168ZM11.7485 78.7149V78.5488C12.7691 78.5725 13.5761 78.5725 14.1931 78.5725C14.5492 78.5725 14.8814 78.5725 15.19 78.5725C15.5935 78.5725 15.8783 78.5725 16.0444 78.5725C16.7802 78.5725 17.3498 78.6675 17.7295 78.8336C18.1093 78.9997 18.2992 79.2371 18.2992 79.5219C18.2992 79.7118 18.2042 79.9016 18.0381 80.044C17.8719 80.1864 17.6109 80.3289 17.3023 80.4238C17.065 80.495 16.7327 80.5662 16.3055 80.6137L18.228 81.8004C18.4653 81.9428 18.6077 82.0377 18.6789 82.0614C18.7738 82.1089 18.8925 82.1326 19.0586 82.1564C19.2723 82.2038 19.6283 82.2513 20.1504 82.2988V82.4649C19.5571 82.4412 19.1061 82.4412 18.8213 82.4412C18.5128 82.4412 18.1805 82.4412 17.8482 82.4649C17.6821 82.3225 17.4447 82.1564 17.1599 81.9428C16.8751 81.7292 16.6852 81.6105 16.614 81.563C16.5666 81.5393 16.5428 81.5156 16.4954 81.4918L15.2374 80.6611C14.9052 80.6611 14.5492 80.6374 14.1931 80.6137L14.2406 82.014C14.2406 82.0614 14.2881 82.1089 14.3355 82.1326C14.4305 82.1801 14.7153 82.2038 15.19 82.2513C15.2612 82.2513 15.3561 82.2751 15.4985 82.2751V82.4412C14.8102 82.4175 14.1931 82.4175 13.671 82.4175C13.1014 82.4175 12.4605 82.4175 11.7723 82.4412V82.2988L12.0096 82.2751C12.5555 82.2276 12.864 82.1801 12.9352 82.1564C13.0064 82.1326 13.0539 82.0614 13.0539 81.9902C13.0539 81.9428 13.0776 81.4681 13.0776 80.5662L13.0539 79.2608C13.0539 79.0709 13.0302 78.9523 13.0302 78.9285C13.0064 78.9048 12.9827 78.8811 12.9115 78.8573C12.7216 78.8099 12.4368 78.7624 12.0096 78.7387C11.9621 78.7387 11.8672 78.7149 11.7485 78.7149ZM14.1457 80.4001C14.5492 80.4238 14.8577 80.4238 15.0713 80.4238C15.7596 80.4238 16.2817 80.3526 16.614 80.2102C16.9463 80.0678 17.1124 79.8542 17.1124 79.5931C17.1124 79.3558 16.97 79.1659 16.6615 79.0472C16.3767 78.9048 15.9257 78.8336 15.3561 78.8336C15.1425 78.8336 14.7628 78.8573 14.1457 78.8573V80.4001ZM24.2802 78.4776H24.6362C25.1583 79.1184 25.7992 79.8304 26.5349 80.6611L27.864 82.0614C27.9352 82.1089 27.9827 82.1564 28.0776 82.1801C28.1251 82.2038 28.4099 82.2513 28.9321 82.3225V82.4887C28.2438 82.4649 27.7216 82.4649 27.3893 82.4649C27.0571 82.4649 26.4874 82.4649 25.6805 82.4887V82.2988C26.1314 82.2513 26.4162 82.2276 26.4874 82.1801C26.5586 82.1564 26.6061 82.1089 26.6061 82.0852C26.6061 82.0377 26.5586 81.9902 26.4874 81.8953L25.8941 81.2307C25.0871 81.2307 24.4938 81.2307 24.114 81.2307H22.5476L21.9542 81.919C21.8593 82.0377 21.8118 82.1089 21.8118 82.1326C21.8118 82.1564 21.8355 82.1801 21.883 82.2039C21.9305 82.2276 22.1441 82.2513 22.5476 82.2988C22.595 82.2988 22.6425 82.3225 22.7137 82.3225V82.4887C22.0492 82.4649 21.5982 82.4649 21.3371 82.4649C21.0049 82.4649 20.5539 82.4649 20.0317 82.4887V82.2988C20.3878 82.2513 20.6251 82.2276 20.7438 82.1801C20.8387 82.1326 20.9336 82.0852 21.0523 82.014C21.2659 81.8241 21.8355 81.2545 22.7137 80.2576L24.2802 78.4776ZM22.7612 80.9459C23.2833 80.9459 23.6631 80.9459 23.9004 80.9459C23.9716 80.9459 24.565 80.9459 25.6567 80.9459L24.209 79.2845L22.7612 80.9459ZM29.027 78.7149V78.5488C29.5017 78.5725 29.8814 78.5725 30.1662 78.5725C30.4036 78.5725 30.7833 78.5725 31.3767 78.5488L33.0143 79.5219C33.1567 79.6168 34.3197 80.2814 36.4795 81.5393C36.4795 81.2782 36.4795 81.0883 36.4795 80.9697C36.4795 80.6849 36.4558 80.1864 36.4321 79.4744C36.4083 79.1421 36.4083 78.9523 36.3846 78.9285C36.3609 78.9048 36.3134 78.8811 36.2422 78.8573C36.171 78.8336 35.9099 78.8099 35.4352 78.7624C35.364 78.7624 35.2928 78.7387 35.1742 78.7387V78.5725C35.8624 78.5963 36.3846 78.5963 36.7881 78.5963C37.1678 78.5963 37.7137 78.5963 38.402 78.5725V78.7387C38.3071 78.7624 38.2121 78.7624 38.1647 78.7624C37.6425 78.8099 37.3577 78.8573 37.3102 78.8573C37.2628 78.8811 37.239 78.8811 37.2153 78.9048C37.1678 78.9285 37.1441 78.9997 37.1441 79.0709C37.1441 79.1184 37.1204 79.3558 37.1204 79.8304C37.1204 80.3051 37.0966 80.7561 37.0966 81.1833C37.0966 81.7054 37.1204 82.1326 37.1441 82.4887L36.7881 82.5361L34.3909 81.1121L31.258 79.2845L31.2817 80.9222C31.3055 81.6342 31.3292 82.014 31.353 82.0614C31.3767 82.0852 31.4004 82.1326 31.4479 82.1564C31.5428 82.2038 31.8276 82.2276 32.3023 82.2751C32.3498 82.2751 32.4447 82.2988 32.5634 82.2988V82.4649C31.97 82.4412 31.4716 82.4412 31.0919 82.4412C30.7596 82.4412 30.1662 82.4412 29.3355 82.4649V82.2988C29.478 82.2751 29.5729 82.2751 29.6441 82.2751C30.095 82.2276 30.3798 82.2038 30.4511 82.1564C30.4985 82.1326 30.5223 82.1089 30.546 82.0614C30.5935 81.9665 30.6172 81.658 30.6172 81.1121C30.6409 80.3288 30.6409 79.8542 30.6409 79.7118C30.6409 79.2608 30.6172 78.9997 30.5935 78.9523C30.5697 78.9048 30.5223 78.8811 30.4511 78.8573C30.3561 78.8336 30.0001 78.7861 29.3593 78.7387C29.2881 78.7387 29.1694 78.7149 29.027 78.7149ZM44.0745 79.5931H43.6473C43.5523 79.3558 43.4336 79.1896 43.315 79.0709C43.1963 78.9523 43.0064 78.8811 42.7454 78.8099C42.4843 78.7387 42.1995 78.7149 41.8672 78.7149C41.4162 78.7149 41.0602 78.7861 40.7754 78.9048C40.5143 79.0235 40.3719 79.1659 40.3719 79.3558C40.3719 79.5219 40.4906 79.6406 40.7042 79.7592C40.9178 79.8779 41.4637 80.0203 42.2944 80.1864C43.1488 80.3526 43.7185 80.5425 44.027 80.7323C44.3355 80.9222 44.478 81.1358 44.478 81.3732C44.478 81.5868 44.3593 81.7766 44.1457 81.9665C43.9083 82.1564 43.5761 82.2988 43.1251 82.3937C42.6742 82.5124 42.1757 82.5599 41.6536 82.5599C41.2976 82.5599 40.9416 82.5361 40.5618 82.5124C40.2058 82.4887 39.7548 82.4175 39.2564 82.3463C39.3039 82.0852 39.3514 81.7292 39.3514 81.3019H39.8023C39.921 81.5868 40.0634 81.7766 40.2058 81.8716C40.3482 81.9902 40.5381 82.0614 40.8229 82.1326C41.1077 82.2038 41.3925 82.2276 41.7248 82.2276C42.1757 82.2276 42.5792 82.1564 42.9115 82.0377C43.2438 81.919 43.4336 81.7529 43.4336 81.5156C43.4336 81.3257 43.315 81.1833 43.0776 81.0409C42.8403 80.8985 42.2944 80.7561 41.4637 80.5899C40.633 80.4238 40.0871 80.2577 39.8023 80.0915C39.5175 79.9254 39.3751 79.7592 39.3751 79.5219C39.3751 79.332 39.4938 79.1421 39.7074 78.976C39.9447 78.8099 40.277 78.6675 40.7042 78.5725C41.1314 78.4776 41.6061 78.4301 42.0571 78.4301C42.6267 78.4301 43.315 78.5013 44.1219 78.62C44.0982 78.8811 44.0982 79.0472 44.0982 79.1184C44.027 79.2608 44.0507 79.4032 44.0745 79.5931ZM45.3324 78.7149V78.5488C45.8308 78.5725 46.4479 78.5725 47.2311 78.5725H49.5096C50.3403 78.5725 50.9574 78.6675 51.3609 78.8336C51.7406 78.9997 51.9305 79.2371 51.9305 79.5456C51.9305 79.8779 51.6694 80.1864 51.1473 80.4001C50.6251 80.6374 49.9131 80.7561 48.9874 80.7561C48.6314 80.7561 48.2279 80.7323 47.7295 80.6849C47.7295 80.9697 47.7295 81.1833 47.7295 81.3019C47.7295 81.7766 47.7533 82.0377 47.777 82.1089C47.8007 82.1327 47.8245 82.1564 47.8957 82.1801C47.9906 82.2038 48.3704 82.2513 48.9637 82.2988C49.0112 82.2988 49.1061 82.2988 49.2011 82.3225V82.4887C48.4653 82.4649 47.8007 82.4649 47.1599 82.4649C46.5666 82.4649 45.9495 82.4649 45.3324 82.4887V82.2988C45.4748 82.2751 45.5935 82.275 45.6647 82.2513C46.1631 82.2038 46.4479 82.1564 46.5191 82.1326C46.614 82.0852 46.6615 81.9902 46.6615 81.8004L46.6852 80.4713V79.1421V79.0709C46.6852 78.9523 46.6378 78.8811 46.5666 78.8336C46.4954 78.8099 46.1868 78.7624 45.6409 78.6912C45.5697 78.7387 45.4748 78.7149 45.3324 78.7149ZM47.7533 80.4238C48.1567 80.4713 48.5128 80.495 48.7976 80.495C49.4147 80.495 49.9131 80.4238 50.2454 80.2576C50.5776 80.0915 50.7675 79.8779 50.7675 79.6168C50.7675 79.3558 50.6014 79.1659 50.2928 79.0235C49.9843 78.8811 49.4859 78.8099 48.845 78.8099C48.5602 78.8099 48.2042 78.8336 47.8007 78.8573C47.7533 79.427 47.7533 79.9491 47.7533 80.4238ZM52.8561 80.5187C52.8561 79.9254 53.2596 79.427 54.0666 79.0235C54.8735 78.6437 55.9178 78.4538 57.1757 78.4538C58.3624 78.4538 59.2881 78.62 60.0001 78.976C60.7121 79.332 61.0444 79.783 61.0444 80.4001C61.0444 81.0646 60.6409 81.5868 59.8577 81.9665C59.0745 82.3463 58.0302 82.5361 56.7485 82.5361C55.5381 82.5361 54.5887 82.37 53.8767 82.014C53.2121 81.658 52.8561 81.1833 52.8561 80.5187ZM54.114 80.4475C54.114 81.0646 54.3988 81.5156 54.9447 81.8241C55.4906 82.1326 56.2026 82.2751 57.0333 82.2751C57.6029 82.2751 58.0776 82.2038 58.5286 82.0614C58.9558 81.919 59.2881 81.7054 59.5017 81.4444C59.7153 81.1833 59.834 80.8747 59.834 80.5425C59.834 80.139 59.6916 79.783 59.4067 79.4982C59.1219 79.2133 58.7659 79.0235 58.3624 78.9048C57.9352 78.7861 57.4843 78.7149 56.9621 78.7149C56.3925 78.7149 55.8704 78.7861 55.4194 78.9285C54.9685 79.0709 54.6362 79.2845 54.4226 79.5456C54.2327 79.8304 54.114 80.139 54.114 80.4475ZM61.8514 78.7149V78.5488C62.8719 78.5725 63.6789 78.5725 64.296 78.5725C64.652 78.5725 64.9843 78.5725 65.2928 78.5725C65.6963 78.5725 65.9811 78.5725 66.1473 78.5725C66.883 78.5725 67.4526 78.6675 67.8324 78.8336C68.2121 78.9997 68.402 79.2371 68.402 79.5219C68.402 79.7118 68.3071 79.9016 68.1409 80.044C67.9748 80.1864 67.7137 80.3289 67.4052 80.4238C67.1678 80.495 66.8355 80.5662 66.4083 80.6137L68.3308 81.8004C68.5681 81.9428 68.7105 82.0377 68.7817 82.0614C68.8767 82.1089 68.9954 82.1326 69.1615 82.1564C69.3751 82.2038 69.7311 82.2513 70.2533 82.2988V82.4649C69.6599 82.4412 69.209 82.4412 68.9242 82.4412C68.6156 82.4412 68.2833 82.4412 67.951 82.4649C67.7849 82.3225 67.5476 82.1564 67.239 81.9428C66.9542 81.7292 66.7643 81.6105 66.6931 81.563C66.6457 81.5393 66.6219 81.5156 66.5745 81.4918L65.3166 80.6611C64.9843 80.6611 64.6283 80.6374 64.2723 80.6137L64.3197 82.014C64.3197 82.0614 64.3672 82.1089 64.4147 82.1326C64.5096 82.1801 64.7944 82.2038 65.2691 82.2513C65.3403 82.2513 65.4352 82.2751 65.5776 82.2751V82.4412C64.8893 82.4175 64.2723 82.4175 63.7501 82.4175C63.1805 82.4175 62.5397 82.4175 61.8514 82.4412V82.2988L62.0887 82.2751C62.6346 82.2276 62.9431 82.1801 63.0143 82.1564C63.0855 82.1326 63.133 82.0614 63.133 81.9902C63.133 81.9428 63.1567 81.4681 63.1567 80.5662L63.133 79.2608C63.133 79.0709 63.1093 78.9523 63.1093 78.9285C63.0855 78.9048 63.0618 78.8811 62.9906 78.8573C62.8007 78.8099 62.5159 78.7624 62.0887 78.7387C62.065 78.7387 61.97 78.7149 61.8514 78.7149ZM64.2485 80.4001C64.652 80.4238 64.9605 80.4238 65.1742 80.4238C65.8624 80.4238 66.3846 80.3526 66.7169 80.2102C67.0492 80.0678 67.2153 79.8542 67.2153 79.5931C67.2153 79.3558 67.0729 79.1659 66.7643 79.0472C66.4795 78.9048 66.0286 78.8336 65.459 78.8336C65.2453 78.8336 64.8656 78.8573 64.2485 78.8573V80.4001ZM70.2533 79.6168H69.8023C69.8735 79.2845 69.9447 78.9285 69.9922 78.5488C71.6773 78.5725 72.8878 78.5725 73.6235 78.5725C74.2169 78.5725 75.3086 78.5725 76.8988 78.5488C76.9463 78.9523 77.0175 79.3083 77.065 79.6168H76.6378C76.4479 79.2845 76.353 79.0709 76.2818 79.0235C76.2343 78.976 76.1393 78.9285 76.0444 78.9048C75.9495 78.8811 75.6884 78.8573 75.2612 78.8573H73.9795C73.9558 79.3557 73.9321 79.9491 73.9321 80.6849C73.9321 81.3494 73.9558 81.8004 73.9795 82.0377C73.9795 82.0852 74.027 82.1326 74.0745 82.1564C74.1457 82.1801 74.4542 82.2276 75.0238 82.2751C75.0713 82.2751 75.1662 82.2751 75.2612 82.2988V82.4649C74.5017 82.4412 73.8371 82.4412 73.2438 82.4412C72.6742 82.4412 72.1045 82.4412 71.5112 82.4649V82.2988C71.6536 82.2751 71.7485 82.2751 71.8197 82.2751C72.3419 82.2276 72.6504 82.2038 72.7216 82.1564C72.7454 82.1326 72.7928 82.1326 72.7928 82.0852C72.8166 82.0614 72.8166 81.8478 72.8403 81.4681C72.864 80.8747 72.864 80.4475 72.864 80.1627C72.864 79.6643 72.864 79.2371 72.8403 78.8573H71.4637H71.2264C71.0128 78.8573 70.8703 78.8811 70.7991 78.8811C70.6805 78.9048 70.5855 78.976 70.5143 79.0709C70.4906 79.1659 70.3957 79.3558 70.2533 79.6168ZM81.076 78.4776H81.4321C81.9542 79.1184 82.595 79.8304 83.3308 80.6611L84.6599 82.0614C84.7311 82.1089 84.7786 82.1564 84.8735 82.1801C84.921 82.2038 85.2058 82.2513 85.7042 82.3225V82.4887C85.0159 82.4649 84.4938 82.4649 84.1615 82.4649C83.8292 82.4649 83.2596 82.4649 82.4289 82.4887V82.2988C82.8798 82.2513 83.1647 82.2276 83.2359 82.1801C83.3071 82.1564 83.3545 82.1089 83.3545 82.0852C83.3545 82.0377 83.3071 81.9902 83.2359 81.8953L82.6425 81.2307C81.8355 81.2307 81.2422 81.2307 80.8624 81.2307H79.296L78.7026 81.919C78.6077 82.0377 78.5602 82.1089 78.5602 82.1326C78.5602 82.1564 78.584 82.1801 78.6314 82.2039C78.6789 82.2276 78.8925 82.2513 79.296 82.2988C79.3435 82.2988 79.3909 82.3225 79.4621 82.3225V82.4887C78.7976 82.4649 78.3466 82.4649 78.0855 82.4649C77.7533 82.4649 77.3023 82.4649 76.7802 82.4887V82.2988C77.1362 82.2513 77.3735 82.2276 77.4922 82.1801C77.5871 82.1326 77.6821 82.0852 77.8007 82.014C78.0143 81.8241 78.584 81.2545 79.4621 80.2576L81.076 78.4776ZM79.5571 80.9459C80.0792 80.9459 80.459 80.9459 80.6963 80.9459C80.7675 80.9459 81.3609 80.9459 82.4526 80.9459L81.0048 79.2845L79.5571 80.9459ZM85.6805 79.6168H85.2295C85.3007 79.2845 85.3719 78.9285 85.4194 78.5488C87.1045 78.5725 88.315 78.5725 89.0507 78.5725C89.6441 78.5725 90.7359 78.5725 92.326 78.5488C92.3735 78.9523 92.421 79.3083 92.4922 79.6168H92.065C91.8988 79.2845 91.7802 79.0709 91.709 79.0235C91.6615 78.976 91.5903 78.9285 91.4716 78.9048C91.3767 78.8811 91.1156 78.8573 90.7121 78.8573H89.4305C89.4067 79.3557 89.383 79.9491 89.383 80.6849C89.383 81.3494 89.4067 81.8004 89.4305 82.0377C89.4305 82.0852 89.4779 82.1326 89.5254 82.1564C89.5966 82.1801 89.9052 82.2276 90.4748 82.2751C90.5223 82.2751 90.6172 82.2751 90.7121 82.2988V82.4649C89.9526 82.4412 89.2881 82.4412 88.6947 82.4412C88.1251 82.4412 87.5555 82.4412 86.9621 82.4649V82.2988C87.1045 82.2751 87.1995 82.2751 87.2707 82.2751C87.7928 82.2276 88.1014 82.2038 88.1726 82.1564C88.22 82.1326 88.2438 82.1326 88.2438 82.0852C88.2675 82.0614 88.2675 81.8478 88.2912 81.4681C88.315 80.8747 88.315 80.4475 88.315 80.1627C88.315 79.6643 88.315 79.2371 88.2912 78.8573H86.9147H86.6773C86.4637 78.8573 86.3213 78.8811 86.2501 78.8811C86.1552 78.9048 86.0365 78.976 85.9653 79.0709C85.9178 79.1659 85.8229 79.3558 85.6805 79.6168ZM96.7169 78.5488V78.7149C96.5745 78.7387 96.4795 78.7387 96.4083 78.7387C95.9099 78.7861 95.6014 78.8099 95.5302 78.8573C95.459 78.9048 95.4115 78.976 95.4115 79.1184V79.2133L95.3878 80.3289L95.4115 81.9428C95.4115 82.0614 95.459 82.1564 95.5302 82.1801C95.6014 82.2038 95.8862 82.2513 96.3371 82.2751C96.4321 82.2751 96.5507 82.2988 96.7169 82.2988V82.4649C96.0998 82.4412 95.5064 82.4412 94.9368 82.4412C94.3435 82.4412 93.7026 82.4412 92.9906 82.4649V82.2988C93.1093 82.2751 93.1805 82.2751 93.2517 82.2751C93.7976 82.2276 94.1061 82.2038 94.1773 82.1564C94.2485 82.1326 94.296 82.0377 94.296 81.8953V81.7529L94.3197 80.7323C94.3197 79.688 94.3197 79.1184 94.296 78.9997C94.296 78.9285 94.2485 78.8811 94.1773 78.8573C94.1061 78.8336 93.8213 78.7861 93.2992 78.7387C93.2279 78.7387 93.133 78.7149 92.9906 78.7149V78.5488C93.8213 78.5725 94.4859 78.5725 94.9368 78.5725C95.4827 78.5725 96.076 78.5725 96.7169 78.5488ZM97.5476 80.5187C97.5476 79.9254 97.951 79.427 98.758 79.0235C99.565 78.6437 100.609 78.4538 101.867 78.4538C103.054 78.4538 104.003 78.62 104.692 78.976C105.38 79.3083 105.736 79.783 105.736 80.4001C105.736 81.0646 105.332 81.5868 104.549 81.9665C103.766 82.3463 102.722 82.5361 101.44 82.5361C100.23 82.5361 99.2802 82.37 98.5681 82.014C97.9036 81.658 97.5476 81.1833 97.5476 80.5187ZM98.8055 80.4475C98.8055 81.0646 99.0903 81.5156 99.6362 81.8241C100.182 82.1326 100.894 82.2751 101.725 82.2751C102.294 82.2751 102.769 82.2038 103.22 82.0614C103.647 81.919 103.98 81.7054 104.193 81.4444C104.407 81.1833 104.525 80.8747 104.525 80.5425C104.525 80.139 104.383 79.783 104.098 79.4982C103.813 79.2133 103.457 79.0235 103.054 78.9048C102.627 78.7861 102.176 78.7149 101.654 78.7149C101.084 78.7149 100.562 78.7861 100.111 78.9285C99.6599 79.0709 99.3276 79.2845 99.114 79.5456C98.9241 79.8304 98.8055 80.139 98.8055 80.4475ZM106.305 78.7149V78.5488C106.78 78.5725 107.16 78.5725 107.445 78.5725C107.682 78.5725 108.062 78.5725 108.655 78.5488L110.293 79.5219C110.435 79.6168 111.598 80.2814 113.758 81.5393C113.758 81.2782 113.758 81.0883 113.758 80.9697C113.758 80.6849 113.734 80.1864 113.711 79.4744C113.687 79.1421 113.663 78.9523 113.663 78.9285C113.639 78.9048 113.592 78.8811 113.521 78.8573C113.449 78.8336 113.188 78.8099 112.714 78.7624C112.643 78.7624 112.571 78.7387 112.453 78.7387V78.5725C113.141 78.5963 113.663 78.5963 114.067 78.5963C114.446 78.5963 114.992 78.5963 115.68 78.5725V78.7387C115.586 78.7624 115.491 78.7624 115.443 78.7624C114.921 78.8099 114.636 78.8573 114.589 78.8573C114.541 78.8811 114.518 78.8811 114.494 78.9048C114.446 78.9285 114.423 78.9997 114.423 79.0709C114.423 79.1184 114.423 79.3558 114.399 79.8304C114.375 80.3051 114.375 80.7561 114.375 81.1833C114.375 81.7054 114.399 82.1326 114.423 82.4887L114.043 82.5599L111.646 81.1358L108.513 79.3083L108.536 80.9459C108.56 81.658 108.584 82.0377 108.608 82.0852C108.631 82.1089 108.655 82.1564 108.703 82.1801C108.798 82.2276 109.082 82.2513 109.557 82.2988C109.605 82.2988 109.699 82.3225 109.818 82.3225V82.4887C109.225 82.4649 108.75 82.4649 108.347 82.4649C108.014 82.4649 107.421 82.4649 106.59 82.4887V82.2988C106.733 82.2751 106.828 82.2751 106.899 82.2751C107.35 82.2276 107.635 82.2038 107.706 82.1564C107.753 82.1326 107.777 82.1089 107.801 82.0614C107.848 81.9665 107.872 81.658 107.872 81.1121C107.896 80.3288 107.896 79.8542 107.896 79.7118C107.896 79.2608 107.872 78.9997 107.848 78.9523C107.824 78.9048 107.777 78.8811 107.706 78.8573C107.611 78.8336 107.255 78.7861 106.614 78.7387C106.543 78.7387 106.448 78.7149 106.305 78.7149ZM126.029 79.8067H125.768C125.768 79.783 125.768 79.688 125.744 79.4982C125.744 79.3083 125.72 79.2133 125.72 79.2133C125.696 79.0947 125.601 79.0235 125.411 78.9523C125.222 78.8811 125.032 78.8573 124.818 78.8573C124.462 78.8573 124.106 78.9285 123.798 79.0709C123.489 79.2133 123.228 79.4032 123.014 79.6168C122.801 79.8542 122.635 80.0915 122.516 80.3763C122.397 80.6611 122.326 80.9222 122.326 81.1833C122.326 81.4206 122.374 81.6105 122.492 81.7766C122.587 81.9428 122.753 82.0852 122.943 82.1801C123.133 82.2751 123.37 82.3225 123.631 82.3225C124.035 82.3225 124.415 82.2513 124.771 82.0852L125.079 81.2782C125.103 81.207 125.127 81.1833 125.127 81.1833C125.127 81.1595 125.15 81.1595 125.15 81.1121C125.15 81.0883 125.174 81.0646 125.174 81.0409C125.174 80.9934 125.127 80.9459 125.055 80.9222C124.913 80.8747 124.723 80.851 124.557 80.8035L124.628 80.6374C124.937 80.6611 125.245 80.6611 125.554 80.6611C125.72 80.6611 126.076 80.6611 126.646 80.6374L126.598 80.8035C126.574 80.8035 126.551 80.8035 126.527 80.8035C126.503 80.8035 126.48 80.8273 126.456 80.8273C126.218 80.8747 126.076 80.8985 126.005 80.9459C125.934 80.9697 125.886 81.0409 125.839 81.1358C125.673 81.4918 125.554 81.8716 125.459 82.2276C125.15 82.3225 124.889 82.3937 124.676 82.4412C124.462 82.4887 124.249 82.5361 124.035 82.5599C123.845 82.5836 123.631 82.6073 123.394 82.6073C122.919 82.6073 122.563 82.5361 122.302 82.37C122.065 82.2276 121.899 82.0614 121.828 81.8241C121.733 81.6105 121.709 81.3969 121.709 81.207C121.709 80.8985 121.78 80.5899 121.946 80.2814C122.112 79.9728 122.326 79.688 122.635 79.4269C122.919 79.1659 123.275 78.976 123.679 78.8099C124.082 78.6437 124.533 78.5725 124.984 78.5725C125.459 78.5725 125.957 78.6675 126.48 78.8336C126.432 78.9285 126.361 79.0947 126.29 79.3083C126.1 79.5456 126.052 79.7118 126.029 79.8067ZM127.5 78.8573L127.548 78.6912C127.643 78.6912 127.714 78.6912 127.785 78.6912C127.856 78.6912 127.927 78.6912 128.022 78.6912C128.26 78.6912 128.473 78.6912 128.639 78.6912C128.782 78.6912 128.995 78.6912 129.28 78.6912C129.47 78.6675 129.66 78.6675 129.874 78.6675C130.182 78.6675 130.467 78.7149 130.68 78.8336C130.894 78.9523 131.013 79.1184 131.013 79.3795C131.013 79.4744 130.989 79.5931 130.942 79.688C130.894 79.8067 130.823 79.9254 130.704 80.044C130.586 80.1627 130.419 80.2814 130.206 80.3763C130.063 80.4475 129.921 80.495 129.802 80.5187C129.684 80.5425 129.541 80.5662 129.399 80.5899C129.399 80.6137 129.423 80.6137 129.423 80.6611C129.446 80.6849 129.446 80.7086 129.47 80.7323L129.494 80.7561C129.517 80.7798 129.565 80.8747 129.684 81.0409C129.779 81.207 129.85 81.3257 129.897 81.3969C130.135 81.8004 130.301 82.0377 130.348 82.0852C130.396 82.1326 130.443 82.1564 130.491 82.1801C130.538 82.2038 130.609 82.2276 130.704 82.2513C130.799 82.275 130.918 82.2988 131.084 82.3225C131.108 82.3225 131.131 82.3225 131.155 82.3225C131.179 82.3225 131.203 82.3225 131.203 82.3225H131.226L131.179 82.4649C131.108 82.4649 131.013 82.4649 130.894 82.4412C130.728 82.4412 130.586 82.4412 130.419 82.4412C130.158 82.4412 129.945 82.4412 129.779 82.4649C129.66 82.2039 129.494 81.8716 129.304 81.4918C129.28 81.4444 129.233 81.3494 129.185 81.2545C129.138 81.1595 129.09 81.0646 129.043 80.9934C128.995 80.8985 128.948 80.8273 128.9 80.7323C128.9 80.7323 128.877 80.7086 128.853 80.6611C128.829 80.6137 128.805 80.5899 128.805 80.5899C128.663 80.5899 128.497 80.5899 128.283 80.5662C128.26 80.6374 128.236 80.7086 128.212 80.7798C128.188 80.851 128.165 80.9459 128.117 81.0646C128.07 81.1833 128.022 81.3019 127.975 81.4444C127.856 81.7766 127.785 81.9902 127.761 82.0852C127.737 82.1089 127.737 82.1326 127.737 82.1564C127.737 82.2038 127.785 82.2276 127.904 82.2513C128.022 82.275 128.141 82.2988 128.331 82.3225H128.449L128.378 82.4887C128.283 82.4887 128.141 82.4887 127.999 82.4649C127.785 82.4649 127.571 82.4649 127.358 82.4649C127.002 82.4649 126.598 82.4649 126.195 82.4887L126.242 82.3225C126.266 82.3225 126.337 82.3225 126.408 82.2988C126.622 82.2751 126.764 82.2513 126.836 82.2276C126.907 82.2039 126.954 82.1564 127.002 82.1326C127.049 82.0852 127.073 81.9902 127.144 81.8478C127.263 81.5868 127.405 81.2308 127.571 80.7798C127.737 80.3526 127.88 79.9491 127.999 79.5931C128.117 79.2371 128.188 79.0472 128.188 78.9997C128.188 78.9523 128.165 78.9285 128.117 78.9285C128.093 78.9523 127.88 78.9285 127.5 78.8573ZM128.9 78.9997L128.616 79.7118C128.473 80.0678 128.378 80.2814 128.331 80.4238C128.544 80.4238 128.687 80.4475 128.711 80.4475C128.995 80.4475 129.256 80.4238 129.494 80.3526C129.731 80.2814 129.945 80.1864 130.087 80.044C130.23 79.9016 130.324 79.7355 130.324 79.4982C130.324 79.1421 130.063 78.9523 129.518 78.9523C129.351 78.9523 129.138 78.9523 128.9 78.9997ZM131.511 81.2545C131.511 80.9222 131.606 80.6137 131.772 80.2814C131.938 79.9728 132.176 79.6643 132.461 79.4269C132.745 79.1659 133.101 78.976 133.457 78.8336C133.837 78.6912 134.217 78.62 134.62 78.62C135.095 78.62 135.475 78.7387 135.76 78.9523C136.044 79.1896 136.187 79.5219 136.187 79.9491C136.187 80.3289 136.092 80.6849 135.926 80.9934C135.736 81.3257 135.499 81.6105 135.214 81.8478C134.905 82.0852 134.573 82.2751 134.193 82.4175C133.813 82.5599 133.434 82.6311 133.03 82.6311C132.603 82.6311 132.271 82.5361 132.057 82.37C131.82 82.2038 131.677 82.014 131.606 81.8004C131.559 81.6105 131.511 81.4206 131.511 81.2545ZM132.223 81.207C132.223 81.4444 132.271 81.6342 132.366 81.8004C132.461 81.9665 132.603 82.1089 132.769 82.2039C132.935 82.2988 133.149 82.3463 133.386 82.3463C133.766 82.3463 134.098 82.2276 134.43 81.9902C134.763 81.7529 135 81.4444 135.214 81.0883C135.404 80.7323 135.499 80.3526 135.499 79.9966C135.499 79.7592 135.451 79.5456 135.356 79.3795C135.261 79.2133 135.119 79.0947 134.976 78.9997C134.81 78.9285 134.62 78.8811 134.43 78.8811C134.146 78.8811 133.885 78.9523 133.6 79.0947C133.339 79.2371 133.101 79.4269 132.888 79.6406C132.674 79.8779 132.532 80.1152 132.413 80.4001C132.294 80.6611 132.223 80.9459 132.223 81.207ZM142.334 78.6912L142.286 78.8573C142.263 78.8573 142.215 78.8573 142.144 78.8811C142.002 78.9048 141.883 78.9285 141.812 78.9523C141.741 78.976 141.669 78.9997 141.622 79.0472C141.574 79.0947 141.527 79.1421 141.503 79.2133C141.48 79.2845 141.432 79.4032 141.361 79.5694C141.218 79.9016 141.124 80.139 141.076 80.2814C141.029 80.4238 140.981 80.5425 140.957 80.6137C140.934 80.6849 140.862 80.8747 140.744 81.1833C140.673 81.4206 140.554 81.6105 140.435 81.8004C140.317 81.9902 140.15 82.1326 139.984 82.2513C139.818 82.37 139.628 82.4649 139.391 82.5361C139.154 82.6073 138.893 82.6311 138.608 82.6311C138.228 82.6311 137.919 82.5836 137.706 82.4887C137.468 82.3937 137.302 82.2751 137.207 82.1089C137.112 81.9665 137.065 81.8004 137.065 81.6342C137.065 81.5393 137.089 81.4206 137.112 81.3019C137.136 81.1833 137.184 81.0171 137.255 80.8035C137.326 80.5899 137.421 80.3051 137.563 79.9728C137.587 79.9016 137.611 79.8304 137.635 79.7592C137.658 79.688 137.682 79.6168 137.706 79.5456C137.73 79.4744 137.753 79.3795 137.801 79.2608L137.848 79.1421C137.848 79.1421 137.848 79.1184 137.848 79.0947C137.848 79.0709 137.848 79.0472 137.848 79.0472C137.848 79.0235 137.824 78.9997 137.801 78.976C137.777 78.976 137.706 78.9523 137.611 78.9285C137.516 78.9048 137.421 78.9048 137.35 78.8811L137.184 78.8573L137.255 78.6912C137.492 78.6912 137.658 78.7149 137.801 78.7149C137.919 78.7149 138.109 78.7149 138.323 78.7149C138.56 78.7149 138.75 78.7149 138.893 78.7149C139.035 78.7149 139.201 78.6912 139.438 78.6912L139.391 78.8573C139.059 78.9048 138.845 78.9523 138.774 78.976C138.703 78.9997 138.631 79.0472 138.584 79.1421C138.536 79.2371 138.442 79.4744 138.299 79.8304C138.133 80.2339 138.038 80.5425 137.967 80.7323C137.896 80.9459 137.848 81.0883 137.801 81.2307C137.777 81.3494 137.753 81.4681 137.753 81.5868C137.753 81.7529 137.801 81.8953 137.896 81.9902C137.991 82.0852 138.109 82.1801 138.275 82.2276C138.442 82.2751 138.608 82.2988 138.798 82.2988C139.059 82.2988 139.296 82.2513 139.486 82.1801C139.676 82.1089 139.842 81.9902 139.961 81.8478C140.079 81.7054 140.198 81.5393 140.293 81.3257C140.388 81.1358 140.506 80.851 140.625 80.5187C140.815 80.0203 140.934 79.6643 141.005 79.4507C141.076 79.2371 141.124 79.0947 141.124 79.0472C141.124 78.9997 141.1 78.976 141.029 78.9523C140.957 78.9285 140.839 78.9048 140.649 78.8573C140.601 78.8573 140.554 78.8336 140.483 78.8336L140.53 78.6675C140.886 78.6912 141.218 78.6912 141.48 78.6912C141.764 78.7149 142.073 78.7149 142.334 78.6912ZM142.619 78.8573L142.69 78.6912C142.737 78.6912 142.785 78.6912 142.856 78.6912C142.904 78.6912 142.975 78.6912 143.07 78.7149C143.283 78.7149 143.449 78.7149 143.616 78.7149C143.758 78.7149 144.043 78.7149 144.423 78.6912H144.897C145.728 78.6912 146.131 78.9285 146.131 79.4269C146.131 79.5694 146.084 79.7118 146.013 79.8542C145.942 79.9966 145.799 80.139 145.633 80.2814C145.467 80.4238 145.253 80.5187 144.968 80.6137C144.707 80.6849 144.375 80.7323 144.019 80.7323C143.805 80.7323 143.592 80.7086 143.331 80.6849L143.141 81.2307C143.117 81.302 143.093 81.3494 143.07 81.3969C143.046 81.4444 143.022 81.5156 143.022 81.563C142.999 81.6105 142.975 81.658 142.951 81.7292L142.856 82.0377C142.856 82.0377 142.856 82.0614 142.832 82.0852C142.832 82.1089 142.832 82.1089 142.809 82.1089C142.809 82.1327 142.785 82.1801 142.785 82.2039C142.785 82.2513 142.809 82.2751 142.856 82.2988C142.88 82.2988 142.975 82.3225 143.117 82.3463C143.26 82.37 143.402 82.3937 143.497 82.3937C143.568 82.4175 143.639 82.4175 143.687 82.4175L143.616 82.5836C143.473 82.5836 143.331 82.5836 143.165 82.5599C142.904 82.5599 142.643 82.5599 142.381 82.5599C142.049 82.5599 141.669 82.5599 141.266 82.5836L141.313 82.4175C141.313 82.4175 141.337 82.4175 141.361 82.4175C141.385 82.4175 141.408 82.4175 141.432 82.4175C141.456 82.4175 141.48 82.4175 141.503 82.4175C141.741 82.37 141.907 82.3463 141.978 82.3225C142.049 82.2988 142.097 82.2513 142.144 82.1801C142.192 82.0852 142.263 81.9428 142.358 81.7054C142.453 81.4681 142.595 81.1121 142.785 80.5899C142.785 80.5899 142.785 80.5662 142.809 80.5187C142.832 80.4713 142.856 80.4238 142.88 80.3526C142.975 80.0678 143.046 79.9016 143.046 79.8779C143.093 79.7592 143.117 79.6643 143.165 79.5694C143.188 79.4744 143.236 79.3795 143.26 79.2845C143.283 79.1896 143.307 79.1184 143.307 79.0947C143.307 79.0472 143.283 79.0235 143.212 78.9997C143.165 78.976 142.999 78.9523 142.737 78.9285C142.666 78.8573 142.643 78.8573 142.619 78.8573ZM143.449 80.4475C143.663 80.4713 143.829 80.495 143.972 80.495C144.233 80.495 144.494 80.4475 144.731 80.3763C144.968 80.3051 145.135 80.1864 145.277 80.0203C145.419 79.8542 145.491 79.688 145.491 79.4744C145.491 79.2371 145.396 79.0947 145.206 79.0235C145.016 78.9523 144.802 78.9285 144.565 78.9285C144.375 78.9285 144.209 78.9523 144.043 78.976C144.043 78.976 144.019 79.0235 143.972 79.1184C143.924 79.2371 143.758 79.6168 143.521 80.2576C143.521 80.2814 143.497 80.3051 143.497 80.3289C143.449 80.4001 143.449 80.4238 143.449 80.4475Z" fill="#00448C"/>
<path d="M143.165 58.5886C119.596 59.1582 119.146 59.6092 118.576 83.1772C118.006 59.6092 117.555 59.1582 93.9873 58.5886C117.555 58.019 118.006 57.568 118.576 34C119.146 57.568 119.596 58.019 143.165 58.5886Z" fill="#FFD800"/>
</svg>
