<?xml version="1.0" encoding="utf-8"?>
<!-- Generator: Adobe Illustrator 22.1.0, SVG Export Plug-In . SVG Version: 6.00 Build 0)  -->
<svg version="1.1" id="Layer_1" xmlns="http://www.w3.org/2000/svg" xmlns:xlink="http://www.w3.org/1999/xlink" x="0px" y="0px"
	 viewBox="0 0 200 200" style="enable-background:new 0 0 200 200;" xml:space="preserve">
<style type="text/css">
	.st0{fill:#FFFFFF;}
	.st1{fill:#B54E24;}
	.st2{fill:#E16C2E;}
	.st3{fill:#EF8C56;}
	.st4{fill:#DDDDDC;}
	.st5{fill:#C74528;}
	.st6{fill:#F3F3F3;}
	.st7{fill:url(#SVGID_1_);}
	.st8{fill:#FFFEFE;}
	.st9{fill:#38507B;}
	.st10{fill:#050404;}
	.st11{fill:#3A527D;}
</style>
<g>
	<g id="Layer_1_1_">
		<path class="st0" d="M139.7,64.9c0,21.9-17.8,39.7-39.7,39.7S60.3,86.9,60.3,64.9S78,25.2,100,25.2c2,0,5.8,0.4,5.8,0.4l32.3,28
			C138.1,53.6,139.7,61,139.7,64.9z"/>
		<path class="st1" d="M135.6,54.6c0.2,0.2,0.4,0.3,0.6,0.5c0,0.2,0.1,0.2,0.3,0.2l0,0c0,0.4-0.2,0.3-0.4,0.3
			c-0.4-0.1-0.8-0.1-1.2-0.1c-0.1,0-0.2-0.1-0.4-0.1c-1.3,0-2.6-0.1-3.9-0.2c-0.6,0-1.3,0-1.9-0.1c-1.1-0.1-2.3-0.2-3.4-0.3
			c-1.6-0.2-3.2-0.5-4.8-0.9c-0.4-0.1-0.8-0.2-1.2-0.3c-1.8-0.6-3.6-1.3-5.2-2.3c-1.7-1.1-3.3-2.4-4.7-3.9c-1.3-1.5-2.4-3.2-3.2-5
			c-0.1-0.2-0.1-0.5-0.3-0.6c-0.3-0.9-0.7-1.7-1-2.7c-0.6-2-1-4-1.2-6c-0.1-1.2-0.3-2.4-0.2-3.7c0-0.1,0-0.2,0-0.3
			c0.1,0.9,0.2,1.8,0.4,2.6c0.6,3.1,1.9,5.8,4.1,8.1c1.6,1.6,3.4,2.9,5.4,4c2.2,1.2,4.4,2.1,6.7,3c2.7,1,5.4,2,8,3.3
			c0.7,0.3,1.4,0.7,2.1,1c0,0.1,0.1,0.1,0.2,0.1c1.5,0.8,2.9,1.6,4.2,2.7C135,54.1,135.3,54.4,135.6,54.6z"/>
		<path class="st2" d="M132.3,85.1c-0.9,1.5-1.9,2.9-3,4.3c-5.3,6.3-12,10.6-20,12.7c-2.3,0.6-4.6,0.9-6.9,1.1
			c-2.3,0.2-4.6,0.1-6.9-0.2c-7.1-0.8-13.4-3.4-19.1-7.8c-3.1-2.4-5.7-5.2-8-8.4c-0.1-0.2-0.2-0.3-0.3-0.5c0.1-0.3,0.1-0.5-0.1-0.8
			c-0.7-1.1-1.4-2.3-2-3.5c-0.5-1-0.9-2-1.3-3c-0.1-0.2-0.2-0.5-0.2-0.7c0-0.2,0-0.3,0.2-0.4c0.1,0,0.1,0.1,0.1,0.2
			c0.6,1.5,1.3,3.1,2.1,4.6c0.8,1.4,1.7,2.9,2.6,4.2c1.1,1.6,2.5,3.1,3.8,4.5c0.7,0.7,1.5,1.4,2.3,2.1c1,0.9,2.2,1.8,3.4,2.6
			c1.7,1.1,3.5,2.2,5.3,3c2.1,1,4.2,1.7,6.4,2.3c1.2,0.3,2.4,0.6,3.7,0.7c0.7,0.1,1.3,0.2,1.9,0.2c0.8,0.1,1.6,0.2,2.4,0.2
			c2,0.1,4.1,0,6.1-0.3c1-0.1,2-0.3,3-0.5c1.9-0.4,3.8-1,5.7-1.7c1.9-0.8,3.8-1.7,5.6-2.7c1.2-0.7,2.3-1.5,3.4-2.4
			c1.2-0.9,2.3-1.9,3.5-3c0.5-0.4,0.9-1,1.4-1.4c0.7-0.8,1.4-1.6,2-2.4c1-1.2,1.9-2.5,2.7-3.9c0.7-1.3,1.4-2.6,2-3.9
			c0.5-1.2,1-2.3,1.3-3.5c0.6-1.9,1.1-3.9,1.4-5.9c0.3,0,0.3,0.3,0.3,0.5c0,0.2-0.1,0.3-0.1,0.5c-0.3,1.7-0.7,3.4-1.2,5.1
			c-0.5,1.4-1,2.8-1.7,4.2c-0.4,0.8-0.8,1.6-1.2,2.4c-0.3,0.5-0.6,0.9-0.7,1.4C132.2,84.9,132.2,85,132.3,85.1z"/>
		<path class="st3" d="M64.7,77.9c-0.3,0-0.2,0.2-0.2,0.4c0.1,0.2,0.1,0.5,0.2,0.7c0.4,1,0.8,2,1.3,3c0.6,1.2,1.3,2.4,2,3.5
			c0.2,0.3,0.2,0.5,0.1,0.8c-0.5-0.7-0.9-1.4-1.3-2.1c-2.3-3.9-3.8-8.1-4.5-12.5c-0.5-2.8-0.7-5.7-0.5-8.6c0.3-4.7,1.3-9.1,3.2-13.4
			c2-4.6,4.9-8.7,8.5-12.2c3.7-3.6,8-6.3,12.8-8.1c2.4-0.9,4.8-1.6,7.3-2c2.8-0.5,5.6-0.6,8.4-0.4c0.4,0,0.9,0.1,1.3,0.1
			c0.1,0.3,0.1,0.5,0.1,0.8c-0.1,0-0.2,0-0.3,0c-0.8,0-1.7-0.1-2.5-0.1c-1.5,0-3.1,0-4.6,0.2c-1,0.1-1.9,0.2-2.9,0.4
			c-2.1,0.4-4.3,1-6.3,1.7c-2.4,0.9-4.7,2-6.9,3.4c-1.3,0.9-2.7,1.8-3.9,2.8c-0.9,0.8-1.8,1.4-2.7,2.3c-0.7,0.7-1.3,1.5-2,2.3
			c-0.8,1-1.6,2-2.3,3c-1.3,1.8-2.4,3.7-3.3,5.7c-0.9,2-1.6,4-2.1,6c-0.3,1.3-0.6,2.7-0.8,4.1c-0.2,1.3-0.3,2.7-0.4,4.1
			c-0.1,2,0,4,0.3,6c0.2,1.4,0.4,2.8,0.8,4.3C63.9,75.3,64.3,76.6,64.7,77.9z"/>
		<path class="st4" d="M103.5,27.7c0-0.3,0.1-0.5-0.1-0.8c0.1-0.4,0.1-0.4,0.3-0.2c0.9,0.8,1.8,1.6,2.7,2.3c1.2,1,2.4,2,3.6,3.1
			c0.7,0.6,1.4,1.2,2.1,1.8c0.7,0.6,1.3,1.1,2,1.7c0.7,0.6,1.3,1.1,1.9,1.7c0.7,0.7,1.5,1.3,2.2,1.9c0.7,0.6,1.3,1.2,2,1.7
			c0.7,0.6,1.4,1.2,2.1,1.8c0.7,0.6,1.3,1.1,2,1.7c1,0.8,2,1.7,3,2.5c0.7,0.6,1.3,1.1,2,1.7c0.7,0.6,1.4,1.2,2.1,1.8
			c0.7,0.6,1.3,1.1,1.9,1.7c0.7,0.6,1.4,1.2,2.1,1.8c0.1,0.1,0.3,0.2,0.2,0.4c-0.4-0.1-0.7-0.4-1-0.7c-1.3-1-2.7-1.9-4.2-2.7
			c-0.1,0-0.2,0-0.2-0.1c-0.1-0.4-0.4-0.6-0.7-0.9c-0.6-0.5-1.2-1-1.8-1.5c-0.6-0.5-1.1-1-1.7-1.5c-0.6-0.5-1.3-1-1.9-1.6
			c-0.6-0.5-1.2-1-1.8-1.6c-0.7-0.6-1.3-1.1-2-1.7c-0.6-0.5-1.2-1-1.7-1.5c-0.8-0.7-1.7-1.3-2.5-2.1c-0.6-0.5-1.2-1-1.8-1.6
			c-0.8-0.7-1.7-1.4-2.6-2.2c-0.8-0.7-1.7-1.5-2.5-2.2c-0.8-0.7-1.7-1.3-2.5-2c-0.9-0.7-1.7-1.5-2.6-2.3c-0.2-0.1-0.4-0.3-0.6-0.3
			C103.5,28.2,103.5,28,103.5,27.7z"/>
		<path class="st3" d="M132.3,85.1c-0.2-0.1-0.1-0.2-0.1-0.4c0.1-0.5,0.5-1,0.7-1.4c0.4-0.8,0.8-1.6,1.2-2.4
			c0.6-1.4,1.2-2.8,1.7-4.2c0.5-1.7,1-3.4,1.2-5.1c0-0.2,0.1-0.3,0.1-0.5c0-0.3,0-0.4-0.3-0.5c0.1-0.7,0.2-1.3,0.2-2
			c0.1-0.9,0.2-1.9,0.2-2.8c0-1,0-2-0.1-3c-0.1-0.8-0.1-1.7-0.2-2.5c-0.2-1.6-0.5-3.1-0.9-4.7c0.2,0,0.5,0,0.4-0.3
			c0.1,0,0.2,0.1,0.3,0.2c0.1,0.1,0.3,0.2,0.2,0.5c-0.1,0.3,0.1,0.6,0.2,1c0.8,3.4,1,6.8,0.8,10.2c-0.1,1.9-0.3,3.7-0.7,5.5
			c-0.1,0.5-0.3,1-0.4,1.5c-0.4,2.4-1.3,4.6-2.3,6.7c-0.6,1.3-1.3,2.7-2.1,3.9C132.5,85,132.5,85.1,132.3,85.1z"/>
		<path class="st3" d="M136.5,55.3c-0.2,0-0.3,0-0.3-0.2C136.4,55.1,136.5,55.2,136.5,55.3z"/>
		<path class="st5" d="M103.5,29c-0.1,0-0.3-0.1-0.4-0.1c-1-0.1-1.9-0.1-2.8-0.1c-0.7,0-1.3,0-2,0c-0.7,0-1.5,0.1-2.2,0.2
			c-0.9,0.1-1.7,0.2-2.6,0.3c-1,0.2-1.9,0.4-2.9,0.6c-1.4,0.4-2.8,0.8-4.2,1.4c-1.7,0.7-3.5,1.5-5.1,2.5c-1.2,0.7-2.3,1.4-3.4,2.3
			c-0.9,0.7-1.8,1.3-2.5,2.2c-0.4,0.4-0.9,0.7-1.3,1.2c-0.9,1-1.8,2-2.7,3.1c-1.1,1.4-2.1,2.9-3,4.4c-0.7,1.2-1.3,2.5-1.9,3.8
			c-0.4,1-0.8,2-1.1,3c-0.6,1.8-1,3.6-1.3,5.4c-0.1,1-0.2,2-0.3,3c-0.2,1.6-0.1,3.2-0.1,4.8c0,1.4,0.3,2.8,0.5,4.2
			c0.3,1.7,0.7,3.4,1.3,5c0.6,1.7,1.3,3.4,2.1,5.1c1,2,2.2,3.9,3.6,5.6c0.7,0.9,1.4,1.8,2.2,2.6c0.4,0.4,0.7,0.8,1.1,1.2
			c2,1.9,4.2,3.7,6.6,5.1c0.9,0.6,1.9,1.1,2.8,1.6c2,1,4.1,1.8,6.2,2.4c1.4,0.4,2.9,0.7,4.4,1c0.8,0.1,1.7,0.2,2.5,0.3
			c1.5,0.2,2.9,0,4.4,0.1c0.8,0,1.5-0.1,2.3-0.2c0.6,0,1.2-0.1,1.8-0.2c1.2-0.1,2.4-0.4,3.5-0.7c2-0.5,3.9-1.2,5.7-2
			c2.1-0.9,4-2.1,5.9-3.4c0.9-0.7,1.8-1.3,2.7-2.1c0.8-0.7,1.6-1.3,2.3-2.1c0.8-0.8,1.5-1.7,2.2-2.5c1-1.1,1.8-2.3,2.6-3.6
			c1.1-1.7,2-3.4,2.7-5.2c0.4-1,0.8-2,1.1-3c0.6-1.8,1-3.6,1.3-5.4c0.1-1,0.3-2,0.3-3c0.2-1.6,0.1-3.2,0-4.8
			c-0.1-2.4-0.5-4.8-1.2-7.1c0-0.1,0-0.1,0-0.2c0.4,0,0.8,0,1.2,0.1c0.4,1.5,0.7,3.1,0.9,4.7c0.1,0.8,0.2,1.7,0.2,2.5
			c0.1,1,0.1,2,0.1,3c0,0.9-0.1,1.9-0.2,2.8c-0.1,0.7-0.1,1.3-0.2,2c-0.3,2-0.8,4-1.4,5.9c-0.4,1.2-0.9,2.4-1.3,3.5
			c-0.6,1.3-1.3,2.7-2,3.9c-0.8,1.4-1.7,2.7-2.7,3.9c-0.7,0.8-1.3,1.6-2,2.4c-0.4,0.5-0.9,1-1.4,1.4c-1.1,1-2.2,2-3.5,3
			c-1.1,0.8-2.3,1.6-3.4,2.4c-1.8,1.1-3.7,2-5.6,2.7c-1.8,0.7-3.7,1.3-5.7,1.7c-1,0.2-2,0.4-3,0.5c-2,0.3-4,0.4-6.1,0.3
			c-0.8,0-1.6-0.1-2.4-0.2c-0.7-0.1-1.3-0.1-1.9-0.2c-1.2-0.2-2.4-0.4-3.7-0.7c-2.2-0.6-4.4-1.3-6.4-2.3c-1.9-0.9-3.6-1.9-5.3-3
			c-1.2-0.8-2.3-1.6-3.4-2.6c-0.8-0.7-1.6-1.3-2.3-2.1c-1.4-1.4-2.7-2.9-3.8-4.5c-1-1.3-1.8-2.7-2.6-4.2c-0.8-1.5-1.4-3-2.1-4.6
			c0-0.1,0-0.1-0.1-0.2c-0.4-1.3-0.8-2.6-1.1-3.9c-0.3-1.4-0.6-2.8-0.8-4.3c-0.3-2-0.4-4-0.3-6c0.1-1.4,0.2-2.7,0.4-4.1
			c0.2-1.4,0.5-2.7,0.8-4.1c0.5-2.1,1.3-4.1,2.1-6c0.9-2,2-3.9,3.3-5.7c0.7-1,1.5-2,2.3-3c0.7-0.8,1.3-1.6,2-2.3
			c0.8-0.8,1.8-1.5,2.7-2.3c1.2-1,2.5-2,3.9-2.8c2.2-1.4,4.5-2.5,6.9-3.4c2-0.8,4.2-1.3,6.3-1.7c1-0.2,1.9-0.3,2.9-0.4
			c1.5-0.2,3.1-0.2,4.6-0.2c0.8,0,1.7,0.1,2.5,0.1c0.1,0,0.2,0,0.3,0c0,0.2,0,0.4,0.1,0.7C103.5,28.6,103.5,28.8,103.5,29z"/>
		<path class="st6" d="M103.5,29c0-0.2,0-0.4,0-0.7c0.2,0,0.4,0.1,0.6,0.3c0.9,0.7,1.7,1.5,2.6,2.3c0.8,0.7,1.7,1.3,2.5,2
			c0.8,0.7,1.7,1.5,2.5,2.2c0.9,0.7,1.7,1.4,2.6,2.2c0.6,0.5,1.2,1,1.8,1.6c0.8,0.7,1.7,1.4,2.5,2.1c0.6,0.5,1.2,1,1.7,1.5
			c0.7,0.6,1.3,1.1,2,1.7c0.6,0.5,1.2,1,1.8,1.6c0.6,0.5,1.3,1,1.9,1.6c0.6,0.5,1.1,1,1.7,1.5c0.6,0.5,1.2,1,1.8,1.5
			c0.3,0.3,0.7,0.4,0.7,0.9c-0.7-0.3-1.4-0.7-2.1-1c-2.6-1.2-5.3-2.2-8-3.3c-2.3-0.9-4.6-1.8-6.7-3c-2-1.1-3.8-2.3-5.4-4
			c-2.2-2.3-3.5-5-4.1-8.1C103.8,30.8,103.8,29.9,103.5,29C103.5,29.1,103.5,29,103.5,29z"/>
		
			<linearGradient id="SVGID_1_" gradientUnits="userSpaceOnUse" x1="99.9373" y1="422.4346" x2="99.9373" y2="495.613" gradientTransform="matrix(1 0 0 1 0 -394)">
			<stop  offset="3.081102e-07" style="stop-color:#ED5B26"/>
			<stop  offset="1" style="stop-color:#CA4627"/>
		</linearGradient>
		<path class="st7" d="M136.5,62.8c-0.1-2.4-0.5-4.8-1.2-7.2c0-0.1,0-0.1,0-0.2c-0.1,0-0.2-0.1-0.4-0.1c-1.3,0-2.7-0.1-4-0.2
			c-0.6,0-1.3,0-1.9-0.1c-1.2-0.1-2.3-0.2-3.5-0.3c-1.6-0.2-3.3-0.5-4.8-0.9l0,0c-0.4-0.1-0.8-0.2-1.2-0.3c-1.8-0.6-3.6-1.3-5.3-2.3
			c-1.7-1.1-3.4-2.4-4.7-4c-1.3-1.5-2.4-3.2-3.2-5c-0.1-0.2-0.1-0.5-0.3-0.7c-0.3-0.9-0.7-1.8-1-2.7c-0.6-2-1-4-1.2-6
			c-0.1-1.2-0.3-2.5-0.3-3.7c0-0.1,0-0.2,0-0.3v0c-0.1,0-0.3-0.1-0.4-0.1c-1-0.1-1.9-0.1-2.9-0.1c-0.7,0-1.3,0-2,0
			c-0.7,0-1.5,0.1-2.2,0.2c-0.9,0.1-1.7,0.2-2.6,0.3c-1,0.2-2,0.4-2.9,0.6c-1.4,0.4-2.9,0.8-4.3,1.4c-1.8,0.7-3.5,1.6-5.1,2.6
			c-1.2,0.7-2.3,1.4-3.4,2.3c-0.9,0.7-1.8,1.4-2.6,2.2c-0.4,0.4-0.9,0.7-1.3,1.2c-0.9,1-1.9,2-2.7,3.1c-1.1,1.4-2.1,2.9-3,4.5
			c-0.7,1.2-1.3,2.5-1.9,3.8c-0.4,1-0.8,2-1.2,3c-0.6,1.8-1,3.6-1.3,5.5c-0.1,1-0.2,2-0.3,3c-0.2,1.6-0.1,3.3-0.1,4.9
			c0,1.4,0.3,2.8,0.5,4.2c0.3,1.7,0.7,3.4,1.3,5.1c0.6,1.8,1.3,3.5,2.1,5.1c1,2,2.2,3.9,3.6,5.7c0.7,0.9,1.4,1.8,2.3,2.7
			c0.4,0.4,0.7,0.8,1.1,1.2c2,1.9,4.2,3.7,6.7,5.1c0.9,0.6,1.9,1.1,2.9,1.6c2,1,4.1,1.8,6.3,2.4c1.5,0.4,2.9,0.7,4.4,1
			c0.8,0.1,1.7,0.2,2.5,0.3c1.5,0.2,3,0,4.4,0.1c0.8,0,1.5-0.1,2.3-0.2c0.6,0,1.2-0.2,1.8-0.2c1.2-0.1,2.4-0.4,3.6-0.7
			c2-0.5,3.9-1.2,5.8-2.1c2.1-0.9,4.1-2.1,6-3.4c0.9-0.7,1.8-1.3,2.7-2.1c0.8-0.7,1.6-1.3,2.3-2.1c0.8-0.8,1.5-1.7,2.3-2.6
			c1-1.1,1.8-2.4,2.6-3.6c1.1-1.7,2-3.4,2.8-5.3c0.4-1,0.8-2,1.1-3c0.6-1.8,1-3.6,1.3-5.5c0.1-1,0.3-2,0.3-3
			C136.6,66.1,136.6,64.4,136.5,62.8z M80.2,95.3c0,0,0-0.1-0.1-0.2C80.1,95.2,80.1,95.2,80.2,95.3C80.2,95.3,80.2,95.3,80.2,95.3
			C80.2,95.3,80.2,95.3,80.2,95.3z"/>
		<path class="st3" d="M102,87.8c0,0,0.1,0,0.1,0C102.1,87.9,102.1,87.9,102,87.8z"/>
		<g>
			<path class="st8" d="M100.3,44.3c1.2,0.8,2.5,1.5,3.7,2.3c4.2,2.6,8.4,5.1,12.5,7.7c0.2,0.1,0.3,0.2,0.5,0.3
				c-0.1,0.3-0.3,0.3-0.5,0.5c-1,0.8-1.9,1.5-2.9,2.3c-3.5,2.8-7.3,5.4-10.9,8c-0.2,0.1-0.4,0.2-0.5,0.4c-0.5,0.3-0.9,0.6-1.3,0.9
				c-0.3,0.2-0.5,0.6-0.9,0.6c-0.3,0-0.6-0.4-0.9-0.6c-1.3-0.9-2.5-1.8-3.8-2.6c-0.8-0.5-1.5-1.1-2.3-1.6c-2.8-1.9-5.6-3.8-8.2-5.9
				c-0.1-0.1-0.2-0.1-0.3-0.2c-0.6-0.6-1.4-1.1-2-1.7c0.1-0.2,0.2-0.2,0.3-0.3c3-1.9,5.8-4,8.8-5.9c2.2-1.5,4.4-2.9,6.5-4.4
				c0.3-0.1,0.5-0.5,0.9-0.4c0.3,0.1,0.6,0.3,0.9,0.5C100,44.2,100.2,44.2,100.3,44.3z"/>
			<path class="st8" d="M98.1,81.5c0,1.5,0,2.9,0,4.4c0,1,0,1.9,0,2.8c0,0.1,0.1,0.3-0.1,0.4c-0.2,0.1-0.3-0.1-0.4-0.2
				c-0.5-0.3-1-0.7-1.5-1c-1.3-0.9-2.6-1.7-3.9-2.7c-1.1-0.7-2.1-1.6-3.2-2.3c-0.1-0.1-0.3-0.2-0.4-0.2c-0.1-0.1-0.2-0.2-0.3-0.3
				c-2.1-1.6-4.2-3.1-6.3-4.7c-0.3-0.2-0.4-0.4-0.4-0.8c0-3.5,0-7,0-10.5c0-0.2,0-0.4,0-0.6c0-0.6,0-1.1,0-1.7c0-1.8,0-3.7,0-5.5
				c0-0.2,0-0.4,0-0.6c0.2,0,0.3,0.1,0.5,0.2c2.9,1.8,5.6,3.7,8.4,5.7c0.1,0.1,0.3,0.3,0.5,0.3c0.1,0.1,0.2,0.2,0.3,0.2
				c1.4,1.1,2.9,2.1,4.4,3.2c0.7,0.5,1.3,1.3,2.2,1.7c0.4,0.2,0.5,0.4,0.5,0.8c0,3.5,0,7,0,10.6C98.1,81.1,98.1,81.3,98.1,81.5z"/>
			<path class="st8" d="M111.6,82.8c-1.3,0.9-2.6,1.7-3.8,2.6c-0.8,0.5-1.6,1-2.4,1.5c-0.9,0.6-1.8,1.1-2.7,1.6
				c-0.2,0.1-0.3,0.2-0.5,0.2c0,0-0.1,0-0.1,0c-0.1-0.3-0.1-0.6-0.1-0.9c0-2,0-4,0-5.9c0-0.1,0-0.3,0-0.4c0-0.1,0-0.3,0-0.4
				c0-3.4,0.1-6.9,0.1-10.3c0-0.4,0.1-0.6,0.4-0.8c0.6-0.5,1.3-0.9,1.9-1.4c1.1-0.8,2.2-1.6,3.2-2.4c0.4-0.3,0.8-0.6,1.2-0.9
				c3-2.2,5.9-4.5,8.8-6.7c0.2-0.1,0.3-0.2,0.6-0.4c0,3.2,0,6.4,0.2,9.6c-0.1,0.3,0,0.7,0,1c0.1,2.9,0.1,5.8,0.1,8.7
				c0,0.4-0.1,0.6-0.4,0.8c-1.1,0.8-2.1,1.6-3.2,2.4C113.7,81.3,112.7,82,111.6,82.8z"/>
		</g>
	</g>
	<g id="Layer_2_1_">
		<g>
			<path class="st9" d="M131.7,134.1c1.6-2.4,3.8-3.9,6.8-3.8c3,0.1,5.1,1.4,6.5,4.1c0.2-0.2,0.3-0.4,0.5-0.6
				c1.2-1.6,2.6-2.7,4.5-3.2c1.7-0.4,3.3-0.4,4.9,0.1c2.6,0.8,4,2.6,4.7,5.1c0.3,1,0.3,2,0.3,3.1c0,3.6,0,7.3,0,10.9
				c0,0.2,0,0.4,0,0.6c-0.1,0.7-0.6,1.2-1.3,1.3c-0.8,0.1-1.4-0.3-1.7-1c-0.1-0.2-0.1-0.5-0.1-0.8c0-3.4,0-6.9,0-10.4
				c0-1-0.1-2-0.4-3c-0.7-2.1-2.3-3.3-4.5-3.4c-1.7-0.1-3.3,0.4-4.5,1.7c-0.9,1-1.4,2.1-1.5,3.4c-0.1,0.5-0.1,1.1-0.1,1.6
				c0,3.4,0,6.7,0,10.1c0,0.2,0,0.4,0,0.6c-0.2,0.8-0.8,1.2-1.7,1.2c-0.7,0-1.3-0.6-1.4-1.4c0-0.2,0-0.4,0-0.5c0-3.5,0-7.1,0-10.6
				c0-1.1-0.2-2.2-0.7-3.3c-0.8-1.7-2.2-2.6-4.1-2.7c-3.2-0.3-5.5,1.9-6.1,4.8c-0.1,0.6-0.2,1.3-0.2,1.9c0,3.3,0,6.7,0,10
				c0,0.2,0,0.4,0,0.6c-0.1,0.7-0.7,1.2-1.4,1.2c-0.8,0-1.4-0.4-1.6-1.1c0-0.2-0.1-0.4-0.1-0.6c0-5.9,0-11.8,0-17.7
				c0-0.3,0.1-0.6,0.2-0.9c0.3-0.6,1-0.9,1.7-0.7c0.7,0.2,1.2,0.7,1.2,1.4c0,0.3,0,0.7,0,1C131.6,133.3,131.6,133.7,131.7,134.1
				C131.6,134.1,131.7,134.1,131.7,134.1z"/>
			<path class="st10" d="M78.1,147.7c0,0.7,0,1.4,0,2.1c0,2.2,0,4.3,0,6.5c0,0.2,0,0.4,0,0.5c-0.2,0.8-0.8,1.3-1.7,1.2
				c-0.8-0.1-1.4-0.6-1.4-1.4c0-0.1,0-0.3,0-0.4c0-8,0-15.9,0-23.9c0-0.2,0-0.4,0-0.7c0.2-0.8,0.9-1.2,1.6-1.2
				c0.8,0.1,1.4,0.7,1.4,1.5c0,0.8,0,1.6,0,2.4c0,0.1,0,0.2,0.1,0.4c0.1-0.2,0.2-0.3,0.3-0.5c1.1-1.5,2.5-2.8,4.2-3.4
				c3.5-1.3,6.8-0.6,9.6,1.8c1.8,1.5,2.8,3.4,3.3,5.7c0.5,2.5,0.4,5.1-0.6,7.4c-1.4,3.3-4,5.4-7.5,6c-3.5,0.6-6.4-0.6-8.7-3.3
				C78.6,148.3,78.4,148,78.1,147.7C78.2,147.7,78.2,147.7,78.1,147.7z M92.8,141.1c0-1-0.2-2.2-0.5-3.2c-1.1-3-3.8-4.9-6.9-4.8
				c-2.7,0.1-4.8,1.4-6.2,3.8c-1.1,1.8-1.3,3.7-1,5.8c0.6,4,4.1,6.8,7.8,6.5c2.2-0.1,4.1-1.1,5.4-2.9
				C92.4,144.7,92.8,143,92.8,141.1z"/>
			<path class="st10" d="M26.7,151.9c-1.9,0-4.3-0.5-6.5-1.6c-1.3-0.6-2.4-1.4-3.5-2.3c-0.6-0.5-0.7-1.3-0.3-2
				c0.4-0.6,1.2-0.9,1.9-0.6c0.2,0.1,0.4,0.3,0.6,0.4c1.4,1.2,2.9,2.1,4.7,2.6c1.9,0.6,3.9,0.8,5.9,0.3c1.2-0.2,2.2-0.7,3.1-1.6
				c1.4-1.4,1.4-3.4,0.9-4.8c-0.3-0.7-0.9-1.3-1.5-1.7c-0.8-0.5-1.7-0.9-2.6-1.2c-1.3-0.4-2.6-0.6-3.9-1c-1.4-0.3-2.8-0.8-4.1-1.4
				c-0.4-0.2-0.9-0.4-1.3-0.7c-2-1.3-2.9-3.1-3-5.4c-0.1-3.4,1.5-5.7,4.4-7.2c1.3-0.6,2.6-0.9,4-1c2.2-0.1,4.4,0.1,6.5,1
				c1.1,0.4,2.2,1,3.1,1.7c0.5,0.4,0.9,0.9,0.7,1.6c-0.2,1.1-1.5,1.6-2.4,1c-0.7-0.5-1.4-1-2.2-1.3c-2-1-4.2-1.3-6.4-1
				c-1.1,0.1-2.1,0.5-3,1.2c-1.6,1.3-1.9,3.2-1.4,4.9c0.2,0.8,0.8,1.3,1.4,1.7c0.9,0.6,1.8,1,2.8,1.3c1.4,0.4,2.8,0.7,4.2,1.1
				c1.2,0.3,2.5,0.7,3.6,1.2c0.4,0.2,0.9,0.4,1.3,0.7c1.8,1.1,2.9,2.7,3,4.8c0.2,2.3-0.3,4.4-2,6.1c-1,1-2.1,1.7-3.4,2.1
				C30.2,151.7,28.8,151.9,26.7,151.9z"/>
			<path class="st10" d="M45,134.2c0.1-0.2,0.2-0.3,0.3-0.5c1.7-2.4,4-3.4,6.8-3.4c1.1,0,2.3,0.2,3.3,0.6c2.3,1,3.6,2.8,4.2,5.2
				c0.2,0.8,0.3,1.7,0.3,2.5c0,3.8,0,7.5,0,11.3c0,0.2,0,0.4-0.1,0.7c-0.2,0.8-0.9,1.2-1.7,1.1c-0.7-0.1-1.3-0.6-1.4-1.4
				c0-0.2,0-0.3,0-0.5c0-3.5,0-6.9,0-10.4c0-0.9-0.1-1.7-0.4-2.5c-0.7-2.2-2.2-3.3-4.4-3.7c-1.3-0.2-2.7,0-3.9,0.6
				c-1.9,1-2.9,2.7-3.2,4.8c-0.1,0.5-0.1,0.9-0.1,1.4c0,3.2,0,6.5,0,9.7c0,0.1,0,0.3,0,0.4c0,0.9-0.6,1.5-1.5,1.5
				c-0.9,0-1.5-0.5-1.6-1.4c0-0.2,0-0.3,0-0.5c0-8.6,0-17.3,0-25.9c0-0.2,0-0.4,0-0.6c0.1-0.8,0.8-1.3,1.5-1.3
				c0.8,0,1.4,0.6,1.5,1.4c0,0.2,0,0.4,0,0.5c0,3.2,0,6.5,0,9.7C44.9,133.9,44.9,134,45,134.2C44.9,134.1,44.9,134.2,45,134.2z"/>
			<path class="st9" d="M175,142.3c-2.3,0-4.6,0-6.9,0c-0.1,0-0.2,0-0.3,0c-0.4,0-0.4,0-0.4,0.4c0.2,1.5,0.7,2.9,1.7,4
				c1.6,1.9,3.6,2.6,6,2.5c2-0.1,3.7-0.8,5.2-2.1c0.1-0.1,0.3-0.2,0.4-0.3c0.6-0.5,1.3-0.4,1.8,0.1c0.5,0.5,0.5,1.3-0.1,1.8
				c-1.5,1.4-3.2,2.5-5.2,2.9c-2.3,0.5-4.5,0.4-6.7-0.5c-3.4-1.4-5.4-4-6.1-7.5c-0.6-2.9-0.3-5.8,1.3-8.4c1.4-2.5,3.5-4.2,6.4-4.8
				c4.6-1,9,1.1,10.9,5.9c0.5,1.3,0.7,2.6,0.8,4c0.1,1.3-0.8,1.9-1.8,1.9C179.6,142.3,177.3,142.3,175,142.3z M173.9,140
				c2,0,4,0,6,0c0.2,0,0.3,0,0.5,0c0.2,0,0.2-0.1,0.2-0.3c-0.2-1.4-0.6-2.8-1.4-4c-2-3.2-6.2-3.4-8.6-1.7c-1.5,1-2.4,2.4-2.9,4
				c-0.2,0.5-0.3,1.1-0.4,1.7c0,0.2,0,0.3,0.3,0.3c0.1,0,0.2,0,0.3,0C169.9,140,171.9,140,173.9,140z"/>
			<path class="st9" d="M106.8,138.4c0,3.8,0,7.6,0,11.4c0,0.3,0,0.5-0.1,0.8c-0.2,0.7-0.9,1.2-1.7,1.1c-0.7-0.1-1.3-0.6-1.4-1.4
				c0-0.2,0-0.4,0-0.6c0-7.5,0-15,0-22.5c0-0.1,0-0.2,0-0.3c0-0.5,0-0.5-0.5-0.5c-2.5,0-5,0-7.4,0c-0.3,0-0.5,0-0.8-0.1
				c-0.6-0.2-1-0.9-0.9-1.5c0.1-0.6,0.6-1.2,1.3-1.3c0.2,0,0.4,0,0.5,0c6.3,0,12.5,0,18.8,0c0.1,0,0.3,0,0.4,0
				c0.9,0,1.5,0.7,1.4,1.5c0,0.8-0.6,1.4-1.5,1.4c-1.9,0-3.7,0-5.6,0c-0.7,0-1.4,0-2,0c-0.5,0-0.5-0.1-0.5,0.5c0,1.8,0,3.6,0,5.5
				C106.8,134.3,106.8,136.3,106.8,138.4z"/>
			<path class="st10" d="M65.6,141.1c0-3,0-6,0-8.9c0-0.7,0.4-1.4,1.1-1.6c0.8-0.2,1.7,0.2,1.9,1c0.1,0.2,0.1,0.5,0.1,0.7
				c0,5.9,0,11.7,0,17.6c0,0.2,0,0.4-0.1,0.6c-0.2,0.8-0.8,1.3-1.7,1.2c-0.8-0.1-1.4-0.7-1.4-1.5c0-1.1,0-2.2,0-3.3
				C65.6,144.9,65.6,143,65.6,141.1z"/>
			<path class="st9" d="M122.5,141.1c0,2.9,0,5.9,0,8.8c0,0.2,0,0.4,0,0.6c-0.2,0.8-0.8,1.2-1.6,1.1c-0.8-0.1-1.3-0.6-1.4-1.4
				c0-0.1,0-0.3,0-0.4c0-5.8,0-11.7,0-17.5c0-0.1,0-0.3,0-0.4c0.1-0.9,0.8-1.5,1.6-1.4c0.9,0,1.5,0.7,1.5,1.6c0,2.3,0,4.6,0,7
				C122.5,139.7,122.5,140.4,122.5,141.1z"/>
			<path class="st11" d="M129.4,166c1.2-1.7,3.4-1.7,4.3,0.1c0.1-0.1,0.2-0.2,0.3-0.4c0.4-0.5,0.9-0.8,1.5-1
				c1.1-0.2,2.2,0.3,2.6,1.4c0.2,0.4,0.2,0.8,0.2,1.2c0,1.4,0,2.8,0,4.2c0,0.2-0.1,0.4-0.3,0.3c-0.3,0-0.7,0.1-0.9-0.1
				c-0.2-0.2-0.1-0.5-0.1-0.8c0-1.1,0-2.2,0-3.3c0-0.3-0.1-0.7-0.2-1c-0.4-0.9-1.4-1.2-2.2-0.6c-0.5,0.4-0.8,1-0.8,1.6
				c0,1,0,1.9,0,2.9c0,0.3,0,0.6,0,0.9c0,0.5,0,0.5-0.5,0.5c-0.8,0-0.8,0-0.8-0.8c0-1.1,0-2.2,0-3.3c0-0.4,0-0.7-0.1-1.1
				c-0.3-1-1.4-1.3-2.2-0.7c-0.5,0.4-0.8,0.9-0.8,1.5c0,1,0,2,0,3.1c0,0.1,0,0.3,0,0.4c0,0.3,0.1,0.7-0.1,0.8
				c-0.3,0.2-0.7,0.1-1.1,0.1c-0.1,0-0.1,0-0.1-0.1c0-0.1,0-0.2,0-0.3c0-2.1,0.1-4.2-0.1-6.3c0-0.2,0.1-0.3,0.3-0.3
				c0.8,0,0.8,0,0.9,0.8C129.4,165.7,129.4,165.8,129.4,166z"/>
			<path class="st11" d="M108.7,171.1c0,1,0,2.1,0,3.1c0,0.1,0,0.2,0,0.3c0,0.2-0.1,0.2-0.2,0.2c0,0-0.1,0-0.1,0
				c-0.3,0-0.6,0.1-0.9-0.1c-0.2-0.2-0.1-0.5-0.1-0.8c0-2.5,0-4.9,0-7.4c0-0.4,0-0.9,0-1.4c0-0.2,0-0.3,0.3-0.3c0.2,0,0.4,0,0.6,0
				c0.2,0,0.3,0.1,0.3,0.3c0,0.3,0,0.5,0.1,0.8c0.2,0,0.2-0.2,0.3-0.3c1.3-1.4,3.5-1.3,4.6,0.3c0.5,0.7,0.6,1.5,0.6,2.3
				c0,0.8-0.1,1.5-0.5,2.3c-0.7,1.2-2.1,1.8-3.4,1.5C109.6,171.8,109.1,171.5,108.7,171.1z M112.8,168.4c0-0.6-0.1-1.2-0.4-1.7
				c-0.3-0.6-0.8-0.9-1.5-1c-1.1-0.1-2.1,0.8-2.2,2c0,0.4,0,0.9,0,1.4c0,1,0.7,1.7,1.6,1.9c1,0.2,1.8-0.2,2.3-1.1
				C112.7,169.4,112.8,168.9,112.8,168.4z"/>
			<path class="st9" d="M95.8,165.8c0.2,0,0.2-0.1,0.3-0.2c0.8-0.8,1.7-1.1,2.7-0.8c1.1,0.3,1.5,1.1,1.7,2.2c0,0.3,0.1,0.6,0.1,0.9
				c0,1.2,0,2.4,0,3.7c0,0.4,0,0.4-0.4,0.4c-0.3,0-0.7,0.1-0.9-0.1c-0.2-0.2-0.1-0.6-0.1-0.9c0-1,0-2,0-3c0-0.3,0-0.6-0.1-1
				c-0.3-1.1-1.4-1.6-2.4-1c-0.6,0.4-1,0.9-1,1.6c0,1.2,0,2.4,0,3.7c0,0.1,0,0.2,0,0.3c0,0.2-0.1,0.3-0.2,0.3c-0.3,0-0.7,0.1-1-0.1
				c-0.2-0.2-0.1-0.6-0.1-0.9c0-2.9,0-5.8,0-8.8c0-0.1,0-0.2,0-0.3c0-0.4,0-0.4,0.4-0.4c0.2,0,0.4,0,0.6,0c0.3,0,0.3,0.1,0.3,0.3
				C95.8,163.2,95.8,164.5,95.8,165.8z"/>
			<path class="st11" d="M86.4,170.4c0.6,0.3,1.2,0.5,1.9,0.6c0.4,0,0.9,0,1.3-0.1c0.6-0.2,1-0.6,1.1-1.2c0.1-0.7-0.1-1.3-0.7-1.7
				c-0.4-0.3-0.9-0.5-1.3-0.6c-0.6-0.2-1.2-0.5-1.7-1c-1.1-1-1-2.8,0.2-3.8c0.4-0.3,0.9-0.5,1.5-0.6c0.9-0.1,1.7-0.1,2.6,0.2
				c0.4,0.1,0.4,0.1,0.3,0.5c-0.1,0.2-0.1,0.5-0.3,0.6c-0.2,0.1-0.4-0.1-0.6-0.2c-0.6-0.2-1.2-0.2-1.8-0.1c-0.9,0.1-1.4,0.8-1.3,1.6
				c0,0.4,0.3,0.8,0.6,1c0.4,0.3,0.8,0.4,1.2,0.6c0.5,0.2,0.9,0.4,1.4,0.6c1,0.6,1.4,1.5,1.3,2.6c-0.1,1.1-0.8,1.9-1.8,2.3
				c-1.3,0.5-2.6,0.3-3.9-0.2c-0.2-0.1-0.3-0.2-0.2-0.4C86.2,170.9,86.3,170.7,86.4,170.4z"/>
			<path class="st11" d="M120.2,170.4c0.6,0.3,1.2,0.5,1.9,0.6c0.4,0,0.9,0,1.3-0.1c0.6-0.2,1-0.6,1.1-1.2c0.1-0.7-0.1-1.3-0.7-1.7
				c-0.4-0.3-0.9-0.5-1.3-0.6c-0.6-0.2-1.2-0.5-1.7-1c-1.1-1-1-2.8,0.2-3.8c0.4-0.3,0.9-0.5,1.5-0.6c0.9-0.1,1.7-0.1,2.6,0.2
				c0.4,0.1,0.4,0.1,0.3,0.5c-0.1,0.2-0.1,0.5-0.3,0.6c-0.2,0.1-0.4-0.1-0.6-0.2c-0.6-0.2-1.2-0.2-1.8-0.1c-0.9,0.1-1.4,0.8-1.3,1.6
				c0,0.4,0.3,0.8,0.6,1c0.4,0.3,0.8,0.4,1.2,0.6c0.5,0.2,0.9,0.4,1.4,0.6c1,0.6,1.4,1.5,1.3,2.6c-0.1,1.1-0.8,1.9-1.8,2.3
				c-1.3,0.5-2.6,0.3-3.9-0.2c-0.2-0.1-0.3-0.2-0.2-0.4c0.1-0.2,0.1-0.4,0.2-0.5C120.1,170.5,120.1,170.5,120.2,170.4z"/>
			<path class="st9" d="M177.4,172.9c0-3.1,0-6.3,0-9.4c0.1,0,0.1,0,0.2,0.1c1.5,1.5,2.9,2.9,4.4,4.4c0.2,0.2,0.2,0.3,0,0.5
				c-1.4,1.4-2.9,2.9-4.3,4.3C177.5,172.8,177.5,172.9,177.4,172.9z"/>
			<path class="st11" d="M146.2,171.9c-0.2,0-0.3,0-0.3,0c-0.2,0-0.5,0.1-0.7,0c-0.3-0.1-0.1-0.4-0.2-0.6c0,0,0-0.1-0.1-0.1
				c-0.2,0-0.2,0.2-0.3,0.3c-0.6,0.5-1.4,0.8-2.2,0.6c-0.8-0.1-1.4-0.5-1.7-1.4c-0.3-0.8-0.1-1.6,0.5-2.2c0.6-0.6,1.3-0.8,2-0.9
				c0.4-0.1,0.8-0.1,1.2-0.1c0.3,0,0.3,0,0.3-0.4c0-0.8-0.5-1.3-1.4-1.4c-0.6,0-1.2,0.1-1.7,0.3c-0.1,0-0.2,0.1-0.3,0.1
				c0,0-0.1,0-0.1-0.1c-0.3-0.8-0.3-0.8,0.5-1.1c0.6-0.2,1.3-0.3,2-0.3c1.3,0.1,2.1,0.9,2.3,2.2c0,0.1,0,0.2,0,0.3
				C146.1,168.8,146.1,170.3,146.2,171.9z M144.9,169C144.9,169,144.9,169,144.9,169c0-0.1,0-0.3,0-0.4c0-0.2-0.1-0.3-0.3-0.3
				c-0.5,0-1,0.1-1.5,0.2c-0.3,0.1-0.6,0.2-0.8,0.5c-0.3,0.4-0.4,0.9-0.2,1.3c0.1,0.4,0.4,0.7,0.9,0.7c1,0.2,1.9-0.6,2-1.4
				C144.9,169.4,144.9,169.2,144.9,169z"/>
			<path class="st11" d="M165.4,170.7c0.1,0.2,0.1,0.4,0.2,0.6c0.1,0.2,0,0.3-0.2,0.3c-1.1,0.4-2.3,0.5-3.4,0.1
				c-1.1-0.3-1.7-1.1-2-2.1c-0.3-1.1-0.2-2.2,0.2-3.2c0.8-1.7,2.5-2.2,3.9-1.7c0.8,0.2,1.3,0.7,1.6,1.4c0.3,0.6,0.4,1.3,0.4,2
				c0,0.4,0,0.4-0.4,0.4c-1.3,0-2.7,0-4,0c-0.6,0-0.6,0-0.5,0.6c0.2,1,0.9,1.7,1.9,1.8c0.7,0.1,1.4,0,2-0.2
				C165.1,170.8,165.2,170.7,165.4,170.7z M162.8,167.7c0.5,0,1.1,0,1.6,0c0.1,0,0.2,0,0.3-0.2c0.1-0.9-0.6-1.7-1.5-1.8
				c-1.1-0.1-2.1,0.6-2.2,1.8c0,0.2,0,0.3,0.2,0.3C161.8,167.7,162.3,167.7,162.8,167.7z"/>
			<path class="st11" d="M158,171C158,171,158,171,158,171c0.1,1.1,0.2,1-0.8,1.1c-0.2,0-0.4,0-0.7,0c-0.8-0.1-1.2-0.6-1.4-1.4
				c-0.1-0.3-0.1-0.6-0.1-0.9c0-1.2,0-2.3,0-3.4c0-0.4,0-0.4-0.4-0.4c-0.7,0-0.7,0-0.7-0.7c0-0.2,0.1-0.3,0.3-0.3c0.2,0,0.4,0,0.6,0
				c0.2,0,0.2-0.1,0.2-0.2c0-0.4,0-0.8,0-1.2c0-0.2,0.1-0.3,0.3-0.4c0.3-0.1,0.6-0.2,1-0.2c0,0.5,0,1.1,0,1.6c0,0.4,0,0.4,0.4,0.4
				c0.4,0,0.8,0,1.2,0c0.2,0,0.3,0.1,0.2,0.3c0,0,0,0,0,0c0,0.8,0.1,0.7-0.6,0.7c-0.3,0-0.6,0-0.9,0c-0.2,0-0.3,0.1-0.3,0.3
				c0,0.7,0,1.3,0,2c0,0.5,0,1,0,1.5c0,0.1,0,0.2,0,0.2c0.1,0.9,0.4,1.2,1.4,1.1C157.8,171,157.9,170.9,158,171z"/>
			<path class="st11" d="M148.8,164.9c0.3-0.1,0.7-0.1,1,0c0.4,0.1,0.1,0.6,0.2,0.9c0,0.1,0,0.2,0,0.4c0.2-0.2,0.2-0.3,0.3-0.5
				c0.4-0.6,1-1,1.7-1c0.3,0,0.4,0,0.4,0.3c0,0.2,0,0.4,0,0.6c0,0.2,0,0.3-0.2,0.3c-1.2,0-1.9,0.7-2,1.9c0,0.4,0,0.8,0,1.1
				c0,0.9,0,1.7,0,2.6c0,0.2-0.1,0.4-0.3,0.3c-0.2,0-0.4,0-0.7,0c-0.2,0-0.3-0.1-0.3-0.3c0-0.8,0-1.6,0-2.3c0-1.4,0-2.7-0.1-4.1
				C148.8,165.1,148.8,165,148.8,164.9z"/>
			<path class="st11" d="M169.5,166.1c0.1-0.2,0.2-0.4,0.3-0.5c0.4-0.5,1-0.9,1.7-0.9c0.2,0,0.3,0.1,0.3,0.3c0,0.2,0,0.4,0,0.7
				c0,0.2-0.1,0.2-0.2,0.2c-1.3,0.1-1.9,0.7-2,2c0,1.1,0,2.2,0,3.4c0,0.1,0,0.3,0,0.4c0,0.2,0,0.2-0.2,0.2c-0.3,0-0.6,0-0.9,0
				c-0.1,0-0.2-0.1-0.2-0.2c0-0.1,0-0.2,0-0.3c0-2.1,0-4.2-0.1-6.2c0-0.3,0-0.3,0.3-0.3c0.8,0,0.8,0,0.8,0.7
				C169.4,165.8,169.4,165.9,169.5,166.1C169.4,166.1,169.4,166.1,169.5,166.1z"/>
			<path class="st10" d="M65.3,124.5c0-1,0.3-1.6,1.1-1.8c0.5-0.2,1.1-0.2,1.6,0.1c0.5,0.2,0.8,0.6,0.9,1.2c0,0.2,0,0.4,0,0.6
				c0,0.8-0.3,1.3-1,1.6c-0.8,0.3-1.5,0.3-2.2-0.3C65.4,125.6,65.2,125.1,65.3,124.5z"/>
			<path class="st11" d="M104.6,168.4c0,1.1,0,2.1,0,3.2c0,0.3,0,0.3-0.3,0.3c-0.2,0-0.5,0-0.7,0c-0.2,0-0.2-0.1-0.2-0.2
				c0-0.1,0-0.2,0-0.3c0-2,0-4,0-6c0-0.1,0-0.2,0-0.3c0-0.1,0.1-0.2,0.2-0.2c0.3,0,0.6,0,0.9,0c0.1,0,0.2,0.1,0.2,0.2s0,0.2,0,0.3
				C104.6,166.4,104.6,167.4,104.6,168.4z"/>
			<path class="st11" d="M120.1,127.1c0-1.7,0-3.4,0-5.2c1,0.9,2,1.7,3,2.6C122.8,125,120.4,127,120.1,127.1z"/>
			<path class="st11" d="M103.9,163.7c-0.4,0-0.8-0.3-0.8-0.8c0-0.4,0.3-0.8,0.8-0.8c0.5,0,0.8,0.3,0.8,0.8
				C104.7,163.3,104.4,163.7,103.9,163.7z"/>
		</g>
	</g>
</g>
</svg>
