<?xml version="1.0" encoding="utf-8"?>
<!-- Generator: Adobe Illustrator 22.1.0, SVG Export Plug-In . SVG Version: 6.00 Build 0)  -->
<svg version="1.1" id="Layer_1" xmlns="http://www.w3.org/2000/svg" xmlns:xlink="http://www.w3.org/1999/xlink" x="0px" y="0px"
	 viewBox="0 0 490 140" style="enable-background:new 0 0 490 140;" xml:space="preserve">
<style type="text/css">
	.st0{fill:#EC5A26;}
	.st1{fill:#FFFFFF;}
	.st2{font-family:'Nunito', sans-serif;}
	.st3{font-size:31px;}
	.st4{font-size:18px;}
</style>
<path class="st0" d="M81.1,10L490,0l0,140H16.1c-14.7,0-18.1-7.8-15-15c3.1-7.2,12.1-27.2,19-43C7.9,109.8,39.6,35.7,47,23.4
	C54.5,13.8,67.9,10,81.1,10z"/>
<text transform="matrix(1 0 0 1 103.0099 70.002)" class="st1 st2 st3">Try Your First Quote</text>
<path class="st1" d="M400,63.9L400,63.9l12,0l-3.8,3.8c-0.2,0.2-0.3,0.4-0.3,0.7s0.1,0.5,0.3,0.7l0.6,0.6c0.2,0.2,0.4,0.3,0.7,0.3
	s0.5-0.1,0.7-0.3l6.5-6.5c0.2-0.2,0.3-0.4,0.3-0.7c0-0.3-0.1-0.5-0.3-0.7l-6.5-6.5c-0.2-0.2-0.4-0.3-0.7-0.3s-0.5,0.1-0.7,0.3
	l-0.6,0.6c-0.2,0.2-0.3,0.4-0.3,0.7s0.1,0.5,0.3,0.7l3.8,3.8H400c-0.5,0-1,0.5-1,1v0.8C399,63.5,399.5,63.9,400,63.9z"/>
<text transform="matrix(1 0 0 1 108.0099 100.002)" class="st1 st2 st4">Creating an Account is Free and Fast.</text>
</svg>
