<svg width="150" height="120" viewBox="0 0 150 120" fill="none" xmlns="http://www.w3.org/2000/svg">
<path d="M55.7011 41.9796L53.6446 51.0301L43.2062 50.988L37.4413 78.4899L23.5042 78.4748L29.2522 51.021L18.7262 51.0978L20.7233 41.9681L55.7011 41.9796Z" fill="#262F63"/>
<path d="M59.7862 66.9857L60.2403 67.2726C66.2056 70.9908 74.8691 70.9417 76.7782 67.6076C77.1032 67.0276 76.8072 65.9855 74.7592 65.4009C72.243 64.6991 68.3761 63.8353 66.1696 63.0867C58.8429 60.6292 56.3115 54.289 61.9938 47.7246C69.0542 39.4978 81.5812 39.2717 93.3978 44.3888L94.2436 44.7618L86.9258 52.8104L86.4915 52.5971C79.7613 49.3558 74.6235 49.5434 73.0929 51.7799C72.3651 52.8479 73.1561 54.0313 75.0642 54.606C76.9722 55.1808 80.9323 55.9569 83.7653 56.7745C90.5544 58.7514 93.9616 62.7719 90.1804 69.9606C85.5555 78.7463 73.2539 80.2974 66.5673 79.729C61.6875 79.3426 56.9352 77.9788 52.5931 75.7188L51.7557 75.3571L59.7862 66.9857Z" fill="#262F63"/>
<path d="M135.543 42.0168L133.487 51.0673L123.057 51.0365L117.292 78.5384L103.345 78.5219L109.093 51.0681L98.5783 51.1363L100.575 42.0067L135.543 42.0168Z" fill="#262F63"/>
</svg>
