<?xml version="1.0" encoding="iso-8859-1"?>
<!-- Generator: Adobe Illustrator 21.0.0, SVG Export Plug-In . SVG Version: 6.00 Build 0)  -->
<svg version="1.1" id="Capa_1" xmlns="http://www.w3.org/2000/svg" xmlns:xlink="http://www.w3.org/1999/xlink" x="0px" y="0px"
	 viewBox="0 0 512 512" style="enable-background:new 0 0 512 512;" xml:space="preserve">
<g>
	<path style="fill:#83D9CB;" d="M68.024,399.496c-2.322,0-4.611-1.075-6.079-3.1C32.215,355.373,16.5,306.824,16.5,256
		c0-63.973,24.912-124.116,70.148-169.352S192.027,16.5,256,16.5c47.238,0,92.934,13.737,132.147,39.726
		c3.452,2.289,4.396,6.942,2.108,10.396c-2.287,3.453-6.94,4.397-10.396,2.108C343.111,44.374,300.281,31.5,256,31.5
		C132.21,31.5,31.5,132.21,31.5,256c0,47.643,14.728,93.146,42.592,131.594c2.431,3.354,1.682,8.044-1.672,10.475
		C71.09,399.031,69.55,399.496,68.024,399.496z"/>
	<path style="fill:#83D9CB;" d="M256,495.5c-47.236,0-92.931-13.736-132.143-39.723c-3.452-2.288-4.396-6.942-2.108-10.396
		c2.288-3.452,6.942-4.396,10.396-2.108C168.892,467.627,211.72,480.5,256,480.5c94.961,0,180.036-60.113,211.698-149.584
		c1.381-3.904,5.668-5.952,9.572-4.568c3.905,1.382,5.95,5.668,4.568,9.572C448.062,431.37,357.304,495.5,256,495.5z"/>
	<path style="fill:#83D9CB;" d="M484.064,306.326c-0.457,0-0.92-0.041-1.385-0.128c-4.071-0.76-6.757-4.677-5.997-8.749
		c2.533-13.574,3.817-27.52,3.817-41.449c0-47.644-14.729-93.149-42.595-131.599c-2.431-3.354-1.682-8.044,1.672-10.475
		c3.355-2.43,8.043-1.683,10.475,1.672C479.784,156.625,495.5,205.175,495.5,256c0,14.851-1.37,29.722-4.071,44.201
		C490.756,303.808,487.605,306.326,484.064,306.326z"/>
</g>
<path style="fill:#A696C8;" d="M256,72C154.542,72,72,154.542,72,256s82.542,184,184,184s184-82.542,184-184S357.458,72,256,72z"/>
<path style="fill:#9E8DC3;" d="M288,424c-101.458,0-184-82.542-184-184c0-65.615,34.531-123.309,86.367-155.89
	C121.225,110.6,72,177.654,72,256c0,101.458,82.542,184,184,184c35.843,0,69.317-10.312,97.633-28.11
	C333.237,419.705,311.112,424,288,424z"/>
<path style="fill:#8873B5;" d="M325.381,384.028c8.215-16.43,14.658-35.415,19.15-56.028h80.791c2.226-5.214,4.211-10.553,5.955-16
	h-83.705c2.913-17.869,4.429-36.712,4.429-56s-1.516-38.131-4.429-56h83.705c-1.744-5.447-3.729-10.786-5.955-16h-80.791
	c-4.492-20.613-10.935-39.599-19.15-56.028C307.334,91.878,282.693,72,256,72s-51.334,19.878-69.381,55.972
	c-8.215,16.43-14.658,35.415-19.15,56.028H86.678c-2.226,5.214-4.211,10.553-5.955,16h83.705c-2.913,17.869-4.429,36.712-4.429,56
	s1.516,38.131,4.429,56H80.724c1.744,5.447,3.729,10.786,5.955,16h80.791c4.492,20.613,10.935,39.599,19.15,56.028
	C204.666,420.122,229.307,440,256,440S307.334,420.122,325.381,384.028z M200.931,135.127C216.125,104.736,235.683,88,256,88
	s39.875,16.736,55.069,47.127c7.187,14.372,12.925,30.901,17.079,48.873H183.852C188.006,166.028,193.744,149.499,200.931,135.127z
	 M176,256c0-19.381,1.592-38.245,4.64-56h150.72c3.048,17.755,4.64,36.619,4.64,56s-1.592,38.245-4.64,56H180.64
	C177.592,294.245,176,275.381,176,256z M256,424c-20.317,0-39.875-16.736-55.069-47.127c-7.187-14.372-12.925-30.901-17.079-48.873
	h144.296c-4.154,17.972-9.892,34.501-17.079,48.873C295.875,407.264,276.317,424,256,424z"/>
<path style="fill:#FFE07E;" d="M504,0h-96c-4.418,0-8,3.582-8,8v88c0,4.418,3.582,8,8,8h96c4.418,0,8-3.582,8-8V8
	C512,3.582,508.418,0,504,0z"/>
<path style="fill:#FFD653;" d="M424,96V8c0-4.418,3.582-8,8-8h-24c-4.418,0-8,3.582-8,8v88c0,4.418,3.582,8,8,8h24
	C427.582,104,424,100.418,424,96z"/>
<g>
	<path style="fill:#EBB645;" d="M448,72h-40c-4.418,0-8-3.582-8-8s3.582-8,8-8h40c4.418,0,8,3.582,8,8S452.418,72,448,72z"/>
	<path style="fill:#EBB645;" d="M472,0h-32v32c0,4.418,3.582,8,8,8h16c4.418,0,8-3.582,8-8V0z"/>
</g>
<path style="fill:#FFE07E;" d="M104,408H8c-4.418,0-8,3.582-8,8v88c0,4.418,3.582,8,8,8h96c4.418,0,8-3.582,8-8v-88
	C112,411.582,108.418,408,104,408z"/>
<path style="fill:#FFD653;" d="M24,504v-88c0-4.418,3.582-8,8-8H8c-4.418,0-8,3.582-8,8v88c0,4.418,3.582,8,8,8h24
	C27.582,512,24,508.418,24,504z"/>
<g>
	<path style="fill:#EBB645;" d="M48,480H8c-4.418,0-8-3.582-8-8s3.582-8,8-8h40c4.418,0,8,3.582,8,8S52.418,480,48,480z"/>
	<path style="fill:#EBB645;" d="M72,408H40v32c0,4.418,3.582,8,8,8h16c4.418,0,8-3.582,8-8V408z"/>
</g>
<g>
</g>
<g>
</g>
<g>
</g>
<g>
</g>
<g>
</g>
<g>
</g>
<g>
</g>
<g>
</g>
<g>
</g>
<g>
</g>
<g>
</g>
<g>
</g>
<g>
</g>
<g>
</g>
<g>
</g>
</svg>
